<?xml version="1.0" encoding="UTF-8" standalone="no"?>
<!DOCTYPE svg PUBLIC "-//W3C//DTD SVG 1.0//EN"
 "http://www.w3.org/TR/2001/REC-SVG-20010904/DTD/svg10.dtd" [
 <!ATTLIST svg xmlns:xlink CDATA #FIXED "http://www.w3.org/1999/xlink">
]>
<!-- Generated by dot version 2.7.20051025.0440 (Tue Oct 25 07:40:11 UTC 2005)
     For user: (ellson) John Ellson -->
<!-- Title: G Pages: 1 -->
<svg width="226pt" height="432pt"
 viewBox = "0 0 226 432"
 xmlns="http://www.w3.org/2000/svg" xmlns:xlink="http://www.w3.org/1999/xlink">
<g id="graph0" class="graph" style="font-family:Times-Roman;font-size:14.00;">
<title>G</title>
<g id="graph2" class="cluster"><title>cluster_0</title>
<polygon style="fill:lightgrey;stroke:lightgrey;" points="13,353 103,353 103,61 13,61 13,353"/>
<text text-anchor="middle" x="58" y="78">process #1</text>
</g>
<g id="graph3" class="cluster"><title>cluster_1</title>
<polygon style="fill:none;stroke:blue;" points="136,353 213,353 213,61 136,61 136,353"/>
<text text-anchor="middle" x="174" y="78">process #2</text>
</g>
<!-- a0 -->
<g id="node2" class="node"><title>a0</title>
<ellipse style="fill:white;stroke:white;" cx="68" cy="111" rx="27" ry="18"/>
<text text-anchor="middle" x="68" y="116">a0</text>
</g>
<!-- a1 -->
<g id="node4" class="node"><title>a1</title>
<ellipse style="fill:white;stroke:white;" cx="68" cy="183" rx="27" ry="18"/>
<text text-anchor="middle" x="68" y="188">a1</text>
</g>
<!-- a0&#45;&gt;a1 -->
<g id="edge3" class="edge"><title>a0&#45;&gt;a1</title>
<path style="fill:none;stroke:black;" d="M68,129C68,137 68,146 68,155"/>
<polygon style="fill:black;stroke:black;" points="72,155 68,165 65,155 72,155"/>
</g>
<!-- a2 -->
<g id="node5" class="node"><title>a2</title>
<ellipse style="fill:white;stroke:white;" cx="68" cy="255" rx="27" ry="18"/>
<text text-anchor="middle" x="68" y="260">a2</text>
</g>
<!-- a1&#45;&gt;a2 -->
<g id="edge4" class="edge"><title>a1&#45;&gt;a2</title>
<path style="fill:none;stroke:black;" d="M68,201C68,209 68,218 68,227"/>
<polygon style="fill:black;stroke:black;" points="72,227 68,237 65,227 72,227"/>
</g>
<!-- b3 -->
<g id="node12" class="node"><title>b3</title>
<ellipse style="fill:lightgrey;stroke:black;" cx="171" cy="327" rx="27" ry="18"/>
<text text-anchor="middle" x="171" y="332">b3</text>
</g>
<!-- a1&#45;&gt;b3 -->
<g id="edge16" class="edge"><title>a1&#45;&gt;b3</title>
<path style="fill:none;stroke:black;" d="M80,200C98,224 133,273 153,302"/>
<polygon style="fill:black;stroke:black;" points="156,301 159,311 151,305 156,301"/>
</g>
<!-- a3 -->
<g id="node6" class="node"><title>a3</title>
<ellipse style="fill:white;stroke:white;" cx="68" cy="327" rx="27" ry="18"/>
<text text-anchor="middle" x="68" y="332">a3</text>
</g>
<!-- a2&#45;&gt;a3 -->
<g id="edge5" class="edge"><title>a2&#45;&gt;a3</title>
<path style="fill:none;stroke:black;" d="M68,273C68,281 68,290 68,299"/>
<polygon style="fill:black;stroke:black;" points="72,299 68,309 65,299 72,299"/>
</g>
<!-- a3&#45;&gt;a0 -->
<g id="edge20" class="edge"><title>a3&#45;&gt;a0</title>
<path style="fill:none;stroke:black;" d="M54,311C46,301 37,287 32,273 19,228 19,211 32,165 36,154 42,144 48,135"/>
<polygon style="fill:black;stroke:black;" points="45,133 54,127 51,137 45,133"/>
</g>
<!-- end -->
<g id="node20" class="node"><title>end</title>
<polygon style="fill:none;stroke:black;" points="137,382 101,382 101,418 137,418 137,382"/>
<polyline style="fill:none;stroke:black;" points="113,382 101,394 "/>
<polyline style="fill:none;stroke:black;" points="101,407 113,418 "/>
<polyline style="fill:none;stroke:black;" points="125,418 137,406 "/>
<polyline style="fill:none;stroke:black;" points="137,394 125,382 "/>
<text text-anchor="middle" x="119" y="405">end</text>
</g>
<!-- a3&#45;&gt;end -->
<g id="edge22" class="edge"><title>a3&#45;&gt;end</title>
<path style="fill:none;stroke:black;" d="M80,344C86,352 93,363 100,373"/>
<polygon style="fill:black;stroke:black;" points="103,371 106,381 97,375 103,371"/>
</g>
<!-- b0 -->
<g id="node8" class="node"><title>b0</title>
<ellipse style="fill:lightgrey;stroke:black;" cx="174" cy="111" rx="27" ry="18"/>
<text text-anchor="middle" x="174" y="116">b0</text>
</g>
<!-- b1 -->
<g id="node10" class="node"><title>b1</title>
<ellipse style="fill:lightgrey;stroke:black;" cx="176" cy="183" rx="27" ry="18"/>
<text text-anchor="middle" x="176" y="188">b1</text>
</g>
<!-- b0&#45;&gt;b1 -->
<g id="edge8" class="edge"><title>b0&#45;&gt;b1</title>
<path style="fill:none;stroke:black;" d="M175,129C175,137 175,146 175,155"/>
<polygon style="fill:black;stroke:black;" points="178,155 176,165 172,155 178,155"/>
</g>
<!-- b2 -->
<g id="node11" class="node"><title>b2</title>
<ellipse style="fill:lightgrey;stroke:black;" cx="178" cy="255" rx="27" ry="18"/>
<text text-anchor="middle" x="178" y="260">b2</text>
</g>
<!-- b1&#45;&gt;b2 -->
<g id="edge9" class="edge"><title>b1&#45;&gt;b2</title>
<path style="fill:none;stroke:black;" d="M177,201C177,209 177,218 177,227"/>
<polygon style="fill:black;stroke:black;" points="180,227 178,237 174,227 180,227"/>
</g>
<!-- b2&#45;&gt;a3 -->
<g id="edge18" class="edge"><title>b2&#45;&gt;a3</title>
<path style="fill:none;stroke:black;" d="M159,268C142,279 115,296 96,308"/>
<polygon style="fill:black;stroke:black;" points="97,311 87,314 93,306 97,311"/>
</g>
<!-- b2&#45;&gt;b3 -->
<g id="edge10" class="edge"><title>b2&#45;&gt;b3</title>
<path style="fill:none;stroke:black;" d="M176,273C175,281 175,290 174,299"/>
<polygon style="fill:black;stroke:black;" points="177,299 173,309 171,299 177,299"/>
</g>
<!-- b3&#45;&gt;end -->
<g id="edge24" class="edge"><title>b3&#45;&gt;end</title>
<path style="fill:none;stroke:black;" d="M159,344C153,353 145,363 138,373"/>
<polygon style="fill:black;stroke:black;" points="141,375 132,381 135,371 141,375"/>
</g>
<!-- start -->
<g id="node13" class="node"><title>start</title>
<polygon style="fill:none;stroke:black;" points="121,5 85,29 121,53 157,29 121,5"/>
<polyline style="fill:none;stroke:black;" points="94,23 94,36 "/>
<polyline style="fill:none;stroke:black;" points="111,47 130,47 "/>
<polyline style="fill:none;stroke:black;" points="147,36 147,23 "/>
<polyline style="fill:none;stroke:black;" points="130,12 111,12 "/>
<text text-anchor="middle" x="121" y="34">start</text>
</g>
<!-- start&#45;&gt;a0 -->
<g id="edge12" class="edge"><title>start&#45;&gt;a0</title>
<path style="fill:none;stroke:black;" d="M110,46C103,57 93,73 84,86"/>
<polygon style="fill:black;stroke:black;" points="87,87 79,94 81,84 87,87"/>
</g>
<!-- start&#45;&gt;b0 -->
<g id="edge14" class="edge"><title>start&#45;&gt;b0</title>
<path style="fill:none;stroke:black;" d="M132,46C139,57 149,73 158,86"/>
<polygon style="fill:black;stroke:black;" points="161,84 163,94 155,87 161,84"/>
</g>
</g>
</svg>
