<?xml version="1.0" encoding="UTF-8" standalone="no"?>
<!DOCTYPE svg PUBLIC "-//W3C//DTD SVG 1.0//EN"
 "http://www.w3.org/TR/2001/REC-SVG-20010904/DTD/svg10.dtd" [
 <!ATTLIST svg xmlns:xlink CDATA #FIXED "http://www.w3.org/1999/xlink">
]>
<!-- Generated by dot version 2.7.20051025.0440 (Tue Oct 25 07:40:11 UTC 2005)
     For user: (ellson) John Ellson -->
<!-- Title: unix Pages: 1 -->
<svg width="399pt" height="435pt"
 viewBox = "0 0 399 435"
 xmlns="http://www.w3.org/2000/svg" xmlns:xlink="http://www.w3.org/1999/xlink">
<g id="graph0" class="graph" style="font-family:Times-Roman;font-size:14.00;">
<title>unix</title>
<text text-anchor="middle" x="199" y="415" style="font-family:Helvetica-Oblique;font-size:11.85;">Object Oriented Graphs</text>
<text text-anchor="middle" x="199" y="429" style="font-family:Helvetica-Oblique;font-size:11.85;">Stephen North, 3/19/93</text>
<!-- 5th Edition -->
<g id="node1" class="node"><title>5th Edition</title>
<polygon style="fill:#ee7f61;stroke:#ee7f61;" points="266,9 268,4 260,2 240,4 223,9 225,12 239,14 252,14 260,13 266,9"/>
<text text-anchor="middle" x="248" y="11" style="font-family:Helvetica-Outline;font-size:4.61;">5th Edition</text>
</g>
<!-- 6th Edition -->
<g id="node2" class="node"><title>6th Edition</title>
<polygon style="fill:deepskyblue;stroke:deepskyblue;" points="218,32 193,29 161,36 168,43 198,41 218,32"/>
<text text-anchor="middle" x="188" y="38" style="font-family:Helvetica-Outline;font-size:4.61;">6th Edition</text>
</g>
<!-- 5th Edition&#45;&gt;6th Edition -->
<g id="edge2" class="edge"><title>5th Edition&#45;&gt;6th Edition</title>
<path style="fill:none;stroke:black;" d="M237,14C228,18 215,24 205,29"/>
<polygon style="fill:black;stroke:black;" points="206,29 202,30 205,28 206,29"/>
</g>
<!-- PWB 1.0 -->
<g id="node3" class="node"><title>PWB 1.0</title>
<polygon style="fill:#eeb222;stroke:#eeb222;" points="294,30 283,30 274,34 271,39 278,42 289,42 298,38 300,34 294,30"/>
<text text-anchor="middle" x="286" y="38" style="font-family:Helvetica-Outline;font-size:4.61;">PWB 1.0</text>
</g>
<!-- 5th Edition&#45;&gt;PWB 1.0 -->
<g id="edge4" class="edge"><title>5th Edition&#45;&gt;PWB 1.0</title>
<path style="fill:none;stroke:black;" d="M255,14C261,18 270,25 277,29"/>
<polygon style="fill:black;stroke:black;" points="277,29 279,31 276,30 277,29"/>
</g>
<!-- LSX -->
<g id="node4" class="node"><title>LSX</title>
<polygon style="fill:#eec391;stroke:#eec391;" points="265,66 260,63 252,61 246,61 242,64 240,68 241,72 249,73 260,70 265,66"/>
<text text-anchor="middle" x="251" y="68" style="font-family:Helvetica-Outline;font-size:4.61;">LSX</text>
</g>
<!-- 6th Edition&#45;&gt;LSX -->
<g id="edge6" class="edge"><title>6th Edition&#45;&gt;LSX</title>
<path style="fill:none;stroke:black;" d="M200,41C209,44 222,50 234,56 237,57 239,59 242,60"/>
<polygon style="fill:black;stroke:black;" points="242,59 244,62 241,61 242,59"/>
</g>
<!-- 1 BSD -->
<g id="node5" class="node"><title>1 BSD</title>
<polygon style="fill:#ffd200;stroke:#ffd200;" points="77,65 74,60 61,61 51,66 53,71 62,73 72,71 77,65"/>
<text text-anchor="middle" x="64" y="68" style="font-family:Helvetica-Outline;font-size:4.61;">1 BSD</text>
</g>
<!-- 6th Edition&#45;&gt;1 BSD -->
<g id="edge8" class="edge"><title>6th Edition&#45;&gt;1 BSD</title>
<path style="fill:none;stroke:black;" d="M164,39C144,43 115,48 91,56 86,57 82,58 78,60"/>
<polygon style="fill:black;stroke:black;" points="79,61 75,62 78,59 79,61"/>
</g>
<!-- Mini Unix -->
<g id="node6" class="node"><title>Mini Unix</title>
<polygon style="fill:greenyellow;stroke:greenyellow;" points="177,59 146,59 154,74 184,74 177,59"/>
<text text-anchor="middle" x="165" y="68" style="font-family:Helvetica-Outline;font-size:4.61;">Mini Unix</text>
</g>
<!-- 6th Edition&#45;&gt;Mini Unix -->
<g id="edge10" class="edge"><title>6th Edition&#45;&gt;Mini Unix</title>
<path style="fill:none;stroke:black;" d="M183,42C180,46 176,52 173,56"/>
<polygon style="fill:black;stroke:black;" points="174,57 171,59 172,56 174,57"/>
</g>
<!-- Wollongong -->
<g id="node7" class="node"><title>Wollongong</title>
<polygon style="fill:darkseagreen;stroke:darkseagreen;" points="214,59 192,64 195,72 221,72 231,66 214,59"/>
<text text-anchor="middle" x="211" y="68" style="font-family:Helvetica-Outline;font-size:4.61;">Wollongong</text>
</g>
<!-- 6th Edition&#45;&gt;Wollongong -->
<g id="edge12" class="edge"><title>6th Edition&#45;&gt;Wollongong</title>
<path style="fill:none;stroke:black;" d="M192,42C195,46 200,53 204,58"/>
<polygon style="fill:black;stroke:black;" points="205,57 206,61 203,59 205,57"/>
</g>
<!-- Interdata -->
<g id="node8" class="node"><title>Interdata</title>
<polygon style="fill:#1e92ff;stroke:#1e92ff;" points="118,56 94,71 121,74 133,66 118,56"/>
<text text-anchor="middle" x="117" y="68" style="font-family:Helvetica-Outline;font-size:4.61;">Interdata</text>
</g>
<!-- 6th Edition&#45;&gt;Interdata -->
<g id="edge14" class="edge"><title>6th Edition&#45;&gt;Interdata</title>
<path style="fill:none;stroke:black;" d="M172,43C159,48 142,56 131,61"/>
<polygon style="fill:black;stroke:black;" points="131,62 128,62 130,60 131,62"/>
</g>
<!-- PWB 1.2 -->
<g id="node28" class="node"><title>PWB 1.2</title>
<polygon style="fill:cyan;stroke:cyan;" points="292,57 279,58 271,68 274,78 287,76 298,68 300,62 292,57"/>
<text text-anchor="middle" x="286" y="68" style="font-family:Helvetica-Outline;font-size:4.61;">PWB 1.2</text>
</g>
<!-- PWB 1.0&#45;&gt;PWB 1.2 -->
<g id="edge62" class="edge"><title>PWB 1.0&#45;&gt;PWB 1.2</title>
<path style="fill:none;stroke:black;" d="M286,42C286,45 286,50 286,54"/>
<polygon style="fill:black;stroke:black;" points="287,54 286,57 285,54 287,54"/>
</g>
<!-- USG 1.0 -->
<g id="node29" class="node"><title>USG 1.0</title>
<polygon style="fill:blue;stroke:blue;" points="342,56 307,69 334,74 348,68 342,56"/>
<text text-anchor="middle" x="333" y="68" style="font-family:Helvetica-Outline;font-size:4.61;">USG 1.0</text>
</g>
<!-- PWB 1.0&#45;&gt;USG 1.0 -->
<g id="edge64" class="edge"><title>PWB 1.0&#45;&gt;USG 1.0</title>
<path style="fill:none;stroke:black;" d="M293,41C300,46 314,54 323,60"/>
<polygon style="fill:black;stroke:black;" points="323,59 326,62 322,61 323,59"/>
</g>
<!-- 2 BSD -->
<g id="node19" class="node"><title>2 BSD</title>
<polygon style="fill:blanchedalmond;stroke:blanchedalmond;" points="40,227 30,227 24,231 28,236 38,239 47,236 48,231 40,227"/>
<text text-anchor="middle" x="36" y="234" style="font-family:Helvetica-Outline;font-size:4.61;">2 BSD</text>
</g>
<!-- 1 BSD&#45;&gt;2 BSD -->
<g id="edge38" class="edge"><title>1 BSD&#45;&gt;2 BSD</title>
<path style="fill:none;stroke:black;" d="M61,73C55,86 44,114 44,139 44,139 44,139 44,173 44,191 40,212 38,223"/>
<polygon style="fill:black;stroke:black;" points="39,223 38,226 37,223 39,223"/>
</g>
<!-- Unix/TS 3.0 -->
<g id="node9" class="node"><title>Unix/TS 3.0</title>
<polygon style="fill:#edd2ee;stroke:#edd2ee;" points="293,168 285,164 263,167 239,174 236,180 254,180 276,178 289,173 293,168"/>
<text text-anchor="middle" x="267" y="175" style="font-family:Helvetica-Outline;font-size:4.61;">Unix/TS 3.0</text>
</g>
<!-- Interdata&#45;&gt;Unix/TS 3.0 -->
<g id="edge16" class="edge"><title>Interdata&#45;&gt;Unix/TS 3.0</title>
<path style="fill:none;stroke:black;" d="M125,72C141,81 178,104 206,127 219,137 219,142 232,152 240,158 248,163 255,167"/>
<polygon style="fill:black;stroke:black;" points="255,166 258,168 254,168 255,166"/>
</g>
<!-- PWB 2.0 -->
<g id="node10" class="node"><title>PWB 2.0</title>
<polygon style="fill:#a3cd5a;stroke:#a3cd5a;" points="269,96 249,95 223,102 227,108 251,108 267,103 269,96"/>
<text text-anchor="middle" x="248" y="104" style="font-family:Helvetica-Outline;font-size:4.61;">PWB 2.0</text>
</g>
<!-- Interdata&#45;&gt;PWB 2.0 -->
<g id="edge18" class="edge"><title>Interdata&#45;&gt;PWB 2.0</title>
<path style="fill:none;stroke:black;" d="M126,71C131,74 137,76 143,78 176,87 186,81 218,90 224,91 231,94 236,97"/>
<polygon style="fill:black;stroke:black;" points="237,96 239,98 236,98 237,96"/>
</g>
<!-- 7th Edition -->
<g id="node11" class="node"><title>7th Edition</title>
<polygon style="fill:chocolate;stroke:chocolate;" points="130,100 125,96 116,95 107,97 101,102 102,106 109,109 119,109 127,107 132,104 130,100"/>
<text text-anchor="middle" x="117" y="104" style="font-family:Helvetica-Outline;font-size:4.61;">7th Edition</text>
</g>
<!-- Interdata&#45;&gt;7th Edition -->
<g id="edge20" class="edge"><title>Interdata&#45;&gt;7th Edition</title>
<path style="fill:none;stroke:black;" d="M117,73C117,78 117,85 117,91"/>
<polygon style="fill:black;stroke:black;" points="118,91 117,95 116,91 118,91"/>
</g>
<!-- TS 4.0 -->
<g id="node38" class="node"><title>TS 4.0</title>
<polygon style="fill:crimson;stroke:crimson;" points="302,225 296,224 284,226 274,229 267,233 265,237 268,241 276,241 288,237 299,231 302,225"/>
<text text-anchor="middle" x="282" y="234" style="font-family:Helvetica-Outline;font-size:4.61;">TS 4.0</text>
</g>
<!-- Unix/TS 3.0&#45;&gt;TS 4.0 -->
<g id="edge88" class="edge"><title>Unix/TS 3.0&#45;&gt;TS 4.0</title>
<path style="fill:none;stroke:black;" d="M268,179C271,189 276,211 280,223"/>
<polygon style="fill:black;stroke:black;" points="281,223 281,226 279,223 281,223"/>
</g>
<!-- PWB 2.0&#45;&gt;Unix/TS 3.0 -->
<g id="edge84" class="edge"><title>PWB 2.0&#45;&gt;Unix/TS 3.0</title>
<path style="fill:none;stroke:black;" d="M244,108C238,118 229,138 236,152 240,159 247,164 253,167"/>
<polygon style="fill:black;stroke:black;" points="254,166 256,169 253,168 254,166"/>
</g>
<!-- 8th Edition -->
<g id="node12" class="node"><title>8th Edition</title>
<polygon style="fill:#00c5cd;stroke:#00c5cd;" points="208,261 193,267 204,280 245,262 208,261"/>
<text text-anchor="middle" x="213" y="269" style="font-family:Helvetica-Outline;font-size:4.61;">8th Edition</text>
</g>
<!-- 7th Edition&#45;&gt;8th Edition -->
<g id="edge22" class="edge"><title>7th Edition&#45;&gt;8th Edition</title>
<path style="fill:none;stroke:black;" d="M128,107C135,109 145,112 153,115 172,121 183,112 195,127 209,142 201,152 201,173 201,173 201,173 201,202 201,222 206,245 210,257"/>
<polygon style="fill:black;stroke:black;" points="211,257 211,261 209,258 211,257"/>
</g>
<!-- 32V -->
<g id="node13" class="node"><title>32V</title>
<polygon style="fill:#4f96cd;stroke:#4f96cd;" points="190,138 191,132 176,133 161,139 163,144 173,146 181,144 190,138"/>
<text text-anchor="middle" x="177" y="141" style="font-family:Helvetica-Outline;font-size:4.61;">32V</text>
</g>
<!-- 7th Edition&#45;&gt;32V -->
<g id="edge24" class="edge"><title>7th Edition&#45;&gt;32V</title>
<path style="fill:none;stroke:black;" d="M126,108C134,112 147,120 158,127 161,129 165,131 168,133"/>
<polygon style="fill:black;stroke:black;" points="169,132 171,135 167,134 169,132"/>
</g>
<!-- V7M -->
<g id="node14" class="node"><title>V7M</title>
<polygon style="fill:navy;stroke:navy;" points="33,171 31,168 24,166 17,167 12,169 7,173 4,178 6,182 15,181 26,176 33,171"/>
<text text-anchor="middle" x="18" y="175" style="font-family:Helvetica-Outline;font-size:4.61;">V7M</text>
</g>
<!-- 7th Edition&#45;&gt;V7M -->
<g id="edge26" class="edge"><title>7th Edition&#45;&gt;V7M</title>
<path style="fill:none;stroke:black;" d="M102,106C88,109 68,116 53,127 40,137 29,153 23,164"/>
<polygon style="fill:black;stroke:black;" points="24,164 21,166 22,163 24,164"/>
</g>
<!-- Ultrix&#45;11 -->
<g id="node15" class="node"><title>Ultrix&#45;11</title>
<polygon style="fill:#698b69;stroke:#698b69;" points="56,307 57,303 51,300 43,299 35,299 27,302 21,306 22,309 32,311 46,310 56,307"/>
<text text-anchor="middle" x="39" y="306" style="font-family:Helvetica-Outline;font-size:4.61;">Ultrix&#45;11</text>
</g>
<!-- 7th Edition&#45;&gt;Ultrix&#45;11 -->
<g id="edge28" class="edge"><title>7th Edition&#45;&gt;Ultrix&#45;11</title>
<path style="fill:none;stroke:black;" d="M101,105C89,108 73,114 64,127 52,143 58,152 58,173 58,173 58,173 58,232 58,256 49,282 43,296"/>
<polygon style="fill:black;stroke:black;" points="44,296 42,299 42,295 44,296"/>
</g>
<!-- Xenix -->
<g id="node16" class="node"><title>Xenix</title>
<polygon style="fill:coral;stroke:coral;" points="95,133 85,133 75,136 68,140 69,145 76,147 87,144 96,138 95,133"/>
<text text-anchor="middle" x="81" y="141" style="font-family:Helvetica-Outline;font-size:4.61;">Xenix</text>
</g>
<!-- 7th Edition&#45;&gt;Xenix -->
<g id="edge30" class="edge"><title>7th Edition&#45;&gt;Xenix</title>
<path style="fill:none;stroke:black;" d="M111,109C105,115 97,124 90,130"/>
<polygon style="fill:black;stroke:black;" points="91,131 88,133 90,129 91,131"/>
</g>
<!-- UniPlus+ -->
<g id="node17" class="node"><title>UniPlus+</title>
<polygon style="fill:#a3cd5a;stroke:#a3cd5a;" points="149,135 139,131 116,136 102,143 114,146 134,145 145,141 149,135"/>
<text text-anchor="middle" x="129" y="141" style="font-family:Helvetica-Outline;font-size:4.61;">UniPlus+</text>
</g>
<!-- 7th Edition&#45;&gt;UniPlus+ -->
<g id="edge32" class="edge"><title>7th Edition&#45;&gt;UniPlus+</title>
<path style="fill:none;stroke:black;" d="M119,109C121,115 124,124 126,130"/>
<polygon style="fill:black;stroke:black;" points="127,130 127,134 125,131 127,130"/>
</g>
<!-- 9th Edition -->
<g id="node18" class="node"><title>9th Edition</title>
<polygon style="fill:#cd5845;stroke:#cd5845;" points="235,300 224,297 210,300 205,307 213,312 227,312 236,307 235,300"/>
<text text-anchor="middle" x="221" y="306" style="font-family:Helvetica-Outline;font-size:4.61;">9th Edition</text>
</g>
<!-- 8th Edition&#45;&gt;9th Edition -->
<g id="edge36" class="edge"><title>8th Edition&#45;&gt;9th Edition</title>
<path style="fill:none;stroke:black;" d="M214,275C216,281 217,288 219,294"/>
<polygon style="fill:black;stroke:black;" points="220,294 220,298 218,295 220,294"/>
</g>
<!-- 3 BSD -->
<g id="node22" class="node"><title>3 BSD</title>
<polygon style="fill:lemonchiffon;stroke:lemonchiffon;" points="181,174 180,171 175,168 165,167 156,169 150,172 153,175 160,178 169,179 176,177 181,174"/>
<text text-anchor="middle" x="166" y="175" style="font-family:Helvetica-Outline;font-size:4.61;">3 BSD</text>
</g>
<!-- 32V&#45;&gt;3 BSD -->
<g id="edge46" class="edge"><title>32V&#45;&gt;3 BSD</title>
<path style="fill:none;stroke:black;" d="M175,146C173,151 171,158 169,164"/>
<polygon style="fill:black;stroke:black;" points="170,164 168,167 168,164 170,164"/>
</g>
<!-- V7M&#45;&gt;Ultrix&#45;11 -->
<g id="edge34" class="edge"><title>V7M&#45;&gt;Ultrix&#45;11</title>
<path style="fill:none;stroke:black;" d="M18,180C17,192 18,220 21,243 24,262 32,284 36,296"/>
<polygon style="fill:black;stroke:black;" points="37,296 37,299 35,297 37,296"/>
</g>
<!-- 2.8 BSD -->
<g id="node20" class="node"><title>2.8 BSD</title>
<polygon style="fill:#b0e2ff;stroke:#b0e2ff;" points="86,260 70,267 84,276 106,267 86,260"/>
<text text-anchor="middle" x="87" y="269" style="font-family:Helvetica-Outline;font-size:4.61;">2.8 BSD</text>
</g>
<!-- 2 BSD&#45;&gt;2.8 BSD -->
<g id="edge40" class="edge"><title>2 BSD&#45;&gt;2.8 BSD</title>
<path style="fill:none;stroke:black;" d="M43,237C52,243 67,254 77,260"/>
<polygon style="fill:black;stroke:black;" points="78,259 79,262 76,261 78,259"/>
</g>
<!-- 2.8 BSD&#45;&gt;Ultrix&#45;11 -->
<g id="edge42" class="edge"><title>2.8 BSD&#45;&gt;Ultrix&#45;11</title>
<path style="fill:none;stroke:black;" d="M79,273C71,279 58,290 49,297"/>
<polygon style="fill:black;stroke:black;" points="49,298 46,299 48,297 49,298"/>
</g>
<!-- 2.9 BSD -->
<g id="node21" class="node"><title>2.9 BSD</title>
<polygon style="fill:#76eec5;stroke:#76eec5;" points="78,299 68,310 90,317 110,293 78,299"/>
<text text-anchor="middle" x="87" y="306" style="font-family:Helvetica-Outline;font-size:4.61;">2.9 BSD</text>
</g>
<!-- 2.8 BSD&#45;&gt;2.9 BSD -->
<g id="edge44" class="edge"><title>2.8 BSD&#45;&gt;2.9 BSD</title>
<path style="fill:none;stroke:black;" d="M87,275C87,280 87,288 87,294"/>
<polygon style="fill:black;stroke:black;" points="88,294 87,297 86,294 88,294"/>
</g>
<!-- 4 BSD -->
<g id="node23" class="node"><title>4 BSD</title>
<polygon style="fill:#ff7e00;stroke:#ff7e00;" points="164,197 148,196 140,203 145,210 172,204 164,197"/>
<text text-anchor="middle" x="154" y="204" style="font-family:Helvetica-Outline;font-size:4.61;">4 BSD</text>
</g>
<!-- 3 BSD&#45;&gt;4 BSD -->
<g id="edge48" class="edge"><title>3 BSD&#45;&gt;4 BSD</title>
<path style="fill:none;stroke:black;" d="M164,178C162,183 159,189 158,193"/>
<polygon style="fill:black;stroke:black;" points="159,194 156,196 157,193 159,194"/>
</g>
<!-- 4.1 BSD -->
<g id="node24" class="node"><title>4.1 BSD</title>
<polygon style="fill:#fffee0;stroke:#fffee0;" points="156,223 135,231 142,242 169,233 156,223"/>
<text text-anchor="middle" x="151" y="234" style="font-family:Helvetica-Outline;font-size:4.61;">4.1 BSD</text>
</g>
<!-- 4 BSD&#45;&gt;4.1 BSD -->
<g id="edge50" class="edge"><title>4 BSD&#45;&gt;4.1 BSD</title>
<path style="fill:none;stroke:black;" d="M153,208C153,212 152,217 152,221"/>
<polygon style="fill:black;stroke:black;" points="153,221 151,225 151,221 153,221"/>
</g>
<!-- 4.1 BSD&#45;&gt;8th Edition -->
<g id="edge56" class="edge"><title>4.1 BSD&#45;&gt;8th Edition</title>
<path style="fill:none;stroke:black;" d="M159,237C169,243 188,253 201,261"/>
<polygon style="fill:black;stroke:black;" points="202,260 204,262 201,262 202,260"/>
</g>
<!-- 4.1 BSD&#45;&gt;2.8 BSD -->
<g id="edge54" class="edge"><title>4.1 BSD&#45;&gt;2.8 BSD</title>
<path style="fill:none;stroke:black;" d="M139,238C128,245 110,255 98,261"/>
<polygon style="fill:black;stroke:black;" points="98,262 95,263 97,260 98,262"/>
</g>
<!-- 4.2 BSD -->
<g id="node25" class="node"><title>4.2 BSD</title>
<polygon style="fill:#67228b;stroke:#67228b;" points="173,260 166,258 152,260 139,264 132,268 130,272 132,276 141,277 156,272 169,266 173,260"/>
<text text-anchor="middle" x="149" y="269" style="font-family:Helvetica-Outline;font-size:4.61;">4.2 BSD</text>
</g>
<!-- 4.1 BSD&#45;&gt;4.2 BSD -->
<g id="edge52" class="edge"><title>4.1 BSD&#45;&gt;4.2 BSD</title>
<path style="fill:none;stroke:black;" d="M150,240C150,245 150,252 150,258"/>
<polygon style="fill:black;stroke:black;" points="151,258 149,261 149,258 151,258"/>
</g>
<!-- 4.3 BSD -->
<g id="node26" class="node"><title>4.3 BSD</title>
<polygon style="fill:#eee7bf;stroke:#eee7bf;" points="196,301 190,297 182,296 175,299 172,303 174,309 180,313 188,314 195,311 199,306 196,301"/>
<text text-anchor="middle" x="185" y="306" style="font-family:Helvetica-Outline;font-size:4.61;">4.3 BSD</text>
</g>
<!-- 4.2 BSD&#45;&gt;4.3 BSD -->
<g id="edge58" class="edge"><title>4.2 BSD&#45;&gt;4.3 BSD</title>
<path style="fill:none;stroke:black;" d="M155,273C160,279 169,288 175,295"/>
<polygon style="fill:black;stroke:black;" points="176,294 178,297 174,296 176,294"/>
</g>
<!-- Ultrix&#45;32 -->
<g id="node27" class="node"><title>Ultrix&#45;32</title>
<polygon style="fill:#cd991d;stroke:#cd991d;" points="149,298 127,301 122,314 166,306 149,298"/>
<text text-anchor="middle" x="141" y="306" style="font-family:Helvetica-Outline;font-size:4.61;">Ultrix&#45;32</text>
</g>
<!-- 4.2 BSD&#45;&gt;Ultrix&#45;32 -->
<g id="edge60" class="edge"><title>4.2 BSD&#45;&gt;Ultrix&#45;32</title>
<path style="fill:none;stroke:black;" d="M147,275C146,281 144,289 143,295"/>
<polygon style="fill:black;stroke:black;" points="144,296 142,299 142,295 144,296"/>
</g>
<!-- PWB 1.2&#45;&gt;PWB 2.0 -->
<g id="edge66" class="edge"><title>PWB 1.2&#45;&gt;PWB 2.0</title>
<path style="fill:none;stroke:black;" d="M274,78C269,83 263,88 258,93"/>
<polygon style="fill:black;stroke:black;" points="259,94 255,95 257,92 259,94"/>
</g>
<!-- CB Unix 1 -->
<g id="node30" class="node"><title>CB Unix 1</title>
<polygon style="fill:firebrick;stroke:firebrick;" points="380,100 376,96 366,95 355,96 348,101 344,107 348,111 360,110 374,105 380,100"/>
<text text-anchor="middle" x="361" y="104" style="font-family:Helvetica-Outline;font-size:4.61;">CB Unix 1</text>
</g>
<!-- USG 1.0&#45;&gt;CB Unix 1 -->
<g id="edge68" class="edge"><title>USG 1.0&#45;&gt;CB Unix 1</title>
<path style="fill:none;stroke:black;" d="M338,73C342,78 349,87 354,93"/>
<polygon style="fill:black;stroke:black;" points="355,93 356,96 353,94 355,93"/>
</g>
<!-- USG 2.0 -->
<g id="node31" class="node"><title>USG 2.0</title>
<polygon style="fill:#478b00;stroke:#478b00;" points="296,90 280,114 311,108 320,96 296,90"/>
<text text-anchor="middle" x="302" y="104" style="font-family:Helvetica-Outline;font-size:4.61;">USG 2.0</text>
</g>
<!-- USG 1.0&#45;&gt;USG 2.0 -->
<g id="edge70" class="edge"><title>USG 1.0&#45;&gt;USG 2.0</title>
<path style="fill:none;stroke:black;" d="M328,73C323,78 317,85 312,91"/>
<polygon style="fill:black;stroke:black;" points="313,92 310,93 311,90 313,92"/>
</g>
<!-- CB Unix 2 -->
<g id="node32" class="node"><title>CB Unix 2</title>
<polygon style="fill:greenyellow;stroke:greenyellow;" points="389,140 392,136 387,132 375,133 359,137 352,141 357,143 370,145 379,145 385,143 389,140"/>
<text text-anchor="middle" x="375" y="141" style="font-family:Helvetica-Outline;font-size:4.61;">CB Unix 2</text>
</g>
<!-- CB Unix 1&#45;&gt;CB Unix 2 -->
<g id="edge72" class="edge"><title>CB Unix 1&#45;&gt;CB Unix 2</title>
<path style="fill:none;stroke:black;" d="M364,109C366,115 369,123 371,130"/>
<polygon style="fill:black;stroke:black;" points="372,130 372,133 370,130 372,130"/>
</g>
<!-- USG 3.0 -->
<g id="node36" class="node"><title>USG 3.0</title>
<polygon style="fill:#eed5b7;stroke:#eed5b7;" points="267,132 251,138 255,152 294,136 267,132"/>
<text text-anchor="middle" x="267" y="141" style="font-family:Helvetica-Outline;font-size:4.61;">USG 3.0</text>
</g>
<!-- USG 2.0&#45;&gt;USG 3.0 -->
<g id="edge80" class="edge"><title>USG 2.0&#45;&gt;USG 3.0</title>
<path style="fill:none;stroke:black;" d="M293,112C287,117 281,124 276,130"/>
<polygon style="fill:black;stroke:black;" points="276,131 273,132 275,129 276,131"/>
</g>
<!-- CB Unix 3 -->
<g id="node33" class="node"><title>CB Unix 3</title>
<polygon style="fill:#8b7c6b;stroke:#8b7c6b;" points="362,173 368,169 365,165 350,166 332,170 321,174 325,177 337,179 348,179 355,177 362,173"/>
<text text-anchor="middle" x="347" y="175" style="font-family:Helvetica-Outline;font-size:4.61;">CB Unix 3</text>
</g>
<!-- CB Unix 2&#45;&gt;CB Unix 3 -->
<g id="edge74" class="edge"><title>CB Unix 2&#45;&gt;CB Unix 3</title>
<path style="fill:none;stroke:black;" d="M370,145C366,150 360,157 355,163"/>
<polygon style="fill:black;stroke:black;" points="356,164 353,165 354,162 356,164"/>
</g>
<!-- Unix/TS++ -->
<g id="node34" class="node"><title>Unix/TS++</title>
<polygon style="fill:#eed4d2;stroke:#eed4d2;" points="335,200 325,195 297,198 292,204 308,208 323,207 335,200"/>
<text text-anchor="middle" x="313" y="204" style="font-family:Helvetica-Outline;font-size:4.61;">Unix/TS++</text>
</g>
<!-- CB Unix 3&#45;&gt;Unix/TS++ -->
<g id="edge76" class="edge"><title>CB Unix 3&#45;&gt;Unix/TS++</title>
<path style="fill:none;stroke:black;" d="M340,179C335,183 329,189 323,193"/>
<polygon style="fill:black;stroke:black;" points="324,194 321,195 322,192 324,194"/>
</g>
<!-- PDP&#45;11 Sys V -->
<g id="node35" class="node"><title>PDP&#45;11 Sys V</title>
<polygon style="fill:#98f6ff;stroke:#98f6ff;" points="384,201 377,197 364,196 352,197 345,201 345,205 352,209 366,208 379,205 384,201"/>
<text text-anchor="middle" x="363" y="204" style="font-family:Helvetica-Outline;font-size:4.61;">PDP&#45;11 Sys V</text>
</g>
<!-- CB Unix 3&#45;&gt;PDP&#45;11 Sys V -->
<g id="edge78" class="edge"><title>CB Unix 3&#45;&gt;PDP&#45;11 Sys V</title>
<path style="fill:none;stroke:black;" d="M350,179C352,183 355,189 358,193"/>
<polygon style="fill:black;stroke:black;" points="359,193 359,196 357,194 359,193"/>
</g>
<!-- CB Unix 3&#45;&gt;TS 4.0 -->
<g id="edge92" class="edge"><title>CB Unix 3&#45;&gt;TS 4.0</title>
<path style="fill:none;stroke:black;" d="M326,178C312,182 294,188 288,194 282,202 281,215 281,223"/>
<polygon style="fill:black;stroke:black;" points="282,223 281,226 280,223 282,223"/>
</g>
<!-- Unix/TS++&#45;&gt;TS 4.0 -->
<g id="edge90" class="edge"><title>Unix/TS++&#45;&gt;TS 4.0</title>
<path style="fill:none;stroke:black;" d="M307,209C302,213 297,218 293,222"/>
<polygon style="fill:black;stroke:black;" points="294,223 290,224 292,221 294,223"/>
</g>
<!-- USG 3.0&#45;&gt;Unix/TS 3.0 -->
<g id="edge82" class="edge"><title>USG 3.0&#45;&gt;Unix/TS 3.0</title>
<path style="fill:none;stroke:black;" d="M267,147C267,152 267,158 267,163"/>
<polygon style="fill:black;stroke:black;" points="268,163 267,166 266,163 268,163"/>
</g>
<!-- Unix/TS 1.0 -->
<g id="node37" class="node"><title>Unix/TS 1.0</title>
<polygon style="fill:orangered;stroke:orangered;" points="312,131 301,145 336,145 344,137 312,131"/>
<text text-anchor="middle" x="323" y="141" style="font-family:Helvetica-Outline;font-size:4.61;">Unix/TS 1.0</text>
</g>
<!-- Unix/TS 1.0&#45;&gt;Unix/TS 3.0 -->
<g id="edge86" class="edge"><title>Unix/TS 1.0&#45;&gt;Unix/TS 3.0</title>
<path style="fill:none;stroke:black;" d="M314,145C306,150 294,157 284,163"/>
<polygon style="fill:black;stroke:black;" points="284,164 281,164 283,162 284,164"/>
</g>
<!-- System V.0 -->
<g id="node39" class="node"><title>System V.0</title>
<polygon style="fill:#ff7e00;stroke:#ff7e00;" points="304,267 298,263 284,261 269,263 260,266 261,270 272,272 288,273 300,271 304,267"/>
<text text-anchor="middle" x="282" y="269" style="font-family:Helvetica-Outline;font-size:4.61;">System V.0</text>
</g>
<!-- TS 4.0&#45;&gt;System V.0 -->
<g id="edge94" class="edge"><title>TS 4.0&#45;&gt;System V.0</title>
<path style="fill:none;stroke:black;" d="M282,239C282,245 282,252 282,258"/>
<polygon style="fill:black;stroke:black;" points="283,258 282,261 281,258 283,258"/>
</g>
<!-- System V.2 -->
<g id="node40" class="node"><title>System V.2</title>
<polygon style="fill:#6e8b3d;stroke:#6e8b3d;" points="308,299 289,297 252,305 256,311 285,310 301,307 308,299"/>
<text text-anchor="middle" x="282" y="306" style="font-family:Helvetica-Outline;font-size:4.61;">System V.2</text>
</g>
<!-- System V.0&#45;&gt;System V.2 -->
<g id="edge96" class="edge"><title>System V.0&#45;&gt;System V.2</title>
<path style="fill:none;stroke:black;" d="M282,273C282,279 282,288 282,295"/>
<polygon style="fill:black;stroke:black;" points="283,295 282,298 281,295 283,295"/>
</g>
<!-- System V.3 -->
<g id="node41" class="node"><title>System V.3</title>
<polygon style="fill:#cae1ff;stroke:#cae1ff;" points="298,331 280,332 267,335 265,340 272,346 289,344 303,336 298,331"/>
<text text-anchor="middle" x="282" y="339" style="font-family:Helvetica-Outline;font-size:4.61;">System V.3</text>
</g>
<!-- System V.2&#45;&gt;System V.3 -->
<g id="edge98" class="edge"><title>System V.2&#45;&gt;System V.3</title>
<path style="fill:none;stroke:black;" d="M282,311C282,316 282,323 282,328"/>
<polygon style="fill:black;stroke:black;" points="283,328 282,332 281,328 283,328"/>
</g>
</g>
</svg>
