<?xml version="1.0" encoding="UTF-8" standalone="no"?>
<!DOCTYPE svg PUBLIC "-//W3C//DTD SVG 1.0//EN"
 "http://www.w3.org/TR/2001/REC-SVG-20010904/DTD/svg10.dtd" [
 <!ATTLIST svg xmlns:xlink CDATA #FIXED "http://www.w3.org/1999/xlink">
]>
<!-- Generated by dot version 2.7.20051025.0440 (Tue Oct 25 07:40:11 UTC 2005)
     For user: (ellson) John Ellson -->
<!-- Title: g Pages: 1 -->
<svg width="810pt" height="623pt"
 viewBox = "0 0 810 623"
 xmlns="http://www.w3.org/2000/svg" xmlns:xlink="http://www.w3.org/1999/xlink">
<g id="graph0" class="graph" style="font-family:Times-Roman;font-size:14.00;">
<title>g</title>
<!-- node0 -->
<g id="node1" class="node"><title>node0</title>
<polygon style="fill:none;stroke:black;" points="5,169 75,169 75,115 5,115 5,169"/>
<text text-anchor="middle" x="40" y="134" style="font-size:16.00;">0x10ba8</text>
<polyline style="fill:none;stroke:black;" points="5,142 75,142 "/>
<text text-anchor="middle" x="40" y="161" style="font-size:16.00;"> </text>
</g>
<!-- node1 -->
<g id="node2" class="node"><title>node1</title>
<polygon style="fill:none;stroke:black;" points="111,173 201,173 201,65 111,65 111,173"/>
<text text-anchor="middle" x="156" y="84" style="font-size:16.00;">0xf7fc4380</text>
<polyline style="fill:none;stroke:black;" points="111,92 201,92 "/>
<text text-anchor="middle" x="156" y="111" style="font-size:16.00;"> </text>
<polyline style="fill:none;stroke:black;" points="111,119 201,119 "/>
<text text-anchor="middle" x="156" y="138" style="font-size:16.00;"> </text>
<polyline style="fill:none;stroke:black;" points="111,146 201,146 "/>
<text text-anchor="middle" x="156" y="165" style="font-size:16.00;">&#45;1</text>
</g>
<!-- node0&#45;&gt;node1 -->
<g id="edge2" class="edge"><title>node0&#45;&gt;node1</title>
<path style="fill:none;stroke:black;" d="M75,115C88,108 92,103 102,97"/>
<polygon style="fill:black;stroke:black;" points="101,94 111,92 104,100 101,94"/>
</g>
<!-- node2 -->
<g id="node3" class="node"><title>node2</title>
<polygon style="fill:none;stroke:black;" points="111,299 201,299 201,191 111,191 111,299"/>
<text text-anchor="middle" x="156" y="210" style="font-size:16.00;">0xf7fc44b8</text>
<polyline style="fill:none;stroke:black;" points="111,218 201,218 "/>
<text text-anchor="middle" x="156" y="237" style="font-size:16.00;"> </text>
<polyline style="fill:none;stroke:black;" points="111,245 201,245 "/>
<text text-anchor="middle" x="156" y="264" style="font-size:16.00;"> </text>
<polyline style="fill:none;stroke:black;" points="111,272 201,272 "/>
<text text-anchor="middle" x="156" y="291" style="font-size:16.00;">2</text>
</g>
<!-- node0&#45;&gt;node2 -->
<g id="edge4" class="edge"><title>node0&#45;&gt;node2</title>
<path style="fill:none;stroke:black;" d="M75,169C88,175 92,180 102,186"/>
<polygon style="fill:black;stroke:black;" points="104,183 111,191 101,189 104,183"/>
</g>
<!-- node3 -->
<g id="node4" class="node"><title>node3</title>
<polygon style="fill:none;stroke:black;" points="615,151 805,151 805,70 615,70 615,151"/>
<text text-anchor="middle" x="710" y="89" style="font-size:16.00;">3.43322790286038071e&#45;06</text>
<polyline style="fill:none;stroke:black;" points="615,97 805,97 "/>
<text text-anchor="middle" x="710" y="116" style="font-size:16.00;">44.79998779296875</text>
<polyline style="fill:none;stroke:black;" points="615,124 805,124 "/>
<text text-anchor="middle" x="710" y="143" style="font-size:16.00;">0</text>
</g>
<!-- node1&#45;&gt;node3 -->
<g id="edge6" class="edge"><title>node1&#45;&gt;node3</title>
<path style="fill:none;stroke:black;" d="M201,65C216,61 230,57 237,56 306,47 487,62 605,73"/>
<polygon style="fill:black;stroke:black;" points="605,70 615,74 605,76 605,70"/>
</g>
<!-- node4 -->
<g id="node5" class="node"><title>node4</title>
<polygon style="fill:none;stroke:black;" points="237,200 327,200 327,92 237,92 237,200"/>
<text text-anchor="middle" x="282" y="111" style="font-size:16.00;">0xf7fc4380</text>
<polyline style="fill:none;stroke:black;" points="237,119 327,119 "/>
<text text-anchor="middle" x="282" y="138" style="font-size:16.00;"> </text>
<polyline style="fill:none;stroke:black;" points="237,146 327,146 "/>
<text text-anchor="middle" x="282" y="165" style="font-size:16.00;"> </text>
<polyline style="fill:none;stroke:black;" points="237,173 327,173 "/>
<text text-anchor="middle" x="282" y="192" style="font-size:16.00;">2</text>
</g>
<!-- node1&#45;&gt;node4 -->
<g id="edge8" class="edge"><title>node1&#45;&gt;node4</title>
<path style="fill:none;stroke:black;" d="M201,106C210,106 218,106 227,106"/>
<polygon style="fill:black;stroke:black;" points="227,102 237,106 227,109 227,102"/>
</g>
<!-- node5 -->
<g id="node6" class="node"><title>node5</title>
<polygon style="fill:none;stroke:black;" points="255,545 309,545 309,437 255,437 255,545"/>
<text text-anchor="middle" x="282" y="456" style="font-size:16.00;">(nil)</text>
<polyline style="fill:none;stroke:black;" points="255,464 309,464 "/>
<text text-anchor="middle" x="282" y="483" style="font-size:16.00;"> </text>
<polyline style="fill:none;stroke:black;" points="255,491 309,491 "/>
<text text-anchor="middle" x="282" y="510" style="font-size:16.00;"> </text>
<polyline style="fill:none;stroke:black;" points="255,518 309,518 "/>
<text text-anchor="middle" x="282" y="537" style="font-size:16.00;">&#45;1</text>
</g>
<!-- node1&#45;&gt;node5 -->
<g id="edge10" class="edge"><title>node1&#45;&gt;node5</title>
<path style="fill:none;stroke:black;" d="M201,146C281,241 176,315 237,423 239,427 243,431 247,434"/>
<polygon style="fill:black;stroke:black;" points="249,431 255,440 245,437 249,431"/>
</g>
<!-- node4&#45;&gt;node3 -->
<g id="edge12" class="edge"><title>node4&#45;&gt;node3</title>
<path style="fill:none;stroke:black;" d="M327,104C393,100 516,94 605,90"/>
<polygon style="fill:black;stroke:black;" points="605,87 615,89 605,93 605,87"/>
</g>
<!-- node6 -->
<g id="node7" class="node"><title>node6</title>
<polygon style="fill:none;stroke:black;" points="363,227 453,227 453,119 363,119 363,227"/>
<text text-anchor="middle" x="408" y="138" style="font-size:16.00;">0xf7fc4380</text>
<polyline style="fill:none;stroke:black;" points="363,146 453,146 "/>
<text text-anchor="middle" x="408" y="165" style="font-size:16.00;"> </text>
<polyline style="fill:none;stroke:black;" points="363,173 453,173 "/>
<text text-anchor="middle" x="408" y="192" style="font-size:16.00;"> </text>
<polyline style="fill:none;stroke:black;" points="363,200 453,200 "/>
<text text-anchor="middle" x="408" y="219" style="font-size:16.00;">1</text>
</g>
<!-- node4&#45;&gt;node6 -->
<g id="edge14" class="edge"><title>node4&#45;&gt;node6</title>
<path style="fill:none;stroke:black;" d="M327,133C336,133 344,133 353,133"/>
<polygon style="fill:black;stroke:black;" points="353,129 363,133 353,136 353,129"/>
</g>
<!-- node10 -->
<g id="node11" class="node"><title>node10</title>
<polygon style="fill:none;stroke:black;" points="381,381 435,381 435,273 381,273 381,381"/>
<text text-anchor="middle" x="408" y="292" style="font-size:16.00;">(nil)</text>
<polyline style="fill:none;stroke:black;" points="381,300 435,300 "/>
<text text-anchor="middle" x="408" y="319" style="font-size:16.00;"> </text>
<polyline style="fill:none;stroke:black;" points="381,327 435,327 "/>
<text text-anchor="middle" x="408" y="346" style="font-size:16.00;"> </text>
<polyline style="fill:none;stroke:black;" points="381,354 435,354 "/>
<text text-anchor="middle" x="408" y="373" style="font-size:16.00;">&#45;1</text>
</g>
<!-- node4&#45;&gt;node10 -->
<g id="edge16" class="edge"><title>node4&#45;&gt;node10</title>
<path style="fill:none;stroke:black;" d="M327,173C363,203 348,233 374,265"/>
<polygon style="fill:black;stroke:black;" points="377,263 381,273 372,268 377,263"/>
</g>
<!-- node6&#45;&gt;node3 -->
<g id="edge18" class="edge"><title>node6&#45;&gt;node3</title>
<path style="fill:none;stroke:black;" d="M453,125C493,117 552,106 605,98"/>
<polygon style="fill:black;stroke:black;" points="605,95 615,97 605,101 605,95"/>
</g>
<!-- node7 -->
<g id="node8" class="node"><title>node7</title>
<polygon style="fill:none;stroke:black;" points="489,240 579,240 579,132 489,132 489,240"/>
<text text-anchor="middle" x="534" y="151" style="font-size:16.00;">0xf7fc4380</text>
<polyline style="fill:none;stroke:black;" points="489,159 579,159 "/>
<text text-anchor="middle" x="534" y="178" style="font-size:16.00;"> </text>
<polyline style="fill:none;stroke:black;" points="489,186 579,186 "/>
<text text-anchor="middle" x="534" y="205" style="font-size:16.00;"> </text>
<polyline style="fill:none;stroke:black;" points="489,213 579,213 "/>
<text text-anchor="middle" x="534" y="232" style="font-size:16.00;">2</text>
</g>
<!-- node6&#45;&gt;node7 -->
<g id="edge20" class="edge"><title>node6&#45;&gt;node7</title>
<path style="fill:none;stroke:black;" d="M453,155C462,154 470,153 479,152"/>
<polygon style="fill:black;stroke:black;" points="479,149 489,151 479,155 479,149"/>
</g>
<!-- node9 -->
<g id="node10" class="node"><title>node9</title>
<polygon style="fill:none;stroke:black;" points="507,366 561,366 561,258 507,258 507,366"/>
<text text-anchor="middle" x="534" y="277" style="font-size:16.00;">(nil)</text>
<polyline style="fill:none;stroke:black;" points="507,285 561,285 "/>
<text text-anchor="middle" x="534" y="304" style="font-size:16.00;"> </text>
<polyline style="fill:none;stroke:black;" points="507,312 561,312 "/>
<text text-anchor="middle" x="534" y="331" style="font-size:16.00;"> </text>
<polyline style="fill:none;stroke:black;" points="507,339 561,339 "/>
<text text-anchor="middle" x="534" y="358" style="font-size:16.00;">&#45;1</text>
</g>
<!-- node6&#45;&gt;node9 -->
<g id="edge22" class="edge"><title>node6&#45;&gt;node9</title>
<path style="fill:none;stroke:black;" d="M453,200C476,215 469,231 489,249 492,251 495,253 498,255"/>
<polygon style="fill:black;stroke:black;" points="500,252 507,260 497,258 500,252"/>
</g>
<!-- node7&#45;&gt;node1 -->
<g id="edge26" class="edge"><title>node7&#45;&gt;node1</title>
<path style="fill:none;stroke:black;" d="M488,159C467,143 476,124 453,110 380,63 275,64 211,71"/>
<polygon style="fill:black;stroke:black;" points="211,74 201,72 211,68 211,74"/>
</g>
<!-- node7&#45;&gt;node3 -->
<g id="edge24" class="edge"><title>node7&#45;&gt;node3</title>
<path style="fill:none;stroke:black;" d="M579,132C595,122 596,111 606,102"/>
<polygon style="fill:black;stroke:black;" points="605,99 615,97 608,105 605,99"/>
</g>
<!-- node8 -->
<g id="node9" class="node"><title>node8</title>
<polygon style="fill:none;stroke:black;" points="683,293 737,293 737,185 683,185 683,293"/>
<text text-anchor="middle" x="710" y="204" style="font-size:16.00;">(nil)</text>
<polyline style="fill:none;stroke:black;" points="683,212 737,212 "/>
<text text-anchor="middle" x="710" y="231" style="font-size:16.00;"> </text>
<polyline style="fill:none;stroke:black;" points="683,239 737,239 "/>
<text text-anchor="middle" x="710" y="258" style="font-size:16.00;"> </text>
<polyline style="fill:none;stroke:black;" points="683,266 737,266 "/>
<text text-anchor="middle" x="710" y="285" style="font-size:16.00;">&#45;1</text>
</g>
<!-- node7&#45;&gt;node8 -->
<g id="edge28" class="edge"><title>node7&#45;&gt;node8</title>
<path style="fill:none;stroke:black;" d="M579,199C608,199 645,199 673,199"/>
<polygon style="fill:black;stroke:black;" points="673,195 683,199 673,202 673,195"/>
</g>
<!-- node11 -->
<g id="node12" class="node"><title>node11</title>
<polygon style="fill:none;stroke:black;" points="507,492 561,492 561,384 507,384 507,492"/>
<text text-anchor="middle" x="534" y="403" style="font-size:16.00;">(nil)</text>
<polyline style="fill:none;stroke:black;" points="507,411 561,411 "/>
<text text-anchor="middle" x="534" y="430" style="font-size:16.00;"> </text>
<polyline style="fill:none;stroke:black;" points="507,438 561,438 "/>
<text text-anchor="middle" x="534" y="457" style="font-size:16.00;"> </text>
<polyline style="fill:none;stroke:black;" points="507,465 561,465 "/>
<text text-anchor="middle" x="534" y="484" style="font-size:16.00;">&#45;1</text>
</g>
<!-- node10&#45;&gt;node11 -->
<g id="edge30" class="edge"><title>node10&#45;&gt;node11</title>
<path style="fill:none;stroke:black;" d="M435,327C462,344 463,356 489,375 492,377 495,379 498,380"/>
<polygon style="fill:black;stroke:black;" points="500,377 507,385 497,383 500,377"/>
</g>
<!-- node12 -->
<g id="node13" class="node"><title>node12</title>
<polygon style="fill:none;stroke:black;" points="490,618 579,618 579,510 490,510 490,618"/>
<text text-anchor="middle" x="534" y="529" style="font-size:16.00;">0xf7fc43e0</text>
<polyline style="fill:none;stroke:black;" points="490,537 579,537 "/>
<text text-anchor="middle" x="534" y="556" style="font-size:16.00;"> </text>
<polyline style="fill:none;stroke:black;" points="490,564 579,564 "/>
<text text-anchor="middle" x="534" y="583" style="font-size:16.00;"> </text>
<polyline style="fill:none;stroke:black;" points="490,591 579,591 "/>
<text text-anchor="middle" x="534" y="610" style="font-size:16.00;">1</text>
</g>
<!-- node10&#45;&gt;node12 -->
<g id="edge32" class="edge"><title>node10&#45;&gt;node12</title>
<path style="fill:none;stroke:black;" d="M435,354C482,406 442,453 483,502"/>
<polygon style="fill:black;stroke:black;" points="486,500 490,510 481,505 486,500"/>
</g>
<!-- node11&#45;&gt;node1 -->
<g id="edge34" class="edge"><title>node11&#45;&gt;node1</title>
<path style="fill:none;stroke:black;" d="M507,447C471,440 407,423 363,390 286,330 280,297 237,209 216,163 237,134 208,99"/>
<polygon style="fill:black;stroke:black;" points="206,102 201,92 211,97 206,102"/>
</g>
</g>
</svg>
