<?xml version="1.0" encoding="UTF-8" standalone="no"?>
<!DOCTYPE svg PUBLIC "-//W3C//DTD SVG 1.0//EN"
 "http://www.w3.org/TR/2001/REC-SVG-20010904/DTD/svg10.dtd" [
 <!ATTLIST svg xmlns:xlink CDATA #FIXED "http://www.w3.org/1999/xlink">
]>
<!-- Generated by dot version 2.7.20051025.0440 (Tue Oct 25 07:40:11 UTC 2005)
     For user: (ellson) John Ellson -->
<!-- Title: prof Pages: 1 -->
<svg width="434pt" height="290pt"
 viewBox = "0 0 434 290"
 xmlns="http://www.w3.org/2000/svg" xmlns:xlink="http://www.w3.org/1999/xlink">
<g id="graph0" class="graph" style="font-family:Times-Roman;font-size:14.00;">
<title>prof</title>
<!-- start -->
<g id="node1" class="node"><title>start</title>
<ellipse style="fill:lightgrey;stroke:black;" cx="252" cy="10" rx="6" ry="4"/>
<text text-anchor="middle" x="252" y="11" style="font-size:3.19;">start</text>
</g>
<!-- main -->
<g id="node3" class="node"><title>main</title>
<ellipse style="fill:#ccd1ff;stroke:#ccd1ff;" cx="215" cy="77" rx="6" ry="4"/>
<text text-anchor="middle" x="215" y="78" style="font-size:3.19;">main</text>
</g>
<!-- start&#45;&gt;main -->
<g id="edge2" class="edge"><title>start&#45;&gt;main</title>
<path style="fill:none;stroke:#fe0300;" d="M250,14C244,25 225,58 218,71"/>
<polygon style="fill:#fe0300;stroke:#fe0300;" points="219,72 217,73 217,71 219,72"/>
</g>
<!-- on_exit -->
<g id="node5" class="node"><title>on_exit</title>
<ellipse style="fill:#ccd1ff;stroke:#ccd1ff;" cx="322" cy="43" rx="7" ry="4"/>
<text text-anchor="middle" x="322" y="45" style="font-size:3.19;">on_exit</text>
</g>
<!-- start&#45;&gt;on_exit -->
<g id="edge4" class="edge"><title>start&#45;&gt;on_exit</title>
<path style="fill:none;stroke:#3542b2;" d="M257,12C269,18 300,33 315,40"/>
<polygon style="fill:#3542b2;stroke:#3542b2;" points="315,39 317,41 314,40 315,39"/>
</g>
<!-- sort -->
<g id="node7" class="node"><title>sort</title>
<ellipse style="fill:#80ffb8;stroke:#80ffb8;" cx="75" cy="111" rx="6" ry="4"/>
<text text-anchor="middle" x="75" y="112" style="font-size:3.19;">sort</text>
</g>
<!-- main&#45;&gt;sort -->
<g id="edge6" class="edge"><title>main&#45;&gt;sort</title>
<path style="fill:none;stroke:#22d532;" d="M209,78C190,81 131,92 84,107 83,107 83,108 82,108"/>
<polygon style="fill:#22d532;stroke:#22d532;" points="83,109 80,109 82,107 83,109"/>
</g>
<!-- merge -->
<g id="node9" class="node"><title>merge</title>
<ellipse style="fill:#bdd6ff;stroke:#bdd6ff;" cx="101" cy="111" rx="6" ry="4"/>
<text text-anchor="middle" x="101" y="112" style="font-size:3.19;">merge</text>
</g>
<!-- main&#45;&gt;merge -->
<g id="edge8" class="edge"><title>main&#45;&gt;merge</title>
<path style="fill:none;stroke:#2eb4c2;" d="M209,79C190,84 131,102 109,109"/>
<polygon style="fill:#2eb4c2;stroke:#2eb4c2;" points="109,109 107,109 109,108 109,109"/>
</g>
<!-- term -->
<g id="node11" class="node"><title>term</title>
<ellipse style="fill:#ccd1ff;stroke:#ccd1ff;" cx="185" cy="111" rx="6" ry="4"/>
<text text-anchor="middle" x="185" y="112" style="font-size:3.19;">term</text>
</g>
<!-- main&#45;&gt;term -->
<g id="edge10" class="edge"><title>main&#45;&gt;term</title>
<path style="fill:none;stroke:#3544b3;" d="M212,81C206,87 196,99 190,106"/>
<polygon style="fill:#3544b3;stroke:#3544b3;" points="190,106 188,108 189,105 190,106"/>
</g>
<!-- signal -->
<g id="node13" class="node"><title>signal</title>
<ellipse style="fill:#cad1ff;stroke:#cad1ff;" cx="252" cy="145" rx="6" ry="4"/>
<text text-anchor="middle" x="252" y="146" style="font-size:3.19;">signal</text>
</g>
<!-- main&#45;&gt;signal -->
<g id="edge12" class="edge"><title>main&#45;&gt;signal</title>
<path style="fill:none;stroke:#3542b2;" d="M221,78C233,81 262,88 274,107 281,119 267,133 258,140"/>
<polygon style="fill:#3542b2;stroke:#3542b2;" points="259,141 257,142 258,140 259,141"/>
</g>
<!-- sbrk -->
<g id="node15" class="node"><title>sbrk</title>
<ellipse style="fill:#cad1ff;stroke:#cad1ff;" cx="357" cy="247" rx="6" ry="4"/>
<text text-anchor="middle" x="357" y="248" style="font-size:3.19;">sbrk</text>
</g>
<!-- main&#45;&gt;sbrk -->
<g id="edge14" class="edge"><title>main&#45;&gt;sbrk</title>
<path style="fill:none;stroke:#3542b2;" d="M221,78C244,80 325,89 342,107 359,127 358,216 357,240"/>
<polygon style="fill:#3542b2;stroke:#3542b2;" points="358,240 357,243 356,240 358,240"/>
</g>
<!-- unlink -->
<g id="node17" class="node"><title>unlink</title>
<ellipse style="fill:#c5d2ff;stroke:#c5d2ff;" cx="183" cy="145" rx="7" ry="4"/>
<text text-anchor="middle" x="183" y="146" style="font-size:3.19;">unlink</text>
</g>
<!-- main&#45;&gt;unlink -->
<g id="edge16" class="edge"><title>main&#45;&gt;unlink</title>
<path style="fill:none;stroke:#3542b2;" d="M209,78C197,81 171,89 160,107 153,119 168,133 176,140"/>
<polygon style="fill:#3542b2;stroke:#3542b2;" points="177,140 178,142 176,141 177,140"/>
</g>
<!-- newfile -->
<g id="node19" class="node"><title>newfile</title>
<ellipse style="fill:#ccd1ff;stroke:#ccd1ff;" cx="155" cy="145" rx="7" ry="4"/>
<text text-anchor="middle" x="155" y="146" style="font-size:3.19;">newfile</text>
</g>
<!-- main&#45;&gt;newfile -->
<g id="edge18" class="edge"><title>main&#45;&gt;newfile</title>
<path style="fill:none;stroke:#3542b2;" d="M209,78C197,81 170,89 158,107 152,117 153,131 154,139"/>
<polygon style="fill:#3542b2;stroke:#3542b2;" points="154,139 154,141 153,139 154,139"/>
</g>
<!-- fclose -->
<g id="node21" class="node"><title>fclose</title>
<ellipse style="fill:#ccd1ff;stroke:#ccd1ff;" cx="77" cy="145" rx="6" ry="4"/>
<text text-anchor="middle" x="77" y="146" style="font-size:3.19;">fclose</text>
</g>
<!-- main&#45;&gt;fclose -->
<g id="edge20" class="edge"><title>main&#45;&gt;fclose</title>
<path style="fill:none;stroke:#3542b2;" d="M209,78C186,81 110,92 92,107 83,115 79,130 78,139"/>
<polygon style="fill:#3542b2;stroke:#3542b2;" points="78,139 77,141 77,139 78,139"/>
</g>
<!-- close -->
<g id="node23" class="node"><title>close</title>
<ellipse style="fill:#ccd1ff;stroke:#ccd1ff;" cx="131" cy="179" rx="6" ry="4"/>
<text text-anchor="middle" x="131" y="180" style="font-size:3.19;">close</text>
</g>
<!-- main&#45;&gt;close -->
<g id="edge22" class="edge"><title>main&#45;&gt;close</title>
<path style="fill:none;stroke:#3542b2;" d="M209,79C197,81 169,90 154,107 145,117 136,157 133,173"/>
<polygon style="fill:#3542b2;stroke:#3542b2;" points="133,173 132,175 132,173 133,173"/>
</g>
<!-- brk -->
<g id="node25" class="node"><title>brk</title>
<ellipse style="fill:#ccd1ff;stroke:#ccd1ff;" cx="168" cy="111" rx="6" ry="4"/>
<text text-anchor="middle" x="168" y="112" style="font-size:3.19;">brk</text>
</g>
<!-- main&#45;&gt;brk -->
<g id="edge24" class="edge"><title>main&#45;&gt;brk</title>
<path style="fill:none;stroke:#3542b2;" d="M211,80C202,86 184,100 174,107"/>
<polygon style="fill:#3542b2;stroke:#3542b2;" points="175,108 173,108 174,106 175,108"/>
</g>
<!-- setbuf -->
<g id="node27" class="node"><title>setbuf</title>
<ellipse style="fill:#ccd1ff;stroke:#ccd1ff;" cx="8" cy="145" rx="6" ry="4"/>
<text text-anchor="middle" x="8" y="146" style="font-size:3.19;">setbuf</text>
</g>
<!-- main&#45;&gt;setbuf -->
<g id="edge26" class="edge"><title>main&#45;&gt;setbuf</title>
<path style="fill:none;stroke:#3542b2;" d="M209,78C188,79 119,86 67,107 46,116 24,132 14,140"/>
<polygon style="fill:#3542b2;stroke:#3542b2;" points="14,141 12,142 13,140 14,141"/>
</g>
<!-- copyproto -->
<g id="node29" class="node"><title>copyproto</title>
<ellipse style="fill:#ccd1ff;stroke:#ccd1ff;" cx="204" cy="111" rx="9" ry="4"/>
<text text-anchor="middle" x="204" y="112" style="font-size:3.19;">copyproto</text>
</g>
<!-- main&#45;&gt;copyproto -->
<g id="edge28" class="edge"><title>main&#45;&gt;copyproto</title>
<path style="fill:none;stroke:#3542b2;" d="M214,81C212,87 208,98 207,105"/>
<polygon style="fill:#3542b2;stroke:#3542b2;" points="207,105 206,107 206,105 207,105"/>
</g>
<!-- initree -->
<g id="node31" class="node"><title>initree</title>
<ellipse style="fill:#ccd1ff;stroke:#ccd1ff;" cx="225" cy="111" rx="7" ry="4"/>
<text text-anchor="middle" x="225" y="112" style="font-size:3.19;">initree</text>
</g>
<!-- main&#45;&gt;initree -->
<g id="edge30" class="edge"><title>main&#45;&gt;initree</title>
<path style="fill:none;stroke:#3542b2;" d="M216,81C218,87 221,98 223,105"/>
<polygon style="fill:#3542b2;stroke:#3542b2;" points="224,105 224,107 222,105 224,105"/>
</g>
<!-- safeoutfil -->
<g id="node33" class="node"><title>safeoutfil</title>
<ellipse style="fill:#ccd1ff;stroke:#ccd1ff;" cx="245" cy="111" rx="8" ry="4"/>
<text text-anchor="middle" x="245" y="112" style="font-size:3.19;">safeoutfil</text>
</g>
<!-- main&#45;&gt;safeoutfil -->
<g id="edge32" class="edge"><title>main&#45;&gt;safeoutfil</title>
<path style="fill:none;stroke:#3542b2;" d="M218,81C223,87 234,99 240,106"/>
<polygon style="fill:#3542b2;stroke:#3542b2;" points="241,105 242,107 240,106 241,105"/>
</g>
<!-- getpid -->
<g id="node35" class="node"><title>getpid</title>
<ellipse style="fill:#ccd1ff;stroke:#ccd1ff;" cx="265" cy="111" rx="6" ry="4"/>
<text text-anchor="middle" x="265" y="112" style="font-size:3.19;">getpid</text>
</g>
<!-- main&#45;&gt;getpid -->
<g id="edge34" class="edge"><title>main&#45;&gt;getpid</title>
<path style="fill:none;stroke:#3542b2;" d="M219,80C228,86 248,100 258,107"/>
<polygon style="fill:#3542b2;stroke:#3542b2;" points="259,106 260,108 258,107 259,106"/>
</g>
<!-- sprintf -->
<g id="node37" class="node"><title>sprintf</title>
<ellipse style="fill:#ccd1ff;stroke:#ccd1ff;" cx="308" cy="111" rx="7" ry="4"/>
<text text-anchor="middle" x="308" y="112" style="font-size:3.19;">sprintf</text>
</g>
<!-- main&#45;&gt;sprintf -->
<g id="edge36" class="edge"><title>main&#45;&gt;sprintf</title>
<path style="fill:none;stroke:#3542b2;" d="M220,79C234,84 270,96 299,107 299,107 300,108 300,108"/>
<polygon style="fill:#3542b2;stroke:#3542b2;" points="301,107 302,109 300,109 301,107"/>
</g>
<!-- creat -->
<g id="node39" class="node"><title>creat</title>
<ellipse style="fill:#ccd1ff;stroke:#ccd1ff;" cx="291" cy="111" rx="6" ry="4"/>
<text text-anchor="middle" x="291" y="112" style="font-size:3.19;">creat</text>
</g>
<!-- main&#45;&gt;creat -->
<g id="edge38" class="edge"><title>main&#45;&gt;creat</title>
<path style="fill:none;stroke:#3542b2;" d="M220,80C233,86 268,101 283,108"/>
<polygon style="fill:#3542b2;stroke:#3542b2;" points="284,107 285,109 283,109 284,107"/>
</g>
<!-- rem -->
<g id="node41" class="node"><title>rem</title>
<ellipse style="fill:#ccd1ff;stroke:#ccd1ff;" cx="232" cy="213" rx="6" ry="4"/>
<text text-anchor="middle" x="232" y="214" style="font-size:3.19;">rem</text>
</g>
<!-- main&#45;&gt;rem -->
<g id="edge40" class="edge"><title>main&#45;&gt;rem</title>
<path style="fill:none;stroke:#3542b2;" d="M221,78C243,80 321,89 335,107 342,117 368,130 319,183 294,210 274,195 240,209 240,209 239,209 239,209"/>
<polygon style="fill:#3542b2;stroke:#3542b2;" points="239,210 237,210 239,209 239,210"/>
</g>
<!-- oldfile -->
<g id="node43" class="node"><title>oldfile</title>
<ellipse style="fill:#ccd1ff;stroke:#ccd1ff;" cx="326" cy="111" rx="7" ry="4"/>
<text text-anchor="middle" x="326" y="112" style="font-size:3.19;">oldfile</text>
</g>
<!-- main&#45;&gt;oldfile -->
<g id="edge42" class="edge"><title>main&#45;&gt;oldfile</title>
<path style="fill:none;stroke:#3542b2;" d="M220,79C236,83 281,94 317,107 317,107 318,108 319,108"/>
<polygon style="fill:#3542b2;stroke:#3542b2;" points="319,107 321,109 318,109 319,107"/>
</g>
<!-- malloc -->
<g id="node105" class="node"><title>malloc</title>
<ellipse style="fill:#ccd1ff;stroke:#ccd1ff;" cx="365" cy="77" rx="7" ry="4"/>
<text text-anchor="middle" x="365" y="78" style="font-size:3.19;">malloc</text>
</g>
<!-- on_exit&#45;&gt;malloc -->
<g id="edge142" class="edge"><title>on_exit&#45;&gt;malloc</title>
<path style="fill:none;stroke:#29d820;" d="M327,47C334,53 350,65 358,73"/>
<polygon style="fill:#29d820;stroke:#29d820;" points="359,72 360,74 358,73 359,72"/>
</g>
<!-- sort&#45;&gt;newfile -->
<g id="edge48" class="edge"><title>sort&#45;&gt;newfile</title>
<path style="fill:none;stroke:#3542b2;" d="M80,114C94,119 130,135 147,142"/>
<polygon style="fill:#3542b2;stroke:#3542b2;" points="147,141 149,142 146,142 147,141"/>
</g>
<!-- sort&#45;&gt;fclose -->
<g id="edge50" class="edge"><title>sort&#45;&gt;fclose</title>
<path style="fill:none;stroke:#3542b2;" d="M75,115C75,121 76,132 76,139"/>
<polygon style="fill:#3542b2;stroke:#3542b2;" points="77,139 76,141 76,139 77,139"/>
</g>
<!-- sort&#45;&gt;setbuf -->
<g id="edge52" class="edge"><title>sort&#45;&gt;setbuf</title>
<path style="fill:none;stroke:#3542b2;" d="M70,114C58,120 29,134 15,141"/>
<polygon style="fill:#3542b2;stroke:#3542b2;" points="15,142 13,142 15,140 15,142"/>
</g>
<!-- msort -->
<g id="node45" class="node"><title>msort</title>
<ellipse style="fill:#b9d9ff;stroke:#b9d9ff;" cx="59" cy="145" rx="6" ry="4"/>
<text text-anchor="middle" x="59" y="146" style="font-size:3.19;">msort</text>
</g>
<!-- sort&#45;&gt;msort -->
<g id="edge44" class="edge"><title>sort&#45;&gt;msort</title>
<path style="fill:none;stroke:#3459b6;" d="M73,115C70,121 65,132 62,139"/>
<polygon style="fill:#3459b6;stroke:#3459b6;" points="63,139 61,141 61,138 63,139"/>
</g>
<!-- filbuf -->
<g id="node47" class="node"><title>filbuf</title>
<ellipse style="fill:#c8d1ff;stroke:#c8d1ff;" cx="23" cy="179" rx="6" ry="4"/>
<text text-anchor="middle" x="23" y="180" style="font-size:3.19;">filbuf</text>
</g>
<!-- sort&#45;&gt;filbuf -->
<g id="edge46" class="edge"><title>sort&#45;&gt;filbuf</title>
<path style="fill:none;stroke:#3542b2;" d="M69,113C58,116 35,124 25,141 20,151 21,165 22,173"/>
<polygon style="fill:#3542b2;stroke:#3542b2;" points="22,173 22,175 21,173 22,173"/>
</g>
<!-- setfil -->
<g id="node52" class="node"><title>setfil</title>
<ellipse style="fill:#ccd1ff;stroke:#ccd1ff;" cx="168" cy="179" rx="6" ry="4"/>
<text text-anchor="middle" x="168" y="180" style="font-size:3.19;">setfil</text>
</g>
<!-- sort&#45;&gt;setfil -->
<g id="edge54" class="edge"><title>sort&#45;&gt;setfil</title>
<path style="fill:none;stroke:#3542b2;" d="M78,115C86,122 104,137 120,149 134,159 152,170 161,175"/>
<polygon style="fill:#3542b2;stroke:#3542b2;" points="161,174 163,176 160,176 161,174"/>
</g>
<!-- merge&#45;&gt;unlink -->
<g id="edge72" class="edge"><title>merge&#45;&gt;unlink</title>
<path style="fill:none;stroke:#3542b2;" d="M106,114C121,119 158,135 175,142"/>
<polygon style="fill:#3542b2;stroke:#3542b2;" points="175,141 177,143 174,143 175,141"/>
</g>
<!-- merge&#45;&gt;fclose -->
<g id="edge76" class="edge"><title>merge&#45;&gt;fclose</title>
<path style="fill:none;stroke:#3542b2;" d="M98,115C94,121 86,132 81,139"/>
<polygon style="fill:#3542b2;stroke:#3542b2;" points="81,140 79,141 80,139 81,140"/>
</g>
<!-- merge&#45;&gt;setbuf -->
<g id="edge82" class="edge"><title>merge&#45;&gt;setbuf</title>
<path style="fill:none;stroke:#3542b2;" d="M95,113C79,119 34,135 16,142"/>
<polygon style="fill:#3542b2;stroke:#3542b2;" points="16,143 14,143 16,141 16,143"/>
</g>
<!-- merge&#45;&gt;setfil -->
<g id="edge78" class="edge"><title>merge&#45;&gt;setfil</title>
<path style="fill:none;stroke:#3542b2;" d="M107,112C121,114 151,121 165,141 171,150 170,164 169,173"/>
<polygon style="fill:#3542b2;stroke:#3542b2;" points="170,173 168,175 168,173 170,173"/>
</g>
<!-- insert -->
<g id="node56" class="node"><title>insert</title>
<ellipse style="fill:#ccd1ff;stroke:#ccd1ff;" cx="114" cy="179" rx="6" ry="4"/>
<text text-anchor="middle" x="114" y="180" style="font-size:3.19;">insert</text>
</g>
<!-- merge&#45;&gt;insert -->
<g id="edge66" class="edge"><title>merge&#45;&gt;insert</title>
<path style="fill:none;stroke:#3542b2;" d="M101,115C101,122 101,137 104,149 106,158 109,167 112,173"/>
<polygon style="fill:#3542b2;stroke:#3542b2;" points="112,172 112,175 111,173 112,172"/>
</g>
<!-- wline -->
<g id="node58" class="node"><title>wline</title>
<ellipse style="fill:#d7ff3e;stroke:#d7ff3e;" cx="42" cy="179" rx="6" ry="4"/>
<text text-anchor="middle" x="42" y="180" style="font-size:3.19;">wline</text>
</g>
<!-- merge&#45;&gt;wline -->
<g id="edge70" class="edge"><title>merge&#45;&gt;wline</title>
<path style="fill:none;stroke:#3542b2;" d="M94,113C84,117 62,125 50,141 44,150 42,164 42,173"/>
<polygon style="fill:#3542b2;stroke:#3542b2;" points="43,173 42,175 42,173 43,173"/>
</g>
<!-- cmpsave -->
<g id="node62" class="node"><title>cmpsave</title>
<ellipse style="fill:#ccd1ff;stroke:#ccd1ff;" cx="86" cy="179" rx="8" ry="4"/>
<text text-anchor="middle" x="86" y="180" style="font-size:3.19;">cmpsave</text>
</g>
<!-- merge&#45;&gt;cmpsave -->
<g id="edge84" class="edge"><title>merge&#45;&gt;cmpsave</title>
<path style="fill:none;stroke:#3542b2;" d="M100,115C97,127 91,159 88,173"/>
<polygon style="fill:#3542b2;stroke:#3542b2;" points="88,173 87,175 87,173 88,173"/>
</g>
<!-- rline -->
<g id="node65" class="node"><title>rline</title>
<ellipse style="fill:#6fff82;stroke:#6fff82;" cx="34" cy="145" rx="6" ry="4"/>
<text text-anchor="middle" x="34" y="146" style="font-size:3.19;">rline</text>
</g>
<!-- merge&#45;&gt;rline -->
<g id="edge68" class="edge"><title>merge&#45;&gt;rline</title>
<path style="fill:none;stroke:#3542b2;" d="M95,114C83,120 54,135 41,141"/>
<polygon style="fill:#3542b2;stroke:#3542b2;" points="41,142 39,142 40,141 41,142"/>
</g>
<!-- fopen -->
<g id="node69" class="node"><title>fopen</title>
<ellipse style="fill:#ccd1ff;stroke:#ccd1ff;" cx="149" cy="179" rx="6" ry="4"/>
<text text-anchor="middle" x="149" y="180" style="font-size:3.19;">fopen</text>
</g>
<!-- merge&#45;&gt;fopen -->
<g id="edge74" class="edge"><title>merge&#45;&gt;fopen</title>
<path style="fill:none;stroke:#3542b2;" d="M102,115C105,122 112,138 120,149 127,159 137,168 143,174"/>
<polygon style="fill:#3542b2;stroke:#3542b2;" points="144,173 145,176 142,175 144,173"/>
</g>
<!-- mul -->
<g id="node73" class="node"><title>mul</title>
<ellipse style="fill:#ccd1ff;stroke:#ccd1ff;" cx="128" cy="145" rx="6" ry="4"/>
<text text-anchor="middle" x="128" y="146" style="font-size:3.19;">mul</text>
</g>
<!-- merge&#45;&gt;mul -->
<g id="edge80" class="edge"><title>merge&#45;&gt;mul</title>
<path style="fill:none;stroke:#3542b2;" d="M104,115C109,121 118,133 124,140"/>
<polygon style="fill:#3542b2;stroke:#3542b2;" points="124,139 125,141 123,140 124,139"/>
</g>
<!-- term&#45;&gt;signal -->
<g id="edge102" class="edge"><title>term&#45;&gt;signal</title>
<path style="fill:none;stroke:#3542b2;" d="M190,114C202,120 231,134 245,141"/>
<polygon style="fill:#3542b2;stroke:#3542b2;" points="245,140 247,142 245,142 245,140"/>
</g>
<!-- term&#45;&gt;unlink -->
<g id="edge100" class="edge"><title>term&#45;&gt;unlink</title>
<path style="fill:none;stroke:#3542b2;" d="M185,115C184,121 184,132 183,139"/>
<polygon style="fill:#3542b2;stroke:#3542b2;" points="184,139 183,141 182,139 184,139"/>
</g>
<!-- term&#45;&gt;setfil -->
<g id="edge104" class="edge"><title>term&#45;&gt;setfil</title>
<path style="fill:none;stroke:#3542b2;" d="M189,114C198,121 215,136 208,149 201,163 185,172 175,176"/>
<polygon style="fill:#3542b2;stroke:#3542b2;" points="176,177 173,177 175,175 176,177"/>
</g>
<!-- exit -->
<g id="node92" class="node"><title>exit</title>
<ellipse style="fill:#ccd1ff;stroke:#ccd1ff;" cx="200" cy="145" rx="6" ry="4"/>
<text text-anchor="middle" x="200" y="146" style="font-size:3.19;">exit</text>
</g>
<!-- term&#45;&gt;exit -->
<g id="edge106" class="edge"><title>term&#45;&gt;exit</title>
<path style="fill:none;stroke:#3542b2;" d="M187,115C189,121 194,132 197,139"/>
<polygon style="fill:#3542b2;stroke:#3542b2;" points="198,138 198,141 196,139 198,138"/>
</g>
<!-- sigvec -->
<g id="node125" class="node"><title>sigvec</title>
<ellipse style="fill:#ccd1ff;stroke:#ccd1ff;" cx="252" cy="179" rx="7" ry="4"/>
<text text-anchor="middle" x="252" y="180" style="font-size:3.19;">sigvec</text>
</g>
<!-- signal&#45;&gt;sigvec -->
<g id="edge144" class="edge"><title>signal&#45;&gt;sigvec</title>
<path style="fill:none;stroke:#3542b2;" d="M252,149C252,155 252,166 252,173"/>
<polygon style="fill:#3542b2;stroke:#3542b2;" points="253,173 252,175 252,173 253,173"/>
</g>
<!-- newfile&#45;&gt;setfil -->
<g id="edge116" class="edge"><title>newfile&#45;&gt;setfil</title>
<path style="fill:none;stroke:#3542b2;" d="M157,149C159,155 163,166 165,173"/>
<polygon style="fill:#3542b2;stroke:#3542b2;" points="166,172 166,175 164,173 166,172"/>
</g>
<!-- newfile&#45;&gt;fopen -->
<g id="edge114" class="edge"><title>newfile&#45;&gt;fopen</title>
<path style="fill:none;stroke:#344db4;" d="M154,149C153,155 151,166 150,173"/>
<polygon style="fill:#344db4;stroke:#344db4;" points="150,173 149,175 149,173 150,173"/>
</g>
<!-- fclose&#45;&gt;close -->
<g id="edge120" class="edge"><title>fclose&#45;&gt;close</title>
<path style="fill:none;stroke:#3542b2;" d="M81,148C91,154 114,168 125,175"/>
<polygon style="fill:#3542b2;stroke:#3542b2;" points="125,174 127,176 124,176 125,174"/>
</g>
<!-- fflush -->
<g id="node102" class="node"><title>fflush</title>
<ellipse style="fill:#ccd1ff;stroke:#ccd1ff;" cx="80" cy="213" rx="6" ry="4"/>
<text text-anchor="middle" x="80" y="214" style="font-size:3.19;">fflush</text>
</g>
<!-- fclose&#45;&gt;fflush -->
<g id="edge118" class="edge"><title>fclose&#45;&gt;fflush</title>
<path style="fill:none;stroke:#3547b3;" d="M80,149C85,154 94,164 97,175 101,187 91,200 85,207"/>
<polygon style="fill:#3547b3;stroke:#3547b3;" points="86,208 84,209 85,207 86,208"/>
</g>
<!-- doprnt -->
<g id="node138" class="node"><title>doprnt</title>
<ellipse style="fill:#ccd1ff;stroke:#ccd1ff;" cx="308" cy="145" rx="7" ry="4"/>
<text text-anchor="middle" x="308" y="146" style="font-size:3.19;">doprnt</text>
</g>
<!-- sprintf&#45;&gt;doprnt -->
<g id="edge170" class="edge"><title>sprintf&#45;&gt;doprnt</title>
<path style="fill:none;stroke:#3542b2;" d="M308,115C308,121 308,132 308,139"/>
<polygon style="fill:#3542b2;stroke:#3542b2;" points="309,139 308,141 307,139 309,139"/>
</g>
<!-- qsort -->
<g id="node54" class="node"><title>qsort</title>
<ellipse style="fill:#8dffdc;stroke:#8dffdc;" cx="59" cy="179" rx="6" ry="4"/>
<text text-anchor="middle" x="59" y="180" style="font-size:3.19;">qsort</text>
</g>
<!-- msort&#45;&gt;qsort -->
<g id="edge56" class="edge"><title>msort&#45;&gt;qsort</title>
<path style="fill:none;stroke:#3542b2;" d="M59,149C59,155 59,166 59,173"/>
<polygon style="fill:#3542b2;stroke:#3542b2;" points="60,173 59,175 58,173 60,173"/>
</g>
<!-- msort&#45;&gt;insert -->
<g id="edge58" class="edge"><title>msort&#45;&gt;insert</title>
<path style="fill:none;stroke:#3542b2;" d="M64,148C73,154 96,168 107,175"/>
<polygon style="fill:#3542b2;stroke:#3542b2;" points="108,174 109,176 107,176 108,174"/>
</g>
<!-- msort&#45;&gt;wline -->
<g id="edge60" class="edge"><title>msort&#45;&gt;wline</title>
<path style="fill:none;stroke:#3542b2;" d="M57,149C54,155 49,166 45,173"/>
<polygon style="fill:#3542b2;stroke:#3542b2;" points="46,173 44,175 45,173 46,173"/>
</g>
<!-- div -->
<g id="node60" class="node"><title>div</title>
<ellipse style="fill:#ccd1ff;stroke:#ccd1ff;" cx="167" cy="213" rx="6" ry="4"/>
<text text-anchor="middle" x="167" y="214" style="font-size:3.19;">div</text>
</g>
<!-- msort&#45;&gt;div -->
<g id="edge62" class="edge"><title>msort&#45;&gt;div</title>
<path style="fill:none;stroke:#3542b2;" d="M60,149C61,157 66,174 76,183 105,209 123,195 158,209 159,209 159,209 160,209"/>
<polygon style="fill:#3542b2;stroke:#3542b2;" points="160,209 162,210 159,210 160,209"/>
</g>
<!-- msort&#45;&gt;cmpsave -->
<g id="edge64" class="edge"><title>msort&#45;&gt;cmpsave</title>
<path style="fill:none;stroke:#3542b2;" d="M62,149C67,155 76,166 82,173"/>
<polygon style="fill:#3542b2;stroke:#3542b2;" points="83,173 83,175 81,174 83,173"/>
</g>
<!-- read -->
<g id="node87" class="node"><title>read</title>
<ellipse style="fill:#b5dcff;stroke:#b5dcff;" cx="23" cy="213" rx="6" ry="4"/>
<text text-anchor="middle" x="23" y="214" style="font-size:3.19;">read</text>
</g>
<!-- filbuf&#45;&gt;read -->
<g id="edge98" class="edge"><title>filbuf&#45;&gt;read</title>
<path style="fill:none;stroke:#3542b2;" d="M23,183C23,189 23,199 23,207"/>
<polygon style="fill:#3542b2;stroke:#3542b2;" points="24,207 23,209 22,207 24,207"/>
</g>
<!-- setfil&#45;&gt;rem -->
<g id="edge156" class="edge"><title>setfil&#45;&gt;rem</title>
<path style="fill:none;stroke:#3542b2;" d="M172,181C184,188 212,202 225,209"/>
<polygon style="fill:#3542b2;stroke:#3542b2;" points="225,209 227,210 225,210 225,209"/>
</g>
<!-- setfil&#45;&gt;div -->
<g id="edge154" class="edge"><title>setfil&#45;&gt;div</title>
<path style="fill:none;stroke:#3542b2;" d="M168,183C167,189 167,199 167,207"/>
<polygon style="fill:#3542b2;stroke:#3542b2;" points="168,207 167,209 166,207 168,207"/>
</g>
<!-- cmpa -->
<g id="node77" class="node"><title>cmpa</title>
<ellipse style="fill:#ff0000;stroke:#ff0000;" cx="106" cy="213" rx="6" ry="4"/>
<text text-anchor="middle" x="106" y="214" style="font-size:3.19;">cmpa</text>
</g>
<!-- qsort&#45;&gt;cmpa -->
<g id="edge90" class="edge"><title>qsort&#45;&gt;cmpa</title>
<path style="fill:none;stroke:#3542b2;" d="M63,182C71,188 90,202 99,208"/>
<polygon style="fill:#3542b2;stroke:#3542b2;" points="100,208 101,210 99,209 100,208"/>
</g>
<!-- insert&#45;&gt;cmpa -->
<g id="edge86" class="edge"><title>insert&#45;&gt;cmpa</title>
<path style="fill:none;stroke:#3542b2;" d="M113,183C112,189 109,200 107,207"/>
<polygon style="fill:#3542b2;stroke:#3542b2;" points="108,207 107,209 106,207 108,207"/>
</g>
<!-- getfreehdr -->
<g id="node112" class="node"><title>getfreehdr</title>
<ellipse style="fill:#ccd1ff;stroke:#ccd1ff;" cx="212" cy="213" rx="9" ry="4"/>
<text text-anchor="middle" x="212" y="214" style="font-size:3.19;">getfreehdr</text>
</g>
<!-- insert&#45;&gt;getfreehdr -->
<g id="edge152" class="edge"><title>insert&#45;&gt;getfreehdr</title>
<path style="fill:none;stroke:#3542b2;" d="M119,181C121,182 122,183 123,183 151,194 185,205 202,210"/>
<polygon style="fill:#3542b2;stroke:#3542b2;" points="202,209 204,211 202,211 202,209"/>
</g>
<!-- flsbuf -->
<g id="node79" class="node"><title>flsbuf</title>
<ellipse style="fill:#ccd1ff;stroke:#ccd1ff;" cx="46" cy="213" rx="6" ry="4"/>
<text text-anchor="middle" x="46" y="214" style="font-size:3.19;">flsbuf</text>
</g>
<!-- wline&#45;&gt;flsbuf -->
<g id="edge88" class="edge"><title>wline&#45;&gt;flsbuf</title>
<path style="fill:none;stroke:#3542b2;" d="M43,183C44,189 45,200 46,207"/>
<polygon style="fill:#3542b2;stroke:#3542b2;" points="46,207 46,209 45,207 46,207"/>
</g>
<!-- rline&#45;&gt;filbuf -->
<g id="edge92" class="edge"><title>rline&#45;&gt;filbuf</title>
<path style="fill:none;stroke:#3542b2;" d="M32,149C31,155 27,166 25,173"/>
<polygon style="fill:#3542b2;stroke:#3542b2;" points="26,173 24,175 24,172 26,173"/>
</g>
<!-- endopen -->
<g id="node93" class="node"><title>endopen</title>
<ellipse style="fill:#ccd1ff;stroke:#ccd1ff;" cx="129" cy="213" rx="8" ry="4"/>
<text text-anchor="middle" x="129" y="214" style="font-size:3.19;">endopen</text>
</g>
<!-- fopen&#45;&gt;endopen -->
<g id="edge110" class="edge"><title>fopen&#45;&gt;endopen</title>
<path style="fill:none;stroke:#354ab3;" d="M146,183C143,189 136,200 132,207"/>
<polygon style="fill:#354ab3;stroke:#354ab3;" points="133,207 131,209 131,207 133,207"/>
</g>
<!-- findiop -->
<g id="node98" class="node"><title>findiop</title>
<ellipse style="fill:#ccd1ff;stroke:#ccd1ff;" cx="149" cy="213" rx="7" ry="4"/>
<text text-anchor="middle" x="149" y="214" style="font-size:3.19;">findiop</text>
</g>
<!-- fopen&#45;&gt;findiop -->
<g id="edge112" class="edge"><title>fopen&#45;&gt;findiop</title>
<path style="fill:none;stroke:#3542b2;" d="M149,183C149,189 149,199 149,207"/>
<polygon style="fill:#3542b2;stroke:#3542b2;" points="150,207 149,209 148,207 150,207"/>
</g>
<!-- xflsbuf -->
<g id="node82" class="node"><title>xflsbuf</title>
<ellipse style="fill:#ccd1ff;stroke:#ccd1ff;" cx="63" cy="247" rx="7" ry="4"/>
<text text-anchor="middle" x="63" y="248" style="font-size:3.19;">xflsbuf</text>
</g>
<!-- flsbuf&#45;&gt;xflsbuf -->
<g id="edge96" class="edge"><title>flsbuf&#45;&gt;xflsbuf</title>
<path style="fill:none;stroke:#3542b2;" d="M48,217C52,223 57,234 60,241"/>
<polygon style="fill:#3542b2;stroke:#3542b2;" points="61,240 61,243 60,241 61,240"/>
</g>
<!-- write -->
<g id="node84" class="node"><title>write</title>
<ellipse style="fill:#9cfffe;stroke:#9cfffe;" cx="63" cy="281" rx="6" ry="4"/>
<text text-anchor="middle" x="63" y="282" style="font-size:3.19;">write</text>
</g>
<!-- xflsbuf&#45;&gt;write -->
<g id="edge94" class="edge"><title>xflsbuf&#45;&gt;write</title>
<path style="fill:none;stroke:#3542b2;" d="M63,251C63,257 63,267 63,274"/>
<polygon style="fill:#3542b2;stroke:#3542b2;" points="64,274 63,276 63,274 64,274"/>
</g>
<!-- open -->
<g id="node95" class="node"><title>open</title>
<ellipse style="fill:#c8d1ff;stroke:#c8d1ff;" cx="129" cy="247" rx="6" ry="4"/>
<text text-anchor="middle" x="129" y="248" style="font-size:3.19;">open</text>
</g>
<!-- endopen&#45;&gt;open -->
<g id="edge108" class="edge"><title>endopen&#45;&gt;open</title>
<path style="fill:none;stroke:#3542b2;" d="M129,217C129,223 129,233 129,240"/>
<polygon style="fill:#3542b2;stroke:#3542b2;" points="130,240 129,243 128,240 130,240"/>
</g>
<!-- fflush&#45;&gt;xflsbuf -->
<g id="edge122" class="edge"><title>fflush&#45;&gt;xflsbuf</title>
<path style="fill:none;stroke:#344db4;" d="M78,217C75,223 70,234 66,241"/>
<polygon style="fill:#344db4;stroke:#344db4;" points="67,241 65,243 66,240 67,241"/>
</g>
<!-- morecore -->
<g id="node107" class="node"><title>morecore</title>
<ellipse style="fill:#ccd1ff;stroke:#ccd1ff;" cx="365" cy="111" rx="9" ry="4"/>
<text text-anchor="middle" x="365" y="112" style="font-size:3.19;">morecore</text>
</g>
<!-- malloc&#45;&gt;morecore -->
<g id="edge124" class="edge"><title>malloc&#45;&gt;morecore</title>
<path style="fill:none;stroke:#29d820;" d="M365,81C365,87 365,98 365,105"/>
<polygon style="fill:#29d820;stroke:#29d820;" points="366,105 365,107 364,105 366,105"/>
</g>
<!-- demote -->
<g id="node109" class="node"><title>demote</title>
<ellipse style="fill:#ccd1ff;stroke:#ccd1ff;" cx="385" cy="111" rx="7" ry="4"/>
<text text-anchor="middle" x="385" y="112" style="font-size:3.19;">demote</text>
</g>
<!-- malloc&#45;&gt;demote -->
<g id="edge126" class="edge"><title>malloc&#45;&gt;demote</title>
<path style="fill:none;stroke:#3542b2;" d="M367,81C371,87 378,98 382,105"/>
<polygon style="fill:#3542b2;stroke:#3542b2;" points="382,105 383,107 381,106 382,105"/>
</g>
<!-- morecore&#45;&gt;sbrk -->
<g id="edge128" class="edge"><title>morecore&#45;&gt;sbrk</title>
<path style="fill:none;stroke:#3542b2;" d="M365,115C364,130 363,178 360,217 359,225 358,235 358,240"/>
<polygon style="fill:#3542b2;stroke:#3542b2;" points="358,240 357,243 357,240 358,240"/>
</g>
<!-- morecore&#45;&gt;getfreehdr -->
<g id="edge130" class="edge"><title>morecore&#45;&gt;getfreehdr</title>
<path style="fill:none;stroke:#3542b2;" d="M364,115C362,129 354,174 344,183 304,220 276,194 224,209 223,209 222,209 222,209"/>
<polygon style="fill:#3542b2;stroke:#3542b2;" points="222,210 220,210 222,209 222,210"/>
</g>
<!-- free -->
<g id="node114" class="node"><title>free</title>
<ellipse style="fill:#ccd1ff;stroke:#ccd1ff;" cx="280" cy="145" rx="6" ry="4"/>
<text text-anchor="middle" x="280" y="146" style="font-size:3.19;">free</text>
</g>
<!-- morecore&#45;&gt;free -->
<g id="edge132" class="edge"><title>morecore&#45;&gt;free</title>
<path style="fill:none;stroke:#3542b2;" d="M358,114C342,120 304,136 287,142"/>
<polygon style="fill:#3542b2;stroke:#3542b2;" points="288,143 285,143 287,141 288,143"/>
</g>
<!-- getpagesize -->
<g id="node116" class="node"><title>getpagesize</title>
<ellipse style="fill:#ccd1ff;stroke:#ccd1ff;" cx="382" cy="145" rx="10" ry="4"/>
<text text-anchor="middle" x="382" y="146" style="font-size:3.19;">getpagesize</text>
</g>
<!-- morecore&#45;&gt;getpagesize -->
<g id="edge134" class="edge"><title>morecore&#45;&gt;getpagesize</title>
<path style="fill:none;stroke:#3542b2;" d="M367,115C370,121 375,132 379,139"/>
<polygon style="fill:#3542b2;stroke:#3542b2;" points="380,139 380,141 378,139 380,139"/>
</g>
<!-- putfreehdr -->
<g id="node118" class="node"><title>putfreehdr</title>
<ellipse style="fill:#ccd1ff;stroke:#ccd1ff;" cx="406" cy="145" rx="9" ry="4"/>
<text text-anchor="middle" x="406" y="146" style="font-size:3.19;">putfreehdr</text>
</g>
<!-- morecore&#45;&gt;putfreehdr -->
<g id="edge136" class="edge"><title>morecore&#45;&gt;putfreehdr</title>
<path style="fill:none;stroke:#3542b2;" d="M369,115C377,121 392,133 400,140"/>
<polygon style="fill:#3542b2;stroke:#3542b2;" points="401,139 402,141 400,140 401,139"/>
</g>
<!-- udiv -->
<g id="node120" class="node"><title>udiv</title>
<ellipse style="fill:#ccd1ff;stroke:#ccd1ff;" cx="336" cy="179" rx="6" ry="4"/>
<text text-anchor="middle" x="336" y="180" style="font-size:3.19;">udiv</text>
</g>
<!-- morecore&#45;&gt;udiv -->
<g id="edge138" class="edge"><title>morecore&#45;&gt;udiv</title>
<path style="fill:none;stroke:#3542b2;" d="M363,115C358,127 344,159 338,173"/>
<polygon style="fill:#3542b2;stroke:#3542b2;" points="339,173 338,175 338,172 339,173"/>
</g>
<!-- umul -->
<g id="node122" class="node"><title>umul</title>
<ellipse style="fill:#ccd1ff;stroke:#ccd1ff;" cx="427" cy="145" rx="6" ry="4"/>
<text text-anchor="middle" x="427" y="146" style="font-size:3.19;">umul</text>
</g>
<!-- morecore&#45;&gt;umul -->
<g id="edge140" class="edge"><title>morecore&#45;&gt;umul</title>
<path style="fill:none;stroke:#3542b2;" d="M371,114C382,121 407,135 420,141"/>
<polygon style="fill:#3542b2;stroke:#3542b2;" points="420,140 422,142 419,142 420,140"/>
</g>
<!-- getfreehdr&#45;&gt;sbrk -->
<g id="edge148" class="edge"><title>getfreehdr&#45;&gt;sbrk</title>
<path style="fill:none;stroke:#3542b2;" d="M219,216C221,216 222,217 224,217 271,230 328,241 349,245"/>
<polygon style="fill:#3542b2;stroke:#3542b2;" points="349,245 351,246 349,246 349,245"/>
</g>
<!-- free&#45;&gt;insert -->
<g id="edge150" class="edge"><title>free&#45;&gt;insert</title>
<path style="fill:none;stroke:#3542b2;" d="M274,146C271,147 266,148 261,149 200,162 183,156 123,175 123,175 122,175 122,175"/>
<polygon style="fill:#3542b2;stroke:#3542b2;" points="122,176 119,176 121,175 122,176"/>
</g>
<!-- sigblock -->
<g id="node135" class="node"><title>sigblock</title>
<ellipse style="fill:#ccd1ff;stroke:#ccd1ff;" cx="275" cy="213" rx="8" ry="4"/>
<text text-anchor="middle" x="275" y="214" style="font-size:3.19;">sigblock</text>
</g>
<!-- sigvec&#45;&gt;sigblock -->
<g id="edge158" class="edge"><title>sigvec&#45;&gt;sigblock</title>
<path style="fill:none;stroke:#3542b2;" d="M255,183C259,189 266,200 271,207"/>
<polygon style="fill:#3542b2;stroke:#3542b2;" points="271,207 272,209 270,208 271,207"/>
</g>
<!-- sigsetmask -->
<g id="node137" class="node"><title>sigsetmask</title>
<ellipse style="fill:#ccd1ff;stroke:#ccd1ff;" cx="252" cy="213" rx="10" ry="4"/>
<text text-anchor="middle" x="252" y="214" style="font-size:3.19;">sigsetmask</text>
</g>
<!-- sigvec&#45;&gt;sigsetmask -->
<g id="edge160" class="edge"><title>sigvec&#45;&gt;sigsetmask</title>
<path style="fill:none;stroke:#3542b2;" d="M252,183C252,189 252,199 252,207"/>
<polygon style="fill:#3542b2;stroke:#3542b2;" points="253,207 252,209 252,207 253,207"/>
</g>
<!-- moncontrol -->
<g id="node126" class="node"><title>moncontrol</title>
<ellipse style="fill:#cad1ff;stroke:#cad1ff;" cx="341" cy="10" rx="10" ry="4"/>
<text text-anchor="middle" x="341" y="11" style="font-size:3.19;">moncontrol</text>
</g>
<!-- profil -->
<g id="node128" class="node"><title>profil</title>
<ellipse style="fill:#ccd1ff;stroke:#ccd1ff;" cx="341" cy="43" rx="6" ry="4"/>
<text text-anchor="middle" x="341" y="45" style="font-size:3.19;">profil</text>
</g>
<!-- moncontrol&#45;&gt;profil -->
<g id="edge146" class="edge"><title>moncontrol&#45;&gt;profil</title>
<path style="fill:none;stroke:#3542b2;" d="M341,14C341,20 341,30 341,37"/>
<polygon style="fill:#3542b2;stroke:#3542b2;" points="342,37 341,39 340,37 342,37"/>
</g>
<!-- doprnt&#45;&gt;udiv -->
<g id="edge164" class="edge"><title>doprnt&#45;&gt;udiv</title>
<path style="fill:none;stroke:#3542b2;" d="M311,149C316,155 325,166 331,173"/>
<polygon style="fill:#3542b2;stroke:#3542b2;" points="332,173 333,175 331,174 332,173"/>
</g>
<!-- urem -->
<g id="node140" class="node"><title>urem</title>
<ellipse style="fill:#ccd1ff;stroke:#ccd1ff;" cx="310" cy="179" rx="6" ry="4"/>
<text text-anchor="middle" x="310" y="180" style="font-size:3.19;">urem</text>
</g>
<!-- doprnt&#45;&gt;urem -->
<g id="edge162" class="edge"><title>doprnt&#45;&gt;urem</title>
<path style="fill:none;stroke:#3542b2;" d="M308,149C309,155 309,166 310,173"/>
<polygon style="fill:#3542b2;stroke:#3542b2;" points="311,173 310,175 309,173 311,173"/>
</g>
<!-- strlen -->
<g id="node143" class="node"><title>strlen</title>
<ellipse style="fill:#ccd1ff;stroke:#ccd1ff;" cx="270" cy="179" rx="6" ry="4"/>
<text text-anchor="middle" x="270" y="180" style="font-size:3.19;">strlen</text>
</g>
<!-- doprnt&#45;&gt;strlen -->
<g id="edge166" class="edge"><title>doprnt&#45;&gt;strlen</title>
<path style="fill:none;stroke:#3542b2;" d="M304,148C297,155 283,167 276,174"/>
<polygon style="fill:#3542b2;stroke:#3542b2;" points="276,175 274,176 275,173 276,175"/>
</g>
<!-- localeconv -->
<g id="node145" class="node"><title>localeconv</title>
<ellipse style="fill:#ccd1ff;stroke:#ccd1ff;" cx="290" cy="179" rx="9" ry="4"/>
<text text-anchor="middle" x="290" y="180" style="font-size:3.19;">localeconv</text>
</g>
<!-- doprnt&#45;&gt;localeconv -->
<g id="edge168" class="edge"><title>doprnt&#45;&gt;localeconv</title>
<path style="fill:none;stroke:#3542b2;" d="M306,149C303,155 297,166 293,173"/>
<polygon style="fill:#3542b2;stroke:#3542b2;" points="294,173 292,175 293,173 294,173"/>
</g>
</g>
</svg>
