<?xml version="1.0" encoding="UTF-8" standalone="no"?>
<!DOCTYPE svg PUBLIC "-//W3C//DTD SVG 1.0//EN"
 "http://www.w3.org/TR/2001/REC-SVG-20010904/DTD/svg10.dtd" [
 <!ATTLIST svg xmlns:xlink CDATA #FIXED "http://www.w3.org/1999/xlink">
]>
<!-- Generated by dot version 2.7.20051025.0440 (Tue Oct 25 07:40:11 UTC 2005)
     For user: (ellson) John Ellson -->
<!-- Title: G Pages: 1 -->
<svg width="543pt" height="507pt"
 viewBox = "0 0 543 507"
 xmlns="http://www.w3.org/2000/svg" xmlns:xlink="http://www.w3.org/1999/xlink">
<g id="graph0" class="graph" style="font-family:Times-Roman;font-size:14.00;">
<title>G</title>
<polygon style="fill:black;stroke:black;" points="0,507 0,0 543,0 543,507 0,507"/>
<!-- ds3CTP_1_1 -->
<g id="node2" class="node"><title>ds3CTP_1_1</title>
<polygon style="fill:green;stroke:green;" points="20,5 2,5 2,17 20,17 20,5"/>
</g>
<!-- ds3CTP_1_2 -->
<g id="node3" class="node"><title>ds3CTP_1_2</title>
<polygon style="fill:green;stroke:green;" points="92,5 73,5 73,17 92,17 92,5"/>
</g>
<!-- ds3CTP_1_1&#45;&gt;ds3CTP_1_2 -->
<g id="edge234" class="edge"><title>ds3CTP_1_1&#45;&gt;ds3CTP_1_2</title>
<path style="fill:none;stroke:white;stroke-width:3;" d="M20,11C38,11 56,11 73,11"/>
</g>
<!-- t3TTP_1_1 -->
<g id="node7" class="node"><title>t3TTP_1_1</title>
<polygon style="fill:red;stroke:red;" points="11,54 20,45 2,45 11,54"/>
</g>
<!-- ds3CTP_1_1&#45;&gt;t3TTP_1_1 -->
<g id="edge20" class="edge"><title>ds3CTP_1_1&#45;&gt;t3TTP_1_1</title>
<path style="fill:none;stroke:white;stroke-dasharray:1,5;" d="M11,17C11,25 11,39 11,45"/>
</g>
<!-- vc3TTP_1_2 -->
<g id="node10" class="node"><title>vc3TTP_1_2</title>
<polygon style="fill:red;stroke:red;" points="83,54 92,45 73,45 83,54"/>
</g>
<!-- ds3CTP_1_2&#45;&gt;vc3TTP_1_2 -->
<g id="edge22" class="edge"><title>ds3CTP_1_2&#45;&gt;vc3TTP_1_2</title>
<path style="fill:none;stroke:white;stroke-dasharray:1,5;" d="M83,17C83,25 83,39 83,45"/>
</g>
<!-- ds3CTP_5_1 -->
<g id="node4" class="node"><title>ds3CTP_5_1</title>
<polygon style="fill:green;stroke:green;" points="477,5 458,5 458,17 477,17 477,5"/>
</g>
<!-- ds3CTP_5_2 -->
<g id="node5" class="node"><title>ds3CTP_5_2</title>
<polygon style="fill:green;stroke:green;" points="542,5 523,5 523,17 542,17 542,5"/>
</g>
<!-- ds3CTP_5_1&#45;&gt;ds3CTP_5_2 -->
<g id="edge272" class="edge"><title>ds3CTP_5_1&#45;&gt;ds3CTP_5_2</title>
<path style="fill:none;stroke:white;stroke-width:3;" d="M477,11C492,11 508,11 523,11"/>
</g>
<!-- vc3TTP_5_1 -->
<g id="node11" class="node"><title>vc3TTP_5_1</title>
<polygon style="fill:red;stroke:red;" points="468,54 477,45 458,45 468,54"/>
</g>
<!-- ds3CTP_5_1&#45;&gt;vc3TTP_5_1 -->
<g id="edge63" class="edge"><title>ds3CTP_5_1&#45;&gt;vc3TTP_5_1</title>
<path style="fill:none;stroke:white;stroke-dasharray:1,5;" d="M468,17C468,25 468,39 468,45"/>
</g>
<!-- t3TTP_5_2 -->
<g id="node8" class="node"><title>t3TTP_5_2</title>
<polygon style="fill:red;stroke:red;" points="532,54 542,45 523,45 532,54"/>
</g>
<!-- ds3CTP_5_2&#45;&gt;t3TTP_5_2 -->
<g id="edge74" class="edge"><title>ds3CTP_5_2&#45;&gt;t3TTP_5_2</title>
<path style="fill:none;stroke:white;stroke-dasharray:1,5;" d="M532,17C532,25 532,39 532,45"/>
</g>
<!-- me_1 -->
<g id="node88" class="node"><title>me_1</title>
<polygon style="fill:lightgrey;stroke:black;" points="66,488 48,488 48,501 66,501 66,488"/>
<polygon style="fill:none;stroke:black;" points="68,487 46,487 46,502 68,502 68,487"/>
</g>
<!-- t3TTP_1_1&#45;&gt;me_1 -->
<g id="edge130" class="edge"><title>t3TTP_1_1&#45;&gt;me_1</title>
<path style="fill:none;stroke:white;" d="M11,54C11,67 11,97 11,122 11,122 11,122 11,418 11,445 32,471 45,484"/>
<polygon style="fill:white;stroke:white;" points="47,484 48,487 45,485 47,484"/>
</g>
<!-- me_5 -->
<g id="node92" class="node"><title>me_5</title>
<polygon style="fill:lightgrey;stroke:black;" points="486,488 468,488 468,501 486,501 486,488"/>
<polygon style="fill:none;stroke:black;" points="488,487 466,487 466,502 488,502 488,487"/>
</g>
<!-- t3TTP_5_2&#45;&gt;me_5 -->
<g id="edge132" class="edge"><title>t3TTP_5_2&#45;&gt;me_5</title>
<path style="fill:none;stroke:white;" d="M532,54C532,67 532,97 532,122 532,122 532,122 532,418 532,447 507,472 491,485"/>
<polygon style="fill:white;stroke:white;" points="491,486 488,487 490,484 491,486"/>
</g>
<!-- vc3TTP_1_2&#45;&gt;vc3TTP_5_1 -->
<g id="edge77" class="edge"><title>vc3TTP_1_2&#45;&gt;vc3TTP_5_1</title>
<path style="fill:none;stroke:white;stroke-dasharray:5,2;" d="M89,48C213,48 337,48 461,48"/>
</g>
<!-- fabric_1_2 -->
<g id="node13" class="node"><title>fabric_1_2</title>
<polygon style="fill:blue;stroke:blue;" points="60,159 56,153 47,153 42,159 47,165 56,165 60,159"/>
</g>
<!-- vc3TTP_1_2&#45;&gt;fabric_1_2 -->
<g id="edge183" class="edge"><title>vc3TTP_1_2&#45;&gt;fabric_1_2</title>
<path style="fill:none;stroke:white;" d="M78,50C71,55 57,65 51,79 41,103 45,134 49,149"/>
<polygon style="fill:white;stroke:white;" points="50,149 49,153 48,150 50,149"/>
</g>
<!-- xp_1_2 -->
<g id="node17" class="node"><title>xp_1_2</title>
<polygon style="fill:blue;stroke:blue;" points="64,79 54,85 64,91 73,85 64,79"/>
</g>
<!-- vc3TTP_1_2&#45;&gt;xp_1_2 -->
<g id="edge212" class="edge"><title>vc3TTP_1_2&#45;&gt;xp_1_2</title>
<path style="fill:none;stroke:white;stroke-dasharray:1,5;" d="M80,52C77,59 70,73 66,80"/>
</g>
<!-- au3CTP_1_2 -->
<g id="node21" class="node"><title>au3CTP_1_2</title>
<polygon style="fill:green;stroke:green;" points="92,116 73,116 73,128 92,128 92,116"/>
</g>
<!-- vc3TTP_1_2&#45;&gt;au3CTP_1_2 -->
<g id="edge236" class="edge"><title>vc3TTP_1_2&#45;&gt;au3CTP_1_2</title>
<path style="fill:none;stroke:white;stroke-width:3;" d="M83,54C83,68 83,102 83,116"/>
</g>
<!-- vc3TTP_1_2&#45;&gt;me_1 -->
<g id="edge134" class="edge"><title>vc3TTP_1_2&#45;&gt;me_1</title>
<path style="fill:none;stroke:white;" d="M79,50C66,58 24,87 24,122 24,122 24,122 24,418 24,443 39,470 49,484"/>
<polygon style="fill:white;stroke:white;" points="50,483 51,487 48,485 50,483"/>
</g>
<!-- fabric_5_1 -->
<g id="node15" class="node"><title>fabric_5_1</title>
<polygon style="fill:blue;stroke:blue;" points="506,159 501,153 492,153 487,159 492,165 501,165 506,159"/>
</g>
<!-- vc3TTP_5_1&#45;&gt;fabric_5_1 -->
<g id="edge191" class="edge"><title>vc3TTP_5_1&#45;&gt;fabric_5_1</title>
<path style="fill:none;stroke:white;" d="M472,50C479,55 494,65 499,79 509,103 503,134 500,149"/>
<polygon style="fill:white;stroke:white;" points="501,150 499,153 499,149 501,150"/>
</g>
<!-- xp_5_1 -->
<g id="node19" class="node"><title>xp_5_1</title>
<polygon style="fill:blue;stroke:blue;" points="487,79 477,85 487,91 496,85 487,79"/>
</g>
<!-- vc3TTP_5_1&#45;&gt;xp_5_1 -->
<g id="edge230" class="edge"><title>vc3TTP_5_1&#45;&gt;xp_5_1</title>
<path style="fill:none;stroke:white;stroke-dasharray:1,5;" d="M470,52C474,59 481,73 484,80"/>
</g>
<!-- au3CTP_5_1 -->
<g id="node24" class="node"><title>au3CTP_5_1</title>
<polygon style="fill:green;stroke:green;" points="477,116 458,116 458,128 477,128 477,116"/>
</g>
<!-- vc3TTP_5_1&#45;&gt;au3CTP_5_1 -->
<g id="edge274" class="edge"><title>vc3TTP_5_1&#45;&gt;au3CTP_5_1</title>
<path style="fill:none;stroke:white;stroke-width:3;" d="M468,54C468,68 468,102 468,116"/>
</g>
<!-- vc3TTP_5_1&#45;&gt;me_5 -->
<g id="edge136" class="edge"><title>vc3TTP_5_1&#45;&gt;me_5</title>
<path style="fill:none;stroke:white;" d="M472,50C479,55 496,66 505,79 516,96 519,102 519,122 519,122 519,122 519,418 519,445 500,471 487,484"/>
<polygon style="fill:white;stroke:white;" points="488,485 485,487 486,483 488,485"/>
</g>
<!-- fabric_1_2&#45;&gt;me_1 -->
<g id="edge116" class="edge"><title>fabric_1_2&#45;&gt;me_1</title>
<path style="fill:none;stroke:white;" d="M49,165C45,178 38,208 37,233 37,233 37,233 37,418 38,442 47,469 52,484"/>
<polygon style="fill:white;stroke:white;" points="53,483 53,487 51,484 53,483"/>
</g>
<!-- fabric_4_1 -->
<g id="node14" class="node"><title>fabric_4_1</title>
<polygon style="fill:blue;stroke:blue;" points="341,159 336,153 327,153 322,159 327,165 336,165 341,159"/>
</g>
<!-- me_4 -->
<g id="node91" class="node"><title>me_4</title>
<polygon style="fill:lightgrey;stroke:black;" points="341,488 322,488 322,501 341,501 341,488"/>
<polygon style="fill:none;stroke:black;" points="342,487 321,487 321,502 342,502 342,487"/>
</g>
<!-- fabric_4_1&#45;&gt;me_4 -->
<g id="edge118" class="edge"><title>fabric_4_1&#45;&gt;me_4</title>
<path style="fill:none;stroke:white;" d="M332,165C332,178 332,208 332,233 332,233 332,233 332,418 332,441 332,468 332,483"/>
<polygon style="fill:white;stroke:white;" points="333,483 332,487 331,483 333,483"/>
</g>
<!-- fabric_5_1&#45;&gt;me_5 -->
<g id="edge120" class="edge"><title>fabric_5_1&#45;&gt;me_5</title>
<path style="fill:none;stroke:white;" d="M497,165C498,178 500,208 500,233 500,233 500,233 500,418 500,443 489,469 482,484"/>
<polygon style="fill:white;stroke:white;" points="483,484 481,487 481,483 483,484"/>
</g>
<!-- xp_1_2&#45;&gt;fabric_1_2 -->
<g id="edge110" class="edge"><title>xp_1_2&#45;&gt;fabric_1_2</title>
<path style="fill:none;stroke:white;" d="M62,91C60,103 55,134 53,149"/>
<polygon style="fill:white;stroke:white;" points="54,150 52,153 52,149 54,150"/>
</g>
<!-- xp_1_2&#45;&gt;au3CTP_1_2 -->
<g id="edge213" class="edge"><title>xp_1_2&#45;&gt;au3CTP_1_2</title>
<path style="fill:none;stroke:white;stroke-dasharray:1,5;" d="M66,90C69,96 76,109 79,116"/>
</g>
<!-- xp_4_1 -->
<g id="node18" class="node"><title>xp_4_1</title>
<polygon style="fill:blue;stroke:blue;" points="332,79 322,85 332,91 341,85 332,79"/>
</g>
<!-- xp_4_1&#45;&gt;fabric_4_1 -->
<g id="edge112" class="edge"><title>xp_4_1&#45;&gt;fabric_4_1</title>
<path style="fill:none;stroke:white;" d="M332,91C332,104 332,134 332,149"/>
<polygon style="fill:white;stroke:white;" points="333,149 332,153 331,149 333,149"/>
</g>
<!-- au3CTP_4_2 -->
<g id="node23" class="node"><title>au3CTP_4_2</title>
<polygon style="fill:green;stroke:green;" points="360,116 341,116 341,128 360,128 360,116"/>
</g>
<!-- xp_4_1&#45;&gt;au3CTP_4_2 -->
<g id="edge222" class="edge"><title>xp_4_1&#45;&gt;au3CTP_4_2</title>
<path style="fill:none;stroke:white;stroke-dasharray:1,5;" d="M334,90C337,96 344,109 348,116"/>
</g>
<!-- xp_5_1&#45;&gt;fabric_5_1 -->
<g id="edge114" class="edge"><title>xp_5_1&#45;&gt;fabric_5_1</title>
<path style="fill:none;stroke:white;" d="M487,91C489,103 493,134 495,149"/>
<polygon style="fill:white;stroke:white;" points="496,149 496,153 494,149 496,149"/>
</g>
<!-- xp_5_1&#45;&gt;au3CTP_5_1 -->
<g id="edge231" class="edge"><title>xp_5_1&#45;&gt;au3CTP_5_1</title>
<path style="fill:none;stroke:white;stroke-dasharray:1,5;" d="M484,90C481,96 475,109 471,116"/>
</g>
<!-- au3CTP_1_2&#45;&gt;fabric_1_2 -->
<g id="edge185" class="edge"><title>au3CTP_1_2&#45;&gt;fabric_1_2</title>
<path style="fill:none;stroke:white;" d="M77,128C72,135 64,144 59,150"/>
<polygon style="fill:white;stroke:white;" points="59,151 56,153 58,150 59,151"/>
</g>
<!-- aug_1_2 -->
<g id="node26" class="node"><title>aug_1_2</title>
<polygon style="fill:pink;stroke:pink;" points="77,165 88,165 92,153 73,153 77,165"/>
</g>
<!-- au3CTP_1_2&#45;&gt;aug_1_2 -->
<g id="edge24" class="edge"><title>au3CTP_1_2&#45;&gt;aug_1_2</title>
<path style="fill:none;stroke:white;stroke-dasharray:1,5;" d="M83,128C83,135 83,146 83,153"/>
</g>
<!-- au3CTP_4_1 -->
<g id="node22" class="node"><title>au3CTP_4_1</title>
<polygon style="fill:green;stroke:green;" points="322,116 303,116 303,128 322,128 322,116"/>
</g>
<!-- au3CTP_4_1&#45;&gt;fabric_4_1 -->
<g id="edge187" class="edge"><title>au3CTP_4_1&#45;&gt;fabric_4_1</title>
<path style="fill:none;stroke:white;" d="M316,128C319,134 323,143 327,150"/>
<polygon style="fill:white;stroke:white;" points="328,149 328,153 326,150 328,149"/>
</g>
<!-- au3CTP_4_1&#45;&gt;xp_4_1 -->
<g id="edge221" class="edge"><title>au3CTP_4_1&#45;&gt;xp_4_1</title>
<path style="fill:none;stroke:white;stroke-dasharray:1,5;" d="M316,116C319,109 326,96 329,90"/>
</g>
<!-- au3CTP_4_1&#45;&gt;au3CTP_4_2 -->
<g id="edge258" class="edge"><title>au3CTP_4_1&#45;&gt;au3CTP_4_2</title>
<path style="fill:none;stroke:white;stroke-width:3;" d="M322,122C328,122 335,122 341,122"/>
</g>
<!-- aug_4_1 -->
<g id="node27" class="node"><title>aug_4_1</title>
<polygon style="fill:pink;stroke:pink;" points="301,165 311,165 315,153 297,153 301,165"/>
</g>
<!-- au3CTP_4_1&#45;&gt;aug_4_1 -->
<g id="edge45" class="edge"><title>au3CTP_4_1&#45;&gt;aug_4_1</title>
<path style="fill:none;stroke:white;stroke-dasharray:1,5;" d="M312,128C310,135 308,146 307,153"/>
</g>
<!-- au3CTP_4_2&#45;&gt;fabric_4_1 -->
<g id="edge189" class="edge"><title>au3CTP_4_2&#45;&gt;fabric_4_1</title>
<path style="fill:none;stroke:white;" d="M348,128C344,134 340,143 336,150"/>
<polygon style="fill:white;stroke:white;" points="337,150 335,153 335,149 337,150"/>
</g>
<!-- aug_4_2 -->
<g id="node28" class="node"><title>aug_4_2</title>
<polygon style="fill:pink;stroke:pink;" points="353,165 363,165 368,153 349,153 353,165"/>
</g>
<!-- au3CTP_4_2&#45;&gt;aug_4_2 -->
<g id="edge54" class="edge"><title>au3CTP_4_2&#45;&gt;aug_4_2</title>
<path style="fill:none;stroke:white;stroke-dasharray:1,5;" d="M352,128C353,135 355,146 357,153"/>
</g>
<!-- au3CTP_5_1&#45;&gt;fabric_5_1 -->
<g id="edge193" class="edge"><title>au3CTP_5_1&#45;&gt;fabric_5_1</title>
<path style="fill:none;stroke:white;" d="M473,128C477,134 484,144 490,150"/>
<polygon style="fill:white;stroke:white;" points="491,149 492,153 489,151 491,149"/>
</g>
<!-- aug_5_1 -->
<g id="node29" class="node"><title>aug_5_1</title>
<polygon style="fill:pink;stroke:pink;" points="463,165 473,165 477,153 458,153 463,165"/>
</g>
<!-- au3CTP_5_1&#45;&gt;aug_5_1 -->
<g id="edge65" class="edge"><title>au3CTP_5_1&#45;&gt;aug_5_1</title>
<path style="fill:none;stroke:white;stroke-dasharray:1,5;" d="M468,128C468,135 468,146 468,153"/>
</g>
<!-- prTTP_1_2 -->
<g id="node31" class="node"><title>prTTP_1_2</title>
<polygon style="fill:red;stroke:red;" points="83,202 92,193 73,193 83,202"/>
</g>
<!-- aug_1_2&#45;&gt;prTTP_1_2 -->
<g id="edge25" class="edge"><title>aug_1_2&#45;&gt;prTTP_1_2</title>
<path style="fill:none;stroke:white;stroke-dasharray:1,5;" d="M83,165C83,173 83,187 83,193"/>
</g>
<!-- prTTP_4_1 -->
<g id="node32" class="node"><title>prTTP_4_1</title>
<polygon style="fill:red;stroke:red;" points="305,202 315,193 296,193 305,202"/>
</g>
<!-- aug_4_1&#45;&gt;prTTP_4_1 -->
<g id="edge46" class="edge"><title>aug_4_1&#45;&gt;prTTP_4_1</title>
<path style="fill:none;stroke:white;stroke-dasharray:1,5;" d="M306,165C306,173 305,187 305,193"/>
</g>
<!-- prTTP_4_2 -->
<g id="node33" class="node"><title>prTTP_4_2</title>
<polygon style="fill:red;stroke:red;" points="362,202 372,193 353,193 362,202"/>
</g>
<!-- aug_4_2&#45;&gt;prTTP_4_2 -->
<g id="edge55" class="edge"><title>aug_4_2&#45;&gt;prTTP_4_2</title>
<path style="fill:none;stroke:white;stroke-dasharray:1,5;" d="M359,165C360,173 361,187 362,193"/>
</g>
<!-- prTTP_5_1 -->
<g id="node34" class="node"><title>prTTP_5_1</title>
<polygon style="fill:red;stroke:red;" points="468,202 477,193 458,193 468,202"/>
</g>
<!-- aug_5_1&#45;&gt;prTTP_5_1 -->
<g id="edge66" class="edge"><title>aug_5_1&#45;&gt;prTTP_5_1</title>
<path style="fill:none;stroke:white;stroke-dasharray:1,5;" d="M468,165C468,173 468,187 468,193"/>
</g>
<!-- prTTP_1_2&#45;&gt;prTTP_4_1 -->
<g id="edge79" class="edge"><title>prTTP_1_2&#45;&gt;prTTP_4_1</title>
<path style="fill:none;stroke:white;stroke-dasharray:5,2;" d="M89,196C159,196 229,196 299,196"/>
</g>
<!-- pg_1_2 -->
<g id="node36" class="node"><title>pg_1_2</title>
<polygon style="fill:blue;stroke:blue;" points="121,307 116,301 107,301 102,307 107,313 116,313 121,307"/>
</g>
<!-- prTTP_1_2&#45;&gt;pg_1_2 -->
<g id="edge195" class="edge"><title>prTTP_1_2&#45;&gt;pg_1_2</title>
<path style="fill:none;stroke:white;" d="M86,199C94,203 109,213 114,227 124,251 118,282 114,297"/>
<polygon style="fill:white;stroke:white;" points="115,298 113,301 113,297 115,298"/>
</g>
<!-- pu_1_2 -->
<g id="node41" class="node"><title>pu_1_2</title>
<polygon style="fill:blue;stroke:blue;" points="102,227 92,233 102,239 111,233 102,227"/>
</g>
<!-- prTTP_1_2&#45;&gt;pu_1_2 -->
<g id="edge215" class="edge"><title>prTTP_1_2&#45;&gt;pu_1_2</title>
<path style="fill:none;stroke:white;stroke-dasharray:1,5;" d="M85,200C88,207 95,221 99,228"/>
</g>
<!-- prCTP_1_2 -->
<g id="node46" class="node"><title>prCTP_1_2</title>
<polygon style="fill:green;stroke:green;" points="92,264 73,264 73,276 92,276 92,264"/>
</g>
<!-- prTTP_1_2&#45;&gt;prCTP_1_2 -->
<g id="edge238" class="edge"><title>prTTP_1_2&#45;&gt;prCTP_1_2</title>
<path style="fill:none;stroke:white;stroke-width:3;" d="M83,202C83,217 83,250 83,264"/>
</g>
<!-- prTTP_1_2&#45;&gt;me_1 -->
<g id="edge138" class="edge"><title>prTTP_1_2&#45;&gt;me_1</title>
<path style="fill:none;stroke:white;" d="M80,200C72,210 51,241 50,270 50,270 50,270 50,418 51,441 53,468 56,483"/>
<polygon style="fill:white;stroke:white;" points="57,483 56,487 54,483 57,483"/>
</g>
<!-- pg_4_1 -->
<g id="node37" class="node"><title>pg_4_1</title>
<polygon style="fill:blue;stroke:blue;" points="283,307 278,301 269,301 264,307 269,313 278,313 283,307"/>
</g>
<!-- prTTP_4_1&#45;&gt;pg_4_1 -->
<g id="edge197" class="edge"><title>prTTP_4_1&#45;&gt;pg_4_1</title>
<path style="fill:none;stroke:white;" d="M301,199C294,203 279,213 274,227 264,251 268,282 271,297"/>
<polygon style="fill:white;stroke:white;" points="272,297 272,301 270,298 272,297"/>
</g>
<!-- pu_4_1 -->
<g id="node42" class="node"><title>pu_4_1</title>
<polygon style="fill:blue;stroke:blue;" points="286,227 277,233 286,239 296,233 286,227"/>
</g>
<!-- prTTP_4_1&#45;&gt;pu_4_1 -->
<g id="edge218" class="edge"><title>prTTP_4_1&#45;&gt;pu_4_1</title>
<path style="fill:none;stroke:white;stroke-dasharray:1,5;" d="M303,200C299,207 292,221 289,228"/>
</g>
<!-- prCTP_4_1 -->
<g id="node47" class="node"><title>prCTP_4_1</title>
<polygon style="fill:green;stroke:green;" points="309,264 290,264 290,276 309,276 309,264"/>
</g>
<!-- prTTP_4_1&#45;&gt;prCTP_4_1 -->
<g id="edge252" class="edge"><title>prTTP_4_1&#45;&gt;prCTP_4_1</title>
<path style="fill:none;stroke:white;stroke-width:3;" d="M305,202C304,216 301,250 300,264"/>
</g>
<!-- prTTP_4_1&#45;&gt;me_4 -->
<g id="edge140" class="edge"><title>prTTP_4_1&#45;&gt;me_4</title>
<path style="fill:none;stroke:white;" d="M301,199C293,203 277,214 268,227 257,244 254,250 254,270 254,270 254,270 254,418 254,438 253,446 266,461 279,478 302,487 317,491"/>
<polygon style="fill:white;stroke:white;" points="318,490 321,492 317,492 318,490"/>
</g>
<!-- prTTP_4_2&#45;&gt;prTTP_5_1 -->
<g id="edge81" class="edge"><title>prTTP_4_2&#45;&gt;prTTP_5_1</title>
<path style="fill:none;stroke:white;stroke-dasharray:5,2;" d="M369,196C399,196 430,196 461,196"/>
</g>
<!-- pg_4_2 -->
<g id="node38" class="node"><title>pg_4_2</title>
<polygon style="fill:blue;stroke:blue;" points="412,307 407,301 398,301 393,307 398,313 407,313 412,307"/>
</g>
<!-- prTTP_4_2&#45;&gt;pg_4_2 -->
<g id="edge199" class="edge"><title>prTTP_4_2&#45;&gt;pg_4_2</title>
<path style="fill:none;stroke:white;" d="M366,199C373,203 387,214 394,227 405,250 404,281 403,297"/>
<polygon style="fill:white;stroke:white;" points="404,297 403,301 402,297 404,297"/>
</g>
<!-- pu_4_2 -->
<g id="node43" class="node"><title>pu_4_2</title>
<polygon style="fill:blue;stroke:blue;" points="381,227 372,233 381,239 391,233 381,227"/>
</g>
<!-- prTTP_4_2&#45;&gt;pu_4_2 -->
<g id="edge224" class="edge"><title>prTTP_4_2&#45;&gt;pu_4_2</title>
<path style="fill:none;stroke:white;stroke-dasharray:1,5;" d="M365,200C368,207 375,221 379,228"/>
</g>
<!-- prCTP_4_2 -->
<g id="node48" class="node"><title>prCTP_4_2</title>
<polygon style="fill:green;stroke:green;" points="380,264 361,264 361,276 380,276 380,264"/>
</g>
<!-- prTTP_4_2&#45;&gt;prCTP_4_2 -->
<g id="edge260" class="edge"><title>prTTP_4_2&#45;&gt;prCTP_4_2</title>
<path style="fill:none;stroke:white;stroke-width:3;" d="M363,202C365,215 368,250 370,264"/>
</g>
<!-- prTTP_4_2&#45;&gt;me_4 -->
<g id="edge142" class="edge"><title>prTTP_4_2&#45;&gt;me_4</title>
<path style="fill:none;stroke:white;" d="M361,201C356,212 345,243 345,270 345,270 345,270 345,418 345,442 339,469 335,483"/>
<polygon style="fill:white;stroke:white;" points="336,484 334,487 334,483 336,484"/>
</g>
<!-- pg_5_1 -->
<g id="node39" class="node"><title>pg_5_1</title>
<polygon style="fill:blue;stroke:blue;" points="451,307 446,301 437,301 432,307 437,313 446,313 451,307"/>
</g>
<!-- prTTP_5_1&#45;&gt;pg_5_1 -->
<g id="edge201" class="edge"><title>prTTP_5_1&#45;&gt;pg_5_1</title>
<path style="fill:none;stroke:white;" d="M464,199C457,203 442,213 436,227 426,251 433,282 438,297"/>
<polygon style="fill:white;stroke:white;" points="439,297 439,301 437,298 439,297"/>
</g>
<!-- pu_5_1 -->
<g id="node44" class="node"><title>pu_5_1</title>
<polygon style="fill:blue;stroke:blue;" points="449,227 439,233 449,239 458,233 449,227"/>
</g>
<!-- prTTP_5_1&#45;&gt;pu_5_1 -->
<g id="edge227" class="edge"><title>prTTP_5_1&#45;&gt;pu_5_1</title>
<path style="fill:none;stroke:white;stroke-dasharray:1,5;" d="M466,200C462,207 455,221 451,228"/>
</g>
<!-- prCTP_5_1 -->
<g id="node49" class="node"><title>prCTP_5_1</title>
<polygon style="fill:green;stroke:green;" points="477,264 458,264 458,276 477,276 477,264"/>
</g>
<!-- prTTP_5_1&#45;&gt;prCTP_5_1 -->
<g id="edge266" class="edge"><title>prTTP_5_1&#45;&gt;prCTP_5_1</title>
<path style="fill:none;stroke:white;stroke-width:3;" d="M468,202C468,217 468,250 468,264"/>
</g>
<!-- prTTP_5_1&#45;&gt;me_5 -->
<g id="edge144" class="edge"><title>prTTP_5_1&#45;&gt;me_5</title>
<path style="fill:none;stroke:white;" d="M463,198C455,202 438,213 431,227 400,288 422,313 422,381 422,381 422,381 422,418 422,447 447,472 464,485"/>
<polygon style="fill:white;stroke:white;" points="464,484 466,487 463,486 464,484"/>
</g>
<!-- pg_1_2&#45;&gt;me_1 -->
<g id="edge122" class="edge"><title>pg_1_2&#45;&gt;me_1</title>
<path style="fill:none;stroke:white;" d="M112,313C113,326 115,356 115,381 115,381 115,381 115,418 115,438 114,445 102,461 94,473 81,482 71,487"/>
<polygon style="fill:white;stroke:white;" points="71,489 68,489 70,486 71,489"/>
</g>
<!-- pg_4_1&#45;&gt;me_4 -->
<g id="edge124" class="edge"><title>pg_4_1&#45;&gt;me_4</title>
<path style="fill:none;stroke:white;" d="M273,313C271,326 267,356 267,381 267,381 267,381 267,418 267,438 263,446 274,461 284,477 304,486 317,491"/>
<polygon style="fill:white;stroke:white;" points="318,490 321,492 317,492 318,490"/>
</g>
<!-- pg_4_2&#45;&gt;me_4 -->
<g id="edge126" class="edge"><title>pg_4_2&#45;&gt;me_4</title>
<path style="fill:none;stroke:white;" d="M403,313C405,326 409,356 409,381 409,381 409,381 409,418 409,438 410,446 397,461 384,477 361,487 346,491"/>
<polygon style="fill:white;stroke:white;" points="346,492 342,492 345,490 346,492"/>
</g>
<!-- pg_5_1&#45;&gt;me_5 -->
<g id="edge128" class="edge"><title>pg_5_1&#45;&gt;me_5</title>
<path style="fill:none;stroke:white;" d="M441,313C439,326 436,356 436,381 436,381 436,381 436,418 436,445 455,471 467,484"/>
<polygon style="fill:white;stroke:white;" points="468,483 469,487 466,485 468,483"/>
</g>
<!-- pu_1_2&#45;&gt;pg_1_2 -->
<g id="edge102" class="edge"><title>pu_1_2&#45;&gt;pg_1_2</title>
<path style="fill:none;stroke:white;" d="M102,239C104,252 108,282 110,297"/>
<polygon style="fill:white;stroke:white;" points="111,297 111,301 109,297 111,297"/>
</g>
<!-- pu_1_2&#45;&gt;prCTP_1_2 -->
<g id="edge216" class="edge"><title>pu_1_2&#45;&gt;prCTP_1_2</title>
<path style="fill:none;stroke:white;stroke-dasharray:1,5;" d="M99,238C96,244 89,256 86,264"/>
</g>
<!-- pu_4_1&#45;&gt;pg_4_1 -->
<g id="edge104" class="edge"><title>pu_4_1&#45;&gt;pg_4_1</title>
<path style="fill:none;stroke:white;" d="M285,239C283,251 278,282 275,297"/>
<polygon style="fill:white;stroke:white;" points="277,298 275,301 274,297 277,298"/>
</g>
<!-- pu_4_1&#45;&gt;prCTP_4_1 -->
<g id="edge219" class="edge"><title>pu_4_1&#45;&gt;prCTP_4_1</title>
<path style="fill:none;stroke:white;stroke-dasharray:1,5;" d="M288,238C290,245 295,256 297,264"/>
</g>
<!-- pu_4_2&#45;&gt;pg_4_2 -->
<g id="edge106" class="edge"><title>pu_4_2&#45;&gt;pg_4_2</title>
<path style="fill:none;stroke:white;" d="M383,238C386,251 395,282 399,297"/>
<polygon style="fill:white;stroke:white;" points="401,297 401,301 398,298 401,297"/>
</g>
<!-- pu_4_2&#45;&gt;prCTP_4_2 -->
<g id="edge225" class="edge"><title>pu_4_2&#45;&gt;prCTP_4_2</title>
<path style="fill:none;stroke:white;stroke-dasharray:1,5;" d="M380,238C378,245 375,256 372,264"/>
</g>
<!-- pu_5_1&#45;&gt;pg_5_1 -->
<g id="edge108" class="edge"><title>pu_5_1&#45;&gt;pg_5_1</title>
<path style="fill:none;stroke:white;" d="M448,239C447,252 444,282 443,297"/>
<polygon style="fill:white;stroke:white;" points="444,297 442,301 442,297 444,297"/>
</g>
<!-- pu_5_1&#45;&gt;prCTP_5_1 -->
<g id="edge228" class="edge"><title>pu_5_1&#45;&gt;prCTP_5_1</title>
<path style="fill:none;stroke:white;stroke-dasharray:1,5;" d="M451,238C455,244 461,256 465,264"/>
</g>
<!-- prCTP_1_2&#45;&gt;pg_1_2 -->
<g id="edge203" class="edge"><title>prCTP_1_2&#45;&gt;pg_1_2</title>
<path style="fill:none;stroke:white;" d="M87,276C92,282 99,291 104,298"/>
<polygon style="fill:white;stroke:white;" points="105,297 106,301 103,299 105,297"/>
</g>
<!-- msTTP_1_2 -->
<g id="node51" class="node"><title>msTTP_1_2</title>
<polygon style="fill:red;stroke:red;" points="83,313 92,304 73,304 83,313"/>
</g>
<!-- prCTP_1_2&#45;&gt;msTTP_1_2 -->
<g id="edge27" class="edge"><title>prCTP_1_2&#45;&gt;msTTP_1_2</title>
<path style="fill:none;stroke:white;stroke-dasharray:1,5;" d="M83,276C83,284 83,298 83,304"/>
</g>
<!-- prCTP_4_1&#45;&gt;pg_4_1 -->
<g id="edge205" class="edge"><title>prCTP_4_1&#45;&gt;pg_4_1</title>
<path style="fill:none;stroke:white;" d="M295,276C291,282 284,291 280,298"/>
<polygon style="fill:white;stroke:white;" points="281,299 278,301 279,297 281,299"/>
</g>
<!-- msTTP_4_1 -->
<g id="node52" class="node"><title>msTTP_4_1</title>
<polygon style="fill:red;stroke:red;" points="299,313 308,304 290,304 299,313"/>
</g>
<!-- prCTP_4_1&#45;&gt;msTTP_4_1 -->
<g id="edge48" class="edge"><title>prCTP_4_1&#45;&gt;msTTP_4_1</title>
<path style="fill:none;stroke:white;stroke-dasharray:1,5;" d="M299,276C299,284 299,298 299,304"/>
</g>
<!-- prCTP_4_2&#45;&gt;pg_4_2 -->
<g id="edge207" class="edge"><title>prCTP_4_2&#45;&gt;pg_4_2</title>
<path style="fill:none;stroke:white;" d="M376,276C381,282 389,291 395,298"/>
<polygon style="fill:white;stroke:white;" points="396,298 397,301 394,299 396,298"/>
</g>
<!-- msTTP_4_2 -->
<g id="node53" class="node"><title>msTTP_4_2</title>
<polygon style="fill:red;stroke:red;" points="377,313 386,304 368,304 377,313"/>
</g>
<!-- prCTP_4_2&#45;&gt;msTTP_4_2 -->
<g id="edge57" class="edge"><title>prCTP_4_2&#45;&gt;msTTP_4_2</title>
<path style="fill:none;stroke:white;stroke-dasharray:1,5;" d="M371,276C373,284 375,298 376,304"/>
</g>
<!-- prCTP_5_1&#45;&gt;pg_5_1 -->
<g id="edge209" class="edge"><title>prCTP_5_1&#45;&gt;pg_5_1</title>
<path style="fill:none;stroke:white;" d="M463,276C459,282 453,291 448,298"/>
<polygon style="fill:white;stroke:white;" points="449,299 446,301 447,297 449,299"/>
</g>
<!-- msTTP_5_1 -->
<g id="node54" class="node"><title>msTTP_5_1</title>
<polygon style="fill:red;stroke:red;" points="468,313 477,304 458,304 468,313"/>
</g>
<!-- prCTP_5_1&#45;&gt;msTTP_5_1 -->
<g id="edge68" class="edge"><title>prCTP_5_1&#45;&gt;msTTP_5_1</title>
<path style="fill:none;stroke:white;stroke-dasharray:1,5;" d="M468,276C468,284 468,298 468,304"/>
</g>
<!-- msTTP_1_2&#45;&gt;msTTP_4_1 -->
<g id="edge83" class="edge"><title>msTTP_1_2&#45;&gt;msTTP_4_1</title>
<path style="fill:none;stroke:white;stroke-dasharray:5,2;" d="M85,304C88,299 94,292 102,289 139,274 246,272 283,289 290,292 295,299 297,304"/>
</g>
<!-- msCTP_1_2 -->
<g id="node56" class="node"><title>msCTP_1_2</title>
<polygon style="fill:green;stroke:green;" points="92,338 73,338 73,350 92,350 92,338"/>
</g>
<!-- msTTP_1_2&#45;&gt;msCTP_1_2 -->
<g id="edge240" class="edge"><title>msTTP_1_2&#45;&gt;msCTP_1_2</title>
<path style="fill:none;stroke:white;stroke-width:3;" d="M83,313C83,320 83,331 83,338"/>
</g>
<!-- msTTP_1_2&#45;&gt;me_1 -->
<g id="edge146" class="edge"><title>msTTP_1_2&#45;&gt;me_1</title>
<path style="fill:none;stroke:white;" d="M85,311C87,317 92,328 95,338 100,357 102,362 102,381 102,381 102,381 102,418 102,438 104,445 95,461 89,472 79,480 71,486"/>
<polygon style="fill:white;stroke:white;" points="71,487 68,488 70,485 71,487"/>
</g>
<!-- msCTP_4_1 -->
<g id="node59" class="node"><title>msCTP_4_1</title>
<polygon style="fill:green;stroke:green;" points="302,338 283,338 283,350 302,350 302,338"/>
</g>
<!-- msTTP_4_1&#45;&gt;msCTP_4_1 -->
<g id="edge254" class="edge"><title>msTTP_4_1&#45;&gt;msCTP_4_1</title>
<path style="fill:none;stroke:white;stroke-width:3;" d="M298,312C297,319 295,331 293,338"/>
</g>
<!-- msTTP_4_1&#45;&gt;me_4 -->
<g id="edge148" class="edge"><title>msTTP_4_1&#45;&gt;me_4</title>
<path style="fill:none;stroke:white;" d="M301,312C306,323 318,354 318,381 318,381 318,381 318,418 318,442 325,469 328,483"/>
<polygon style="fill:white;stroke:white;" points="330,483 330,487 327,484 330,483"/>
</g>
<!-- msTTP_4_2&#45;&gt;msTTP_5_1 -->
<g id="edge85" class="edge"><title>msTTP_4_2&#45;&gt;msTTP_5_1</title>
<path style="fill:none;stroke:white;stroke-dasharray:5,2;" d="M379,304C381,299 386,292 393,289 416,278 427,278 451,289 458,292 463,299 466,304"/>
</g>
<!-- msCTP_4_2 -->
<g id="node60" class="node"><title>msCTP_4_2</title>
<polygon style="fill:green;stroke:green;" points="386,338 368,338 368,350 386,350 386,338"/>
</g>
<!-- msTTP_4_2&#45;&gt;msCTP_4_2 -->
<g id="edge262" class="edge"><title>msTTP_4_2&#45;&gt;msCTP_4_2</title>
<path style="fill:none;stroke:white;stroke-width:3;" d="M377,313C377,320 377,331 377,338"/>
</g>
<!-- msTTP_4_2&#45;&gt;me_4 -->
<g id="edge150" class="edge"><title>msTTP_4_2&#45;&gt;me_4</title>
<path style="fill:none;stroke:white;" d="M379,311C382,317 387,328 389,338 394,357 396,362 396,381 396,381 396,381 396,418 396,438 400,446 389,461 379,477 359,486 346,491"/>
<polygon style="fill:white;stroke:white;" points="346,492 342,492 345,490 346,492"/>
</g>
<!-- msCTP_5_1 -->
<g id="node61" class="node"><title>msCTP_5_1</title>
<polygon style="fill:green;stroke:green;" points="477,338 458,338 458,350 477,350 477,338"/>
</g>
<!-- msTTP_5_1&#45;&gt;msCTP_5_1 -->
<g id="edge268" class="edge"><title>msTTP_5_1&#45;&gt;msCTP_5_1</title>
<path style="fill:none;stroke:white;stroke-width:3;" d="M468,313C468,320 468,331 468,338"/>
</g>
<!-- msTTP_5_1&#45;&gt;me_5 -->
<g id="edge152" class="edge"><title>msTTP_5_1&#45;&gt;me_5</title>
<path style="fill:none;stroke:white;" d="M470,311C473,317 477,328 480,338 485,357 487,362 487,381 487,381 487,381 487,418 487,441 482,468 479,483"/>
<polygon style="fill:white;stroke:white;" points="481,484 479,487 478,483 481,484"/>
</g>
<!-- rsTTP_1_2 -->
<g id="node63" class="node"><title>rsTTP_1_2</title>
<polygon style="fill:red;stroke:red;" points="83,387 92,378 73,378 83,387"/>
</g>
<!-- msCTP_1_2&#45;&gt;rsTTP_1_2 -->
<g id="edge29" class="edge"><title>msCTP_1_2&#45;&gt;rsTTP_1_2</title>
<path style="fill:none;stroke:white;stroke-dasharray:1,5;" d="M83,350C83,358 83,372 83,378"/>
</g>
<!-- msCTP_3_1 -->
<g id="node57" class="node"><title>msCTP_3_1</title>
<polygon style="fill:green;stroke:green;" points="193,338 174,338 174,350 193,350 193,338"/>
</g>
<!-- msCTP_3_2 -->
<g id="node58" class="node"><title>msCTP_3_2</title>
<polygon style="fill:green;stroke:green;" points="244,338 226,338 226,350 244,350 244,338"/>
</g>
<!-- msCTP_3_1&#45;&gt;msCTP_3_2 -->
<g id="edge248" class="edge"><title>msCTP_3_1&#45;&gt;msCTP_3_2</title>
<path style="fill:none;stroke:white;stroke-width:3;" d="M193,344C204,344 215,344 226,344"/>
</g>
<!-- rsTTP_3_1 -->
<g id="node64" class="node"><title>rsTTP_3_1</title>
<polygon style="fill:red;stroke:red;" points="184,387 193,378 174,378 184,387"/>
</g>
<!-- msCTP_3_1&#45;&gt;rsTTP_3_1 -->
<g id="edge37" class="edge"><title>msCTP_3_1&#45;&gt;rsTTP_3_1</title>
<path style="fill:none;stroke:white;stroke-dasharray:1,5;" d="M184,350C184,358 184,372 184,378"/>
</g>
<!-- rsTTP_3_2 -->
<g id="node65" class="node"><title>rsTTP_3_2</title>
<polygon style="fill:red;stroke:red;" points="235,387 244,378 226,378 235,387"/>
</g>
<!-- msCTP_3_2&#45;&gt;rsTTP_3_2 -->
<g id="edge41" class="edge"><title>msCTP_3_2&#45;&gt;rsTTP_3_2</title>
<path style="fill:none;stroke:white;stroke-dasharray:1,5;" d="M235,350C235,358 235,372 235,378"/>
</g>
<!-- rsTTP_4_1 -->
<g id="node66" class="node"><title>rsTTP_4_1</title>
<polygon style="fill:red;stroke:red;" points="289,387 299,378 280,378 289,387"/>
</g>
<!-- msCTP_4_1&#45;&gt;rsTTP_4_1 -->
<g id="edge50" class="edge"><title>msCTP_4_1&#45;&gt;rsTTP_4_1</title>
<path style="fill:none;stroke:white;stroke-dasharray:1,5;" d="M292,350C291,358 290,372 290,378"/>
</g>
<!-- rsTTP_4_2 -->
<g id="node67" class="node"><title>rsTTP_4_2</title>
<polygon style="fill:red;stroke:red;" points="377,387 386,378 368,378 377,387"/>
</g>
<!-- msCTP_4_2&#45;&gt;rsTTP_4_2 -->
<g id="edge59" class="edge"><title>msCTP_4_2&#45;&gt;rsTTP_4_2</title>
<path style="fill:none;stroke:white;stroke-dasharray:1,5;" d="M377,350C377,358 377,372 377,378"/>
</g>
<!-- rsTTP_5_1 -->
<g id="node68" class="node"><title>rsTTP_5_1</title>
<polygon style="fill:red;stroke:red;" points="468,387 477,378 458,378 468,387"/>
</g>
<!-- msCTP_5_1&#45;&gt;rsTTP_5_1 -->
<g id="edge70" class="edge"><title>msCTP_5_1&#45;&gt;rsTTP_5_1</title>
<path style="fill:none;stroke:white;stroke-dasharray:1,5;" d="M468,350C468,358 468,372 468,378"/>
</g>
<!-- rsTTP_1_2&#45;&gt;rsTTP_3_1 -->
<g id="edge87" class="edge"><title>rsTTP_1_2&#45;&gt;rsTTP_3_1</title>
<path style="fill:none;stroke:white;stroke-dasharray:5,2;" d="M89,381C118,381 148,381 177,381"/>
</g>
<!-- rsCTP_1_2 -->
<g id="node70" class="node"><title>rsCTP_1_2</title>
<polygon style="fill:green;stroke:green;" points="92,412 73,412 73,424 92,424 92,412"/>
</g>
<!-- rsTTP_1_2&#45;&gt;rsCTP_1_2 -->
<g id="edge242" class="edge"><title>rsTTP_1_2&#45;&gt;rsCTP_1_2</title>
<path style="fill:none;stroke:white;stroke-width:3;" d="M83,387C83,394 83,405 83,412"/>
</g>
<!-- rsTTP_1_2&#45;&gt;me_1 -->
<g id="edge154" class="edge"><title>rsTTP_1_2&#45;&gt;me_1</title>
<path style="fill:none;stroke:white;" d="M80,385C78,391 73,402 70,412 63,437 60,467 58,483"/>
<polygon style="fill:white;stroke:white;" points="59,483 58,487 57,483 59,483"/>
</g>
<!-- rsCTP_3_1 -->
<g id="node73" class="node"><title>rsCTP_3_1</title>
<polygon style="fill:green;stroke:green;" points="193,412 174,412 174,424 193,424 193,412"/>
</g>
<!-- rsTTP_3_1&#45;&gt;rsCTP_3_1 -->
<g id="edge246" class="edge"><title>rsTTP_3_1&#45;&gt;rsCTP_3_1</title>
<path style="fill:none;stroke:white;stroke-width:3;" d="M184,387C184,394 184,405 184,412"/>
</g>
<!-- me_3 -->
<g id="node90" class="node"><title>me_3</title>
<polygon style="fill:lightgrey;stroke:black;" points="219,488 200,488 200,501 219,501 219,488"/>
<polygon style="fill:none;stroke:black;" points="220,487 199,487 199,502 220,502 220,487"/>
</g>
<!-- rsTTP_3_1&#45;&gt;me_3 -->
<g id="edge156" class="edge"><title>rsTTP_3_1&#45;&gt;me_3</title>
<path style="fill:none;stroke:white;" d="M186,385C189,391 193,402 196,412 203,437 207,467 208,483"/>
<polygon style="fill:white;stroke:white;" points="209,483 209,487 207,483 209,483"/>
</g>
<!-- rsTTP_3_2&#45;&gt;rsTTP_4_1 -->
<g id="edge89" class="edge"><title>rsTTP_3_2&#45;&gt;rsTTP_4_1</title>
<path style="fill:none;stroke:white;stroke-dasharray:5,2;" d="M241,381C255,381 269,381 283,381"/>
</g>
<!-- rsCTP_3_2 -->
<g id="node74" class="node"><title>rsCTP_3_2</title>
<polygon style="fill:green;stroke:green;" points="244,412 226,412 226,424 244,424 244,412"/>
</g>
<!-- rsTTP_3_2&#45;&gt;rsCTP_3_2 -->
<g id="edge250" class="edge"><title>rsTTP_3_2&#45;&gt;rsCTP_3_2</title>
<path style="fill:none;stroke:white;stroke-width:3;" d="M235,387C235,394 235,405 235,412"/>
</g>
<!-- rsTTP_3_2&#45;&gt;me_3 -->
<g id="edge158" class="edge"><title>rsTTP_3_2&#45;&gt;me_3</title>
<path style="fill:none;stroke:white;" d="M233,385C230,391 225,402 222,412 216,437 212,467 210,483"/>
<polygon style="fill:white;stroke:white;" points="211,483 210,487 209,483 211,483"/>
</g>
<!-- rsCTP_4_1 -->
<g id="node75" class="node"><title>rsCTP_4_1</title>
<polygon style="fill:green;stroke:green;" points="296,412 277,412 277,424 296,424 296,412"/>
</g>
<!-- rsTTP_4_1&#45;&gt;rsCTP_4_1 -->
<g id="edge256" class="edge"><title>rsTTP_4_1&#45;&gt;rsCTP_4_1</title>
<path style="fill:none;stroke:white;stroke-width:3;" d="M289,387C288,394 287,405 287,412"/>
</g>
<!-- rsTTP_4_1&#45;&gt;me_4 -->
<g id="edge160" class="edge"><title>rsTTP_4_1&#45;&gt;me_4</title>
<path style="fill:none;stroke:white;" d="M291,386C293,392 296,403 299,412 305,434 305,440 314,461 317,469 321,477 325,484"/>
<polygon style="fill:white;stroke:white;" points="326,483 327,487 324,484 326,483"/>
</g>
<!-- rsTTP_4_2&#45;&gt;rsTTP_5_1 -->
<g id="edge91" class="edge"><title>rsTTP_4_2&#45;&gt;rsTTP_5_1</title>
<path style="fill:none;stroke:white;stroke-dasharray:5,2;" d="M383,381C409,381 435,381 461,381"/>
</g>
<!-- rsCTP_4_2 -->
<g id="node76" class="node"><title>rsCTP_4_2</title>
<polygon style="fill:green;stroke:green;" points="386,412 368,412 368,424 386,424 386,412"/>
</g>
<!-- rsTTP_4_2&#45;&gt;rsCTP_4_2 -->
<g id="edge264" class="edge"><title>rsTTP_4_2&#45;&gt;rsCTP_4_2</title>
<path style="fill:none;stroke:white;stroke-width:3;" d="M377,387C377,394 377,405 377,412"/>
</g>
<!-- rsTTP_4_2&#45;&gt;me_4 -->
<g id="edge162" class="edge"><title>rsTTP_4_2&#45;&gt;me_4</title>
<path style="fill:none;stroke:white;" d="M375,386C372,392 368,402 365,412 357,434 358,440 350,461 346,469 342,477 338,484"/>
<polygon style="fill:white;stroke:white;" points="339,484 336,487 337,483 339,484"/>
</g>
<!-- rsCTP_5_1 -->
<g id="node77" class="node"><title>rsCTP_5_1</title>
<polygon style="fill:green;stroke:green;" points="477,412 458,412 458,424 477,424 477,412"/>
</g>
<!-- rsTTP_5_1&#45;&gt;rsCTP_5_1 -->
<g id="edge270" class="edge"><title>rsTTP_5_1&#45;&gt;rsCTP_5_1</title>
<path style="fill:none;stroke:white;stroke-width:3;" d="M468,387C468,394 468,405 468,412"/>
</g>
<!-- rsTTP_5_1&#45;&gt;me_5 -->
<g id="edge164" class="edge"><title>rsTTP_5_1&#45;&gt;me_5</title>
<path style="fill:none;stroke:white;" d="M466,385C463,391 457,402 455,412 451,434 449,441 455,461 458,470 463,478 468,484"/>
<polygon style="fill:white;stroke:white;" points="469,483 470,487 467,485 469,483"/>
</g>
<!-- spiTTP_1_2 -->
<g id="node79" class="node"><title>spiTTP_1_2</title>
<polygon style="fill:red;stroke:red;" points="83,461 92,452 73,452 83,461"/>
</g>
<!-- rsCTP_1_2&#45;&gt;spiTTP_1_2 -->
<g id="edge31" class="edge"><title>rsCTP_1_2&#45;&gt;spiTTP_1_2</title>
<path style="fill:none;stroke:white;stroke-dasharray:1,5;" d="M83,424C83,432 83,446 83,452"/>
</g>
<!-- rsCTP_2_1 -->
<g id="node71" class="node"><title>rsCTP_2_1</title>
<polygon style="fill:green;stroke:green;" points="143,412 124,412 124,424 143,424 143,412"/>
</g>
<!-- rsCTP_2_2 -->
<g id="node72" class="node"><title>rsCTP_2_2</title>
<polygon style="fill:green;stroke:green;" points="168,412 149,412 149,424 168,424 168,412"/>
</g>
<!-- rsCTP_2_1&#45;&gt;rsCTP_2_2 -->
<g id="edge244" class="edge"><title>rsCTP_2_1&#45;&gt;rsCTP_2_2</title>
<path style="fill:none;stroke:white;stroke-width:3;" d="M143,418C145,418 147,418 149,418"/>
</g>
<!-- spiTTP_2_1 -->
<g id="node80" class="node"><title>spiTTP_2_1</title>
<polygon style="fill:red;stroke:red;" points="134,461 143,452 124,452 134,461"/>
</g>
<!-- rsCTP_2_1&#45;&gt;spiTTP_2_1 -->
<g id="edge33" class="edge"><title>rsCTP_2_1&#45;&gt;spiTTP_2_1</title>
<path style="fill:none;stroke:white;stroke-dasharray:1,5;" d="M134,424C134,432 134,446 134,452"/>
</g>
<!-- spiTTP_2_2 -->
<g id="node81" class="node"><title>spiTTP_2_2</title>
<polygon style="fill:red;stroke:red;" points="159,461 168,452 149,452 159,461"/>
</g>
<!-- rsCTP_2_2&#45;&gt;spiTTP_2_2 -->
<g id="edge35" class="edge"><title>rsCTP_2_2&#45;&gt;spiTTP_2_2</title>
<path style="fill:none;stroke:white;stroke-dasharray:1,5;" d="M159,424C159,432 159,446 159,452"/>
</g>
<!-- spiTTP_3_1 -->
<g id="node82" class="node"><title>spiTTP_3_1</title>
<polygon style="fill:red;stroke:red;" points="184,461 193,452 174,452 184,461"/>
</g>
<!-- rsCTP_3_1&#45;&gt;spiTTP_3_1 -->
<g id="edge39" class="edge"><title>rsCTP_3_1&#45;&gt;spiTTP_3_1</title>
<path style="fill:none;stroke:white;stroke-dasharray:1,5;" d="M184,424C184,432 184,446 184,452"/>
</g>
<!-- spiTTP_3_2 -->
<g id="node83" class="node"><title>spiTTP_3_2</title>
<polygon style="fill:red;stroke:red;" points="235,461 244,452 226,452 235,461"/>
</g>
<!-- rsCTP_3_2&#45;&gt;spiTTP_3_2 -->
<g id="edge43" class="edge"><title>rsCTP_3_2&#45;&gt;spiTTP_3_2</title>
<path style="fill:none;stroke:white;stroke-dasharray:1,5;" d="M235,424C235,432 235,446 235,452"/>
</g>
<!-- spiTTP_4_1 -->
<g id="node84" class="node"><title>spiTTP_4_1</title>
<polygon style="fill:red;stroke:red;" points="286,461 296,452 277,452 286,461"/>
</g>
<!-- rsCTP_4_1&#45;&gt;spiTTP_4_1 -->
<g id="edge52" class="edge"><title>rsCTP_4_1&#45;&gt;spiTTP_4_1</title>
<path style="fill:none;stroke:white;stroke-dasharray:1,5;" d="M286,424C286,432 286,446 286,452"/>
</g>
<!-- spiTTP_4_2 -->
<g id="node85" class="node"><title>spiTTP_4_2</title>
<polygon style="fill:red;stroke:red;" points="377,461 386,452 368,452 377,461"/>
</g>
<!-- rsCTP_4_2&#45;&gt;spiTTP_4_2 -->
<g id="edge61" class="edge"><title>rsCTP_4_2&#45;&gt;spiTTP_4_2</title>
<path style="fill:none;stroke:white;stroke-dasharray:1,5;" d="M377,424C377,432 377,446 377,452"/>
</g>
<!-- spiTTP_5_1 -->
<g id="node86" class="node"><title>spiTTP_5_1</title>
<polygon style="fill:red;stroke:red;" points="468,461 477,452 458,452 468,461"/>
</g>
<!-- rsCTP_5_1&#45;&gt;spiTTP_5_1 -->
<g id="edge72" class="edge"><title>rsCTP_5_1&#45;&gt;spiTTP_5_1</title>
<path style="fill:none;stroke:white;stroke-dasharray:1,5;" d="M468,424C468,432 468,446 468,452"/>
</g>
<!-- spiTTP_1_2&#45;&gt;spiTTP_2_1 -->
<g id="edge93" class="edge"><title>spiTTP_1_2&#45;&gt;spiTTP_2_1</title>
<path style="fill:none;stroke:white;stroke-dasharray:5,2;" d="M89,455C102,455 114,455 128,455"/>
</g>
<!-- spiTTP_1_2&#45;&gt;me_1 -->
<g id="edge166" class="edge"><title>spiTTP_1_2&#45;&gt;me_1</title>
<path style="fill:none;stroke:white;" d="M80,459C76,465 69,476 64,484"/>
<polygon style="fill:white;stroke:white;" points="65,484 62,487 63,483 65,484"/>
</g>
<!-- me_2 -->
<g id="node89" class="node"><title>me_2</title>
<polygon style="fill:lightgrey;stroke:black;" points="156,488 137,488 137,501 156,501 156,488"/>
<polygon style="fill:none;stroke:black;" points="157,487 136,487 136,502 157,502 157,487"/>
</g>
<!-- spiTTP_2_1&#45;&gt;me_2 -->
<g id="edge168" class="edge"><title>spiTTP_2_1&#45;&gt;me_2</title>
<path style="fill:none;stroke:white;" d="M135,460C137,466 140,476 143,483"/>
<polygon style="fill:white;stroke:white;" points="144,483 144,487 142,484 144,483"/>
</g>
<!-- spiTTP_2_2&#45;&gt;spiTTP_3_1 -->
<g id="edge95" class="edge"><title>spiTTP_2_2&#45;&gt;spiTTP_3_1</title>
<path style="fill:none;stroke:white;stroke-dasharray:5,2;" d="M165,455C169,455 173,455 177,455"/>
</g>
<!-- spiTTP_2_2&#45;&gt;me_2 -->
<g id="edge170" class="edge"><title>spiTTP_2_2&#45;&gt;me_2</title>
<path style="fill:none;stroke:white;" d="M157,460C156,466 152,476 150,483"/>
<polygon style="fill:white;stroke:white;" points="151,484 149,487 149,483 151,484"/>
</g>
<!-- spiTTP_3_1&#45;&gt;me_3 -->
<g id="edge172" class="edge"><title>spiTTP_3_1&#45;&gt;me_3</title>
<path style="fill:none;stroke:white;" d="M186,459C190,465 197,476 202,484"/>
<polygon style="fill:white;stroke:white;" points="203,483 204,487 201,484 203,483"/>
</g>
<!-- spiTTP_3_2&#45;&gt;spiTTP_4_1 -->
<g id="edge97" class="edge"><title>spiTTP_3_2&#45;&gt;spiTTP_4_1</title>
<path style="fill:none;stroke:white;stroke-dasharray:5,2;" d="M241,455C254,455 267,455 280,455"/>
</g>
<!-- spiTTP_3_2&#45;&gt;me_3 -->
<g id="edge174" class="edge"><title>spiTTP_3_2&#45;&gt;me_3</title>
<path style="fill:none;stroke:white;" d="M233,459C229,465 221,476 216,484"/>
<polygon style="fill:white;stroke:white;" points="217,484 215,487 215,483 217,484"/>
</g>
<!-- spiTTP_4_1&#45;&gt;me_4 -->
<g id="edge176" class="edge"><title>spiTTP_4_1&#45;&gt;me_4</title>
<path style="fill:none;stroke:white;" d="M290,458C296,464 310,476 320,484"/>
<polygon style="fill:white;stroke:white;" points="321,484 323,487 319,485 321,484"/>
</g>
<!-- spiTTP_4_2&#45;&gt;spiTTP_5_1 -->
<g id="edge99" class="edge"><title>spiTTP_4_2&#45;&gt;spiTTP_5_1</title>
<path style="fill:none;stroke:white;stroke-dasharray:5,2;" d="M383,455C409,455 435,455 461,455"/>
</g>
<!-- spiTTP_4_2&#45;&gt;me_4 -->
<g id="edge178" class="edge"><title>spiTTP_4_2&#45;&gt;me_4</title>
<path style="fill:none;stroke:white;" d="M374,458C367,464 353,476 343,484"/>
<polygon style="fill:white;stroke:white;" points="344,485 341,487 342,484 344,485"/>
</g>
<!-- spiTTP_5_1&#45;&gt;me_5 -->
<g id="edge180" class="edge"><title>spiTTP_5_1&#45;&gt;me_5</title>
<path style="fill:none;stroke:white;" d="M469,460C470,466 473,476 474,483"/>
<polygon style="fill:white;stroke:white;" points="475,483 475,487 473,484 475,483"/>
</g>
</g>
</svg>
