<?xml version="1.0" encoding="UTF-8" standalone="no"?>
<!DOCTYPE svg PUBLIC "-//W3C//DTD SVG 1.0//EN"
 "http://www.w3.org/TR/2001/REC-SVG-20010904/DTD/svg10.dtd" [
 <!ATTLIST svg xmlns:xlink CDATA #FIXED "http://www.w3.org/1999/xlink">
]>
<!-- Generated by dot version 2.7.20051025.0440 (Tue Oct 25 07:40:11 UTC 2005)
     For user: (ellson) John Ellson -->
<!-- Title: G Pages: 1 -->
<svg width="438pt" height="312pt"
 viewBox = "0 0 438 312"
 xmlns="http://www.w3.org/2000/svg" xmlns:xlink="http://www.w3.org/1999/xlink">
<g id="graph0" class="graph" style="font-family:Times-Roman;font-size:14.00;">
<title>G</title>
<polygon style="fill:#808080;stroke:#808080;" points="0,312 0,0 438,0 438,312 0,312"/>
<!-- 1 -->
<g id="node2" class="node"><title>1</title>
</g>
<!-- a -->
<g id="node19" class="node"><title>a</title>
<ellipse style="fill:none;stroke:black;" cx="74" cy="16" rx="11" ry="11"/>
</g>
<!-- 1&#45;&gt;a -->
<g id="edge6" class="edge"><title>1&#45;&gt;a</title>
<path style="fill:none;stroke:#0000ff;" d="M27,16C37,16 53,16 63,16"/>
</g>
<!-- 2 -->
<g id="node3" class="node"><title>2</title>
</g>
<!-- b -->
<g id="node20" class="node"><title>b</title>
<ellipse style="fill:none;stroke:black;" cx="74" cy="56" rx="11" ry="11"/>
</g>
<!-- 2&#45;&gt;b -->
<g id="edge11" class="edge"><title>2&#45;&gt;b</title>
<path style="fill:none;stroke:#ff0000;" d="M27,56C37,56 53,56 63,56"/>
</g>
<!-- 3 -->
<g id="node4" class="node"><title>3</title>
</g>
<!-- c -->
<g id="node21" class="node"><title>c</title>
<ellipse style="fill:none;stroke:black;" cx="74" cy="96" rx="11" ry="11"/>
</g>
<!-- 3&#45;&gt;c -->
<g id="edge16" class="edge"><title>3&#45;&gt;c</title>
<path style="fill:none;stroke:#ffff00;" d="M27,96C37,96 53,96 63,96"/>
</g>
<!-- 4 -->
<g id="node5" class="node"><title>4</title>
</g>
<!-- d -->
<g id="node22" class="node"><title>d</title>
<ellipse style="fill:none;stroke:black;" cx="74" cy="136" rx="11" ry="11"/>
</g>
<!-- 4&#45;&gt;d -->
<g id="edge21" class="edge"><title>4&#45;&gt;d</title>
<path style="fill:none;stroke:#00ff00;" d="M27,136C37,136 53,136 63,136"/>
</g>
<!-- 5 -->
<g id="node6" class="node"><title>5</title>
</g>
<!-- e -->
<g id="node23" class="node"><title>e</title>
<ellipse style="fill:none;stroke:black;" cx="74" cy="176" rx="11" ry="11"/>
</g>
<!-- 5&#45;&gt;e -->
<g id="edge26" class="edge"><title>5&#45;&gt;e</title>
<path style="fill:none;stroke:#000000;" d="M27,176C37,176 53,176 63,176"/>
</g>
<!-- 6 -->
<g id="node7" class="node"><title>6</title>
</g>
<!-- f -->
<g id="node24" class="node"><title>f</title>
<ellipse style="fill:none;stroke:black;" cx="74" cy="216" rx="11" ry="11"/>
</g>
<!-- 6&#45;&gt;f -->
<g id="edge31" class="edge"><title>6&#45;&gt;f</title>
<path style="fill:none;stroke:#00ffff;" d="M27,216C37,216 53,216 63,216"/>
</g>
<!-- 7 -->
<g id="node8" class="node"><title>7</title>
</g>
<!-- g -->
<g id="node25" class="node"><title>g</title>
<ellipse style="fill:none;stroke:black;" cx="74" cy="256" rx="11" ry="11"/>
</g>
<!-- 7&#45;&gt;g -->
<g id="edge36" class="edge"><title>7&#45;&gt;g</title>
<path style="fill:none;stroke:#ffffff;" d="M27,256C37,256 53,256 63,256"/>
</g>
<!-- 8 -->
<g id="node9" class="node"><title>8</title>
</g>
<!-- h -->
<g id="node26" class="node"><title>h</title>
<ellipse style="fill:none;stroke:black;" cx="74" cy="296" rx="11" ry="11"/>
</g>
<!-- 8&#45;&gt;h -->
<g id="edge41" class="edge"><title>8&#45;&gt;h</title>
<path style="fill:none;stroke:#ff00ff;" d="M27,296C37,296 53,296 63,296"/>
</g>
<!-- 10 -->
<g id="node10" class="node"><title>10</title>
</g>
<!-- 20 -->
<g id="node11" class="node"><title>20</title>
</g>
<!-- 30 -->
<g id="node12" class="node"><title>30</title>
</g>
<!-- 40 -->
<g id="node13" class="node"><title>40</title>
</g>
<!-- 50 -->
<g id="node14" class="node"><title>50</title>
</g>
<!-- 60 -->
<g id="node15" class="node"><title>60</title>
</g>
<!-- 70 -->
<g id="node16" class="node"><title>70</title>
</g>
<!-- 80 -->
<g id="node17" class="node"><title>80</title>
</g>
<!-- A -->
<g id="node44" class="node"><title>A</title>
<polygon style="fill:none;stroke:black;" points="132,5 121,16 132,27 143,16 132,5"/>
</g>
<!-- a&#45;&gt;A -->
<g id="edge7" class="edge"><title>a&#45;&gt;A</title>
<path style="fill:none;stroke:#0000ff;" d="M85,16C95,16 111,16 121,16"/>
</g>
<!-- B -->
<g id="node45" class="node"><title>B</title>
<polygon style="fill:none;stroke:black;" points="132,45 121,56 132,67 143,56 132,45"/>
</g>
<!-- a&#45;&gt;B -->
<g id="edge8" class="edge"><title>a&#45;&gt;B</title>
<path style="fill:none;stroke:#0000ff;" d="M83,22C94,30 115,44 125,51"/>
</g>
<!-- b&#45;&gt;A -->
<g id="edge12" class="edge"><title>b&#45;&gt;A</title>
<path style="fill:none;stroke:#ff0000;" d="M83,50C94,41 115,28 125,21"/>
</g>
<!-- b&#45;&gt;B -->
<g id="edge13" class="edge"><title>b&#45;&gt;B</title>
<path style="fill:none;stroke:#ff0000;" d="M85,56C95,56 111,56 121,56"/>
</g>
<!-- C -->
<g id="node46" class="node"><title>C</title>
<polygon style="fill:none;stroke:black;" points="132,85 121,96 132,107 143,96 132,85"/>
</g>
<!-- c&#45;&gt;C -->
<g id="edge17" class="edge"><title>c&#45;&gt;C</title>
<path style="fill:none;stroke:#ffff00;" d="M85,96C95,96 111,96 121,96"/>
</g>
<!-- D -->
<g id="node47" class="node"><title>D</title>
<polygon style="fill:none;stroke:black;" points="132,125 121,136 132,147 143,136 132,125"/>
</g>
<!-- c&#45;&gt;D -->
<g id="edge18" class="edge"><title>c&#45;&gt;D</title>
<path style="fill:none;stroke:#ffff00;" d="M83,102C94,110 115,124 125,131"/>
</g>
<!-- d&#45;&gt;C -->
<g id="edge22" class="edge"><title>d&#45;&gt;C</title>
<path style="fill:none;stroke:#00ff00;" d="M83,130C94,121 115,108 125,101"/>
</g>
<!-- d&#45;&gt;D -->
<g id="edge23" class="edge"><title>d&#45;&gt;D</title>
<path style="fill:none;stroke:#00ff00;" d="M85,136C95,136 111,136 121,136"/>
</g>
<!-- E -->
<g id="node48" class="node"><title>E</title>
<polygon style="fill:none;stroke:black;" points="132,165 121,176 132,187 143,176 132,165"/>
</g>
<!-- e&#45;&gt;E -->
<g id="edge27" class="edge"><title>e&#45;&gt;E</title>
<path style="fill:none;stroke:#000000;" d="M85,176C95,176 111,176 121,176"/>
</g>
<!-- F -->
<g id="node49" class="node"><title>F</title>
<polygon style="fill:none;stroke:black;" points="132,205 121,216 132,227 143,216 132,205"/>
</g>
<!-- e&#45;&gt;F -->
<g id="edge28" class="edge"><title>e&#45;&gt;F</title>
<path style="fill:none;stroke:#000000;" d="M83,182C94,190 115,204 125,211"/>
</g>
<!-- f&#45;&gt;E -->
<g id="edge32" class="edge"><title>f&#45;&gt;E</title>
<path style="fill:none;stroke:#00ffff;" d="M83,210C94,201 115,188 125,181"/>
</g>
<!-- f&#45;&gt;F -->
<g id="edge33" class="edge"><title>f&#45;&gt;F</title>
<path style="fill:none;stroke:#00ffff;" d="M85,216C95,216 111,216 121,216"/>
</g>
<!-- G -->
<g id="node50" class="node"><title>G</title>
<polygon style="fill:none;stroke:black;" points="132,245 121,256 132,267 143,256 132,245"/>
</g>
<!-- g&#45;&gt;G -->
<g id="edge37" class="edge"><title>g&#45;&gt;G</title>
<path style="fill:none;stroke:#ffffff;" d="M85,256C95,256 111,256 121,256"/>
</g>
<!-- H -->
<g id="node51" class="node"><title>H</title>
<polygon style="fill:none;stroke:black;" points="132,285 121,296 132,307 143,296 132,285"/>
</g>
<!-- g&#45;&gt;H -->
<g id="edge38" class="edge"><title>g&#45;&gt;H</title>
<path style="fill:none;stroke:#ffffff;" d="M83,262C94,270 115,284 125,291"/>
</g>
<!-- h&#45;&gt;G -->
<g id="edge42" class="edge"><title>h&#45;&gt;G</title>
<path style="fill:none;stroke:#ff00ff;" d="M83,290C94,281 115,268 125,261"/>
</g>
<!-- h&#45;&gt;H -->
<g id="edge43" class="edge"><title>h&#45;&gt;H</title>
<path style="fill:none;stroke:#ff00ff;" d="M85,296C95,296 111,296 121,296"/>
</g>
<!-- i -->
<g id="node27" class="node"><title>i</title>
<ellipse style="fill:none;stroke:black;" cx="190" cy="16" rx="11" ry="11"/>
</g>
<!-- I -->
<g id="node52" class="node"><title>I</title>
<polygon style="fill:none;stroke:black;" points="248,5 237,16 248,27 259,16 248,5"/>
</g>
<!-- i&#45;&gt;I -->
<g id="edge48" class="edge"><title>i&#45;&gt;I</title>
<path style="fill:none;stroke:#ff0000;" d="M201,17C211,17 227,17 237,17"/>
<path style="fill:none;stroke:#0000ff;" d="M201,15C211,15 227,15 237,15"/>
</g>
<!-- K -->
<g id="node54" class="node"><title>K</title>
<polygon style="fill:none;stroke:black;" points="248,45 237,56 248,67 259,56 248,45"/>
</g>
<!-- i&#45;&gt;K -->
<g id="edge49" class="edge"><title>i&#45;&gt;K</title>
<path style="fill:none;stroke:#ff0000;" d="M198,23C209,31 230,45 240,52"/>
<path style="fill:none;stroke:#0000ff;" d="M200,21C211,29 232,43 242,50"/>
</g>
<!-- j -->
<g id="node28" class="node"><title>j</title>
<ellipse style="fill:none;stroke:black;" cx="190" cy="176" rx="11" ry="11"/>
</g>
<!-- J -->
<g id="node53" class="node"><title>J</title>
<polygon style="fill:none;stroke:black;" points="248,165 237,176 248,187 259,176 248,165"/>
</g>
<!-- j&#45;&gt;J -->
<g id="edge53" class="edge"><title>j&#45;&gt;J</title>
<path style="fill:none;stroke:#ff0000;" d="M201,177C211,177 227,177 237,177"/>
<path style="fill:none;stroke:#0000ff;" d="M201,175C211,175 227,175 237,175"/>
</g>
<!-- L -->
<g id="node55" class="node"><title>L</title>
<polygon style="fill:none;stroke:black;" points="248,205 237,216 248,227 259,216 248,205"/>
</g>
<!-- j&#45;&gt;L -->
<g id="edge54" class="edge"><title>j&#45;&gt;L</title>
<path style="fill:none;stroke:#ff0000;" d="M198,183C209,191 230,205 240,212"/>
<path style="fill:none;stroke:#0000ff;" d="M200,181C211,189 232,203 242,210"/>
</g>
<!-- k -->
<g id="node29" class="node"><title>k</title>
<ellipse style="fill:none;stroke:black;" cx="190" cy="56" rx="11" ry="11"/>
</g>
<!-- k&#45;&gt;I -->
<g id="edge59" class="edge"><title>k&#45;&gt;I</title>
<path style="fill:none;stroke:#00ff00;" d="M200,51C211,42 232,29 242,22"/>
<path style="fill:none;stroke:#ffff00;" d="M198,49C209,40 230,27 240,20"/>
</g>
<!-- k&#45;&gt;K -->
<g id="edge60" class="edge"><title>k&#45;&gt;K</title>
<path style="fill:none;stroke:#00ff00;" d="M201,57C211,57 227,57 237,57"/>
<path style="fill:none;stroke:#ffff00;" d="M201,55C211,55 227,55 237,55"/>
</g>
<!-- l -->
<g id="node30" class="node"><title>l</title>
<ellipse style="fill:none;stroke:black;" cx="190" cy="216" rx="11" ry="11"/>
</g>
<!-- l&#45;&gt;J -->
<g id="edge64" class="edge"><title>l&#45;&gt;J</title>
<path style="fill:none;stroke:#00ff00;" d="M200,211C211,202 232,189 242,182"/>
<path style="fill:none;stroke:#ffff00;" d="M198,209C209,200 230,187 240,180"/>
</g>
<!-- l&#45;&gt;L -->
<g id="edge65" class="edge"><title>l&#45;&gt;L</title>
<path style="fill:none;stroke:#00ff00;" d="M201,217C211,217 227,217 237,217"/>
<path style="fill:none;stroke:#ffff00;" d="M201,215C211,215 227,215 237,215"/>
</g>
<!-- m -->
<g id="node31" class="node"><title>m</title>
<ellipse style="fill:none;stroke:black;" cx="190" cy="96" rx="11" ry="11"/>
</g>
<!-- M -->
<g id="node56" class="node"><title>M</title>
<polygon style="fill:none;stroke:black;" points="248,85 237,96 248,107 259,96 248,85"/>
</g>
<!-- m&#45;&gt;M -->
<g id="edge70" class="edge"><title>m&#45;&gt;M</title>
<path style="fill:none;stroke:#00ffff;" d="M201,97C211,97 227,97 237,97"/>
<path style="fill:none;stroke:#000000;" d="M201,95C211,95 227,95 237,95"/>
</g>
<!-- O -->
<g id="node58" class="node"><title>O</title>
<polygon style="fill:none;stroke:black;" points="248,125 237,136 248,147 259,136 248,125"/>
</g>
<!-- m&#45;&gt;O -->
<g id="edge71" class="edge"><title>m&#45;&gt;O</title>
<path style="fill:none;stroke:#00ffff;" d="M198,103C209,111 230,125 240,132"/>
<path style="fill:none;stroke:#000000;" d="M200,101C211,109 232,123 242,130"/>
</g>
<!-- n -->
<g id="node32" class="node"><title>n</title>
<ellipse style="fill:none;stroke:black;" cx="190" cy="256" rx="11" ry="11"/>
</g>
<!-- N -->
<g id="node57" class="node"><title>N</title>
<polygon style="fill:none;stroke:black;" points="248,245 237,256 248,267 259,256 248,245"/>
</g>
<!-- n&#45;&gt;N -->
<g id="edge75" class="edge"><title>n&#45;&gt;N</title>
<path style="fill:none;stroke:#00ffff;" d="M201,257C211,257 227,257 237,257"/>
<path style="fill:none;stroke:#000000;" d="M201,255C211,255 227,255 237,255"/>
</g>
<!-- P -->
<g id="node59" class="node"><title>P</title>
<polygon style="fill:none;stroke:black;" points="248,285 237,296 248,307 259,296 248,285"/>
</g>
<!-- n&#45;&gt;P -->
<g id="edge76" class="edge"><title>n&#45;&gt;P</title>
<path style="fill:none;stroke:#00ffff;" d="M198,263C209,271 230,285 240,292"/>
<path style="fill:none;stroke:#000000;" d="M200,261C211,269 232,283 242,290"/>
</g>
<!-- o -->
<g id="node33" class="node"><title>o</title>
<ellipse style="fill:none;stroke:black;" cx="190" cy="136" rx="11" ry="11"/>
</g>
<!-- o&#45;&gt;M -->
<g id="edge81" class="edge"><title>o&#45;&gt;M</title>
<path style="fill:none;stroke:#ff00ff;" d="M200,131C211,122 232,109 242,102"/>
<path style="fill:none;stroke:#ffffff;" d="M198,129C209,120 230,107 240,100"/>
</g>
<!-- o&#45;&gt;O -->
<g id="edge82" class="edge"><title>o&#45;&gt;O</title>
<path style="fill:none;stroke:#ff00ff;" d="M201,137C211,137 227,137 237,137"/>
<path style="fill:none;stroke:#ffffff;" d="M201,135C211,135 227,135 237,135"/>
</g>
<!-- p -->
<g id="node34" class="node"><title>p</title>
<ellipse style="fill:none;stroke:black;" cx="190" cy="296" rx="11" ry="11"/>
</g>
<!-- p&#45;&gt;N -->
<g id="edge86" class="edge"><title>p&#45;&gt;N</title>
<path style="fill:none;stroke:#ff00ff;" d="M200,291C211,282 232,269 242,262"/>
<path style="fill:none;stroke:#ffffff;" d="M198,289C209,280 230,267 240,260"/>
</g>
<!-- p&#45;&gt;P -->
<g id="edge87" class="edge"><title>p&#45;&gt;P</title>
<path style="fill:none;stroke:#ff00ff;" d="M201,297C211,297 227,297 237,297"/>
<path style="fill:none;stroke:#ffffff;" d="M201,295C211,295 227,295 237,295"/>
</g>
<!-- q -->
<g id="node35" class="node"><title>q</title>
<ellipse style="fill:none;stroke:black;" cx="306" cy="16" rx="11" ry="11"/>
</g>
<!-- Q -->
<g id="node60" class="node"><title>Q</title>
<polygon style="fill:none;stroke:black;" points="364,5 353,16 364,27 375,16 364,5"/>
</g>
<!-- q&#45;&gt;Q -->
<g id="edge92" class="edge"><title>q&#45;&gt;Q</title>
<path style="fill:none;stroke:#00ff00;" d="M317,19C327,19 343,19 353,19"/>
<path style="fill:none;stroke:#ffff00;" d="M317,17C327,17 343,17 353,17"/>
<path style="fill:none;stroke:#ff0000;" d="M317,15C327,15 343,15 353,15"/>
<path style="fill:none;stroke:#0000ff;" d="M317,13C327,13 343,13 353,13"/>
</g>
<!-- U -->
<g id="node64" class="node"><title>U</title>
<polygon style="fill:none;stroke:black;" points="364,45 353,56 364,67 375,56 364,45"/>
</g>
<!-- q&#45;&gt;U -->
<g id="edge93" class="edge"><title>q&#45;&gt;U</title>
<path style="fill:none;stroke:#00ff00;" d="M313,24C324,32 345,46 355,53"/>
<path style="fill:none;stroke:#ffff00;" d="M314,23C325,31 346,45 356,52"/>
<path style="fill:none;stroke:#ff0000;" d="M316,21C327,29 348,43 358,50"/>
<path style="fill:none;stroke:#0000ff;" d="M317,20C328,28 349,42 359,49"/>
</g>
<!-- r -->
<g id="node36" class="node"><title>r</title>
<ellipse style="fill:none;stroke:black;" cx="306" cy="176" rx="11" ry="11"/>
</g>
<!-- R -->
<g id="node61" class="node"><title>R</title>
<polygon style="fill:none;stroke:black;" points="364,165 353,176 364,187 375,176 364,165"/>
</g>
<!-- r&#45;&gt;R -->
<g id="edge97" class="edge"><title>r&#45;&gt;R</title>
<path style="fill:none;stroke:#00ff00;" d="M317,179C327,179 343,179 353,179"/>
<path style="fill:none;stroke:#ffff00;" d="M317,177C327,177 343,177 353,177"/>
<path style="fill:none;stroke:#ff0000;" d="M317,175C327,175 343,175 353,175"/>
<path style="fill:none;stroke:#0000ff;" d="M317,173C327,173 343,173 353,173"/>
</g>
<!-- V -->
<g id="node65" class="node"><title>V</title>
<polygon style="fill:none;stroke:black;" points="364,205 353,216 364,227 375,216 364,205"/>
</g>
<!-- r&#45;&gt;V -->
<g id="edge98" class="edge"><title>r&#45;&gt;V</title>
<path style="fill:none;stroke:#00ff00;" d="M313,184C324,192 345,206 355,213"/>
<path style="fill:none;stroke:#ffff00;" d="M314,183C325,191 346,205 356,212"/>
<path style="fill:none;stroke:#ff0000;" d="M316,181C327,189 348,203 358,210"/>
<path style="fill:none;stroke:#0000ff;" d="M317,180C328,188 349,202 359,209"/>
</g>
<!-- s -->
<g id="node37" class="node"><title>s</title>
<ellipse style="fill:none;stroke:black;" cx="306" cy="96" rx="11" ry="11"/>
</g>
<!-- S -->
<g id="node62" class="node"><title>S</title>
<polygon style="fill:none;stroke:black;" points="364,85 353,96 364,107 375,96 364,85"/>
</g>
<!-- s&#45;&gt;S -->
<g id="edge102" class="edge"><title>s&#45;&gt;S</title>
<path style="fill:none;stroke:#00ff00;" d="M317,99C327,99 343,99 353,99"/>
<path style="fill:none;stroke:#ffff00;" d="M317,97C327,97 343,97 353,97"/>
<path style="fill:none;stroke:#ff0000;" d="M317,95C327,95 343,95 353,95"/>
<path style="fill:none;stroke:#0000ff;" d="M317,93C327,93 343,93 353,93"/>
</g>
<!-- W -->
<g id="node66" class="node"><title>W</title>
<polygon style="fill:none;stroke:black;" points="364,125 353,136 364,147 375,136 364,125"/>
</g>
<!-- s&#45;&gt;W -->
<g id="edge103" class="edge"><title>s&#45;&gt;W</title>
<path style="fill:none;stroke:#00ff00;" d="M313,104C324,112 345,126 355,133"/>
<path style="fill:none;stroke:#ffff00;" d="M314,103C325,111 346,125 356,132"/>
<path style="fill:none;stroke:#ff0000;" d="M316,101C327,109 348,123 358,130"/>
<path style="fill:none;stroke:#0000ff;" d="M317,100C328,108 349,122 359,129"/>
</g>
<!-- t -->
<g id="node38" class="node"><title>t</title>
<ellipse style="fill:none;stroke:black;" cx="306" cy="256" rx="11" ry="11"/>
</g>
<!-- T -->
<g id="node63" class="node"><title>T</title>
<polygon style="fill:none;stroke:black;" points="364,245 353,256 364,267 375,256 364,245"/>
</g>
<!-- t&#45;&gt;T -->
<g id="edge107" class="edge"><title>t&#45;&gt;T</title>
<path style="fill:none;stroke:#00ff00;" d="M317,259C327,259 343,259 353,259"/>
<path style="fill:none;stroke:#ffff00;" d="M317,257C327,257 343,257 353,257"/>
<path style="fill:none;stroke:#ff0000;" d="M317,255C327,255 343,255 353,255"/>
<path style="fill:none;stroke:#0000ff;" d="M317,253C327,253 343,253 353,253"/>
</g>
<!-- X -->
<g id="node67" class="node"><title>X</title>
<polygon style="fill:none;stroke:black;" points="364,285 353,296 364,307 375,296 364,285"/>
</g>
<!-- t&#45;&gt;X -->
<g id="edge108" class="edge"><title>t&#45;&gt;X</title>
<path style="fill:none;stroke:#00ff00;" d="M313,264C324,272 345,286 355,293"/>
<path style="fill:none;stroke:#ffff00;" d="M314,263C325,271 346,285 356,292"/>
<path style="fill:none;stroke:#ff0000;" d="M316,261C327,269 348,283 358,290"/>
<path style="fill:none;stroke:#0000ff;" d="M317,260C328,268 349,282 359,289"/>
</g>
<!-- u -->
<g id="node39" class="node"><title>u</title>
<ellipse style="fill:none;stroke:black;" cx="306" cy="56" rx="11" ry="11"/>
</g>
<!-- u&#45;&gt;Q -->
<g id="edge113" class="edge"><title>u&#45;&gt;Q</title>
<path style="fill:none;stroke:#ff00ff;" d="M317,52C328,44 349,31 359,23"/>
<path style="fill:none;stroke:#ffffff;" d="M316,51C327,42 348,29 358,22"/>
<path style="fill:none;stroke:#00ffff;" d="M314,49C325,40 346,27 356,20"/>
<path style="fill:none;stroke:#000000;" d="M313,48C324,38 345,25 355,19"/>
</g>
<!-- u&#45;&gt;U -->
<g id="edge114" class="edge"><title>u&#45;&gt;U</title>
<path style="fill:none;stroke:#ff00ff;" d="M317,59C327,59 343,59 353,59"/>
<path style="fill:none;stroke:#ffffff;" d="M317,57C327,57 343,57 353,57"/>
<path style="fill:none;stroke:#00ffff;" d="M317,55C327,55 343,55 353,55"/>
<path style="fill:none;stroke:#000000;" d="M317,53C327,53 343,53 353,53"/>
</g>
<!-- v -->
<g id="node40" class="node"><title>v</title>
<ellipse style="fill:none;stroke:black;" cx="306" cy="216" rx="11" ry="11"/>
</g>
<!-- v&#45;&gt;R -->
<g id="edge118" class="edge"><title>v&#45;&gt;R</title>
<path style="fill:none;stroke:#ff00ff;" d="M317,212C328,204 349,191 359,183"/>
<path style="fill:none;stroke:#ffffff;" d="M316,211C327,202 348,189 358,182"/>
<path style="fill:none;stroke:#00ffff;" d="M314,209C325,200 346,187 356,180"/>
<path style="fill:none;stroke:#000000;" d="M313,208C324,198 345,185 355,179"/>
</g>
<!-- v&#45;&gt;V -->
<g id="edge119" class="edge"><title>v&#45;&gt;V</title>
<path style="fill:none;stroke:#ff00ff;" d="M317,219C327,219 343,219 353,219"/>
<path style="fill:none;stroke:#ffffff;" d="M317,217C327,217 343,217 353,217"/>
<path style="fill:none;stroke:#00ffff;" d="M317,215C327,215 343,215 353,215"/>
<path style="fill:none;stroke:#000000;" d="M317,213C327,213 343,213 353,213"/>
</g>
<!-- w -->
<g id="node41" class="node"><title>w</title>
<ellipse style="fill:none;stroke:black;" cx="306" cy="136" rx="11" ry="11"/>
</g>
<!-- w&#45;&gt;S -->
<g id="edge123" class="edge"><title>w&#45;&gt;S</title>
<path style="fill:none;stroke:#ff00ff;" d="M317,132C328,124 349,111 359,103"/>
<path style="fill:none;stroke:#ffffff;" d="M316,131C327,122 348,109 358,102"/>
<path style="fill:none;stroke:#00ffff;" d="M314,129C325,120 346,107 356,100"/>
<path style="fill:none;stroke:#000000;" d="M313,128C324,118 345,105 355,99"/>
</g>
<!-- w&#45;&gt;W -->
<g id="edge124" class="edge"><title>w&#45;&gt;W</title>
<path style="fill:none;stroke:#ff00ff;" d="M317,139C327,139 343,139 353,139"/>
<path style="fill:none;stroke:#ffffff;" d="M317,137C327,137 343,137 353,137"/>
<path style="fill:none;stroke:#00ffff;" d="M317,135C327,135 343,135 353,135"/>
<path style="fill:none;stroke:#000000;" d="M317,133C327,133 343,133 353,133"/>
</g>
<!-- x -->
<g id="node42" class="node"><title>x</title>
<ellipse style="fill:none;stroke:black;" cx="306" cy="296" rx="11" ry="11"/>
</g>
<!-- x&#45;&gt;T -->
<g id="edge128" class="edge"><title>x&#45;&gt;T</title>
<path style="fill:none;stroke:#ff00ff;" d="M317,292C328,284 349,271 359,263"/>
<path style="fill:none;stroke:#ffffff;" d="M316,291C327,282 348,269 358,262"/>
<path style="fill:none;stroke:#00ffff;" d="M314,289C325,280 346,267 356,260"/>
<path style="fill:none;stroke:#000000;" d="M313,288C324,278 345,265 355,259"/>
</g>
<!-- x&#45;&gt;X -->
<g id="edge129" class="edge"><title>x&#45;&gt;X</title>
<path style="fill:none;stroke:#ff00ff;" d="M317,299C327,299 343,299 353,299"/>
<path style="fill:none;stroke:#ffffff;" d="M317,297C327,297 343,297 353,297"/>
<path style="fill:none;stroke:#00ffff;" d="M317,295C327,295 343,295 353,295"/>
<path style="fill:none;stroke:#000000;" d="M317,293C327,293 343,293 353,293"/>
</g>
<!-- A&#45;&gt;i -->
<g id="edge47" class="edge"><title>A&#45;&gt;i</title>
<path style="fill:none;stroke:#ff0000;" d="M143,17C153,17 169,17 179,17"/>
<path style="fill:none;stroke:#0000ff;" d="M143,15C153,15 169,15 179,15"/>
</g>
<!-- B&#45;&gt;j -->
<g id="edge52" class="edge"><title>B&#45;&gt;j</title>
<path style="fill:none;stroke:#ff0000;" d="M135,63C137,68 140,73 142,76 160,111 161,122 178,156 180,161 182,164 183,166"/>
<path style="fill:none;stroke:#0000ff;" d="M137,63C139,66 142,71 144,76 162,111 163,122 180,156 182,159 184,162 185,166"/>
</g>
<!-- C&#45;&gt;k -->
<g id="edge58" class="edge"><title>C&#45;&gt;k</title>
<path style="fill:none;stroke:#00ff00;" d="M140,92C150,85 170,71 182,63"/>
<path style="fill:none;stroke:#ffff00;" d="M138,90C148,83 168,69 180,61"/>
</g>
<!-- D&#45;&gt;l -->
<g id="edge63" class="edge"><title>D&#45;&gt;l</title>
<path style="fill:none;stroke:#00ff00;" d="M136,144C146,158 171,192 183,208"/>
<path style="fill:none;stroke:#ffff00;" d="M138,142C148,156 173,190 185,206"/>
</g>
<!-- E&#45;&gt;m -->
<g id="edge69" class="edge"><title>E&#45;&gt;m</title>
<path style="fill:none;stroke:#00ffff;" d="M138,170C148,156 173,122 185,106"/>
<path style="fill:none;stroke:#000000;" d="M136,168C146,154 171,120 183,104"/>
</g>
<!-- F&#45;&gt;n -->
<g id="edge74" class="edge"><title>F&#45;&gt;n</title>
<path style="fill:none;stroke:#00ffff;" d="M138,222C148,229 168,243 180,251"/>
<path style="fill:none;stroke:#000000;" d="M140,220C150,227 170,241 182,249"/>
</g>
<!-- G&#45;&gt;o -->
<g id="edge80" class="edge"><title>G&#45;&gt;o</title>
<path style="fill:none;stroke:#ff00ff;" d="M137,250C140,245 142,241 144,236 162,202 163,191 180,156 182,153 184,149 186,147"/>
<path style="fill:none;stroke:#ffffff;" d="M135,248C138,245 140,241 142,236 160,202 161,191 178,156 180,153 182,149 184,145"/>
</g>
<!-- H&#45;&gt;p -->
<g id="edge85" class="edge"><title>H&#45;&gt;p</title>
<path style="fill:none;stroke:#ff00ff;" d="M143,297C153,297 169,297 179,297"/>
<path style="fill:none;stroke:#ffffff;" d="M143,295C153,295 169,295 179,295"/>
</g>
<!-- I&#45;&gt;q -->
<g id="edge91" class="edge"><title>I&#45;&gt;q</title>
<path style="fill:none;stroke:#00ff00;" d="M259,19C269,19 285,19 295,19"/>
<path style="fill:none;stroke:#ffff00;" d="M259,17C269,17 285,17 295,17"/>
<path style="fill:none;stroke:#ff0000;" d="M259,15C269,15 285,15 295,15"/>
<path style="fill:none;stroke:#0000ff;" d="M259,13C269,13 285,13 295,13"/>
</g>
<!-- J&#45;&gt;r -->
<g id="edge96" class="edge"><title>J&#45;&gt;r</title>
<path style="fill:none;stroke:#00ff00;" d="M259,179C269,179 285,179 295,179"/>
<path style="fill:none;stroke:#ffff00;" d="M259,177C269,177 285,177 295,177"/>
<path style="fill:none;stroke:#ff0000;" d="M259,175C269,175 285,175 295,175"/>
<path style="fill:none;stroke:#0000ff;" d="M259,173C269,173 285,173 295,173"/>
</g>
<!-- K&#45;&gt;s -->
<g id="edge101" class="edge"><title>K&#45;&gt;s</title>
<path style="fill:none;stroke:#00ff00;" d="M253,63C263,70 283,84 295,92"/>
<path style="fill:none;stroke:#ffff00;" d="M254,62C264,69 284,83 296,91"/>
<path style="fill:none;stroke:#ff0000;" d="M256,60C266,67 286,81 298,89"/>
<path style="fill:none;stroke:#0000ff;" d="M257,59C267,66 287,80 299,88"/>
</g>
<!-- L&#45;&gt;t -->
<g id="edge106" class="edge"><title>L&#45;&gt;t</title>
<path style="fill:none;stroke:#00ff00;" d="M253,223C263,230 283,244 295,252"/>
<path style="fill:none;stroke:#ffff00;" d="M254,222C264,229 284,243 296,251"/>
<path style="fill:none;stroke:#ff0000;" d="M256,220C266,227 286,241 298,249"/>
<path style="fill:none;stroke:#0000ff;" d="M257,219C267,226 287,240 299,248"/>
</g>
<!-- M&#45;&gt;u -->
<g id="edge112" class="edge"><title>M&#45;&gt;u</title>
<path style="fill:none;stroke:#ff00ff;" d="M257,93C267,86 287,72 299,64"/>
<path style="fill:none;stroke:#ffffff;" d="M256,92C266,85 286,71 298,63"/>
<path style="fill:none;stroke:#00ffff;" d="M254,90C264,83 284,69 296,61"/>
<path style="fill:none;stroke:#000000;" d="M253,89C263,82 283,68 295,60"/>
</g>
<!-- N&#45;&gt;v -->
<g id="edge117" class="edge"><title>N&#45;&gt;v</title>
<path style="fill:none;stroke:#ff00ff;" d="M257,253C267,246 287,232 299,224"/>
<path style="fill:none;stroke:#ffffff;" d="M256,252C266,245 286,231 298,223"/>
<path style="fill:none;stroke:#00ffff;" d="M254,250C264,243 284,229 296,221"/>
<path style="fill:none;stroke:#000000;" d="M253,249C263,242 283,228 295,220"/>
</g>
<!-- O&#45;&gt;w -->
<g id="edge122" class="edge"><title>O&#45;&gt;w</title>
<path style="fill:none;stroke:#ff00ff;" d="M259,139C269,139 285,139 295,139"/>
<path style="fill:none;stroke:#ffffff;" d="M259,137C269,137 285,137 295,137"/>
<path style="fill:none;stroke:#00ffff;" d="M259,135C269,135 285,135 295,135"/>
<path style="fill:none;stroke:#000000;" d="M259,133C269,133 285,133 295,133"/>
</g>
<!-- P&#45;&gt;x -->
<g id="edge127" class="edge"><title>P&#45;&gt;x</title>
<path style="fill:none;stroke:#ff00ff;" d="M259,299C269,299 285,299 295,299"/>
<path style="fill:none;stroke:#ffffff;" d="M259,297C269,297 285,297 295,297"/>
<path style="fill:none;stroke:#00ffff;" d="M259,295C269,295 285,295 295,295"/>
<path style="fill:none;stroke:#000000;" d="M259,293C269,293 285,293 295,293"/>
</g>
<!-- Q&#45;&gt;10 -->
<g id="edge132" class="edge"><title>Q&#45;&gt;10</title>
<path style="fill:none;stroke:#ff00ff;" d="M375,23C385,23 401,23 411,23"/>
<path style="fill:none;stroke:#ffffff;" d="M375,21C385,21 401,21 411,21"/>
<path style="fill:none;stroke:#00ffff;" d="M375,19C385,19 401,19 411,19"/>
<path style="fill:none;stroke:#000000;" d="M375,17C385,17 401,17 411,17"/>
<path style="fill:none;stroke:#00ff00;" d="M375,15C385,15 401,15 411,15"/>
<path style="fill:none;stroke:#ffff00;" d="M375,13C385,13 401,13 411,13"/>
<path style="fill:none;stroke:#ff0000;" d="M375,11C385,11 401,11 411,11"/>
<path style="fill:none;stroke:#0000ff;" d="M375,9C385,9 401,9 411,9"/>
</g>
<!-- R&#45;&gt;20 -->
<g id="edge134" class="edge"><title>R&#45;&gt;20</title>
<path style="fill:none;stroke:#ff00ff;" d="M375,183C385,183 401,183 411,183"/>
<path style="fill:none;stroke:#ffffff;" d="M375,181C385,181 401,181 411,181"/>
<path style="fill:none;stroke:#00ffff;" d="M375,179C385,179 401,179 411,179"/>
<path style="fill:none;stroke:#000000;" d="M375,177C385,177 401,177 411,177"/>
<path style="fill:none;stroke:#00ff00;" d="M375,175C385,175 401,175 411,175"/>
<path style="fill:none;stroke:#ffff00;" d="M375,173C385,173 401,173 411,173"/>
<path style="fill:none;stroke:#ff0000;" d="M375,171C385,171 401,171 411,171"/>
<path style="fill:none;stroke:#0000ff;" d="M375,169C385,169 401,169 411,169"/>
</g>
<!-- S&#45;&gt;30 -->
<g id="edge136" class="edge"><title>S&#45;&gt;30</title>
<path style="fill:none;stroke:#ff00ff;" d="M375,103C385,103 401,103 411,103"/>
<path style="fill:none;stroke:#ffffff;" d="M375,101C385,101 401,101 411,101"/>
<path style="fill:none;stroke:#00ffff;" d="M375,99C385,99 401,99 411,99"/>
<path style="fill:none;stroke:#000000;" d="M375,97C385,97 401,97 411,97"/>
<path style="fill:none;stroke:#00ff00;" d="M375,95C385,95 401,95 411,95"/>
<path style="fill:none;stroke:#ffff00;" d="M375,93C385,93 401,93 411,93"/>
<path style="fill:none;stroke:#ff0000;" d="M375,91C385,91 401,91 411,91"/>
<path style="fill:none;stroke:#0000ff;" d="M375,89C385,89 401,89 411,89"/>
</g>
<!-- T&#45;&gt;40 -->
<g id="edge138" class="edge"><title>T&#45;&gt;40</title>
<path style="fill:none;stroke:#ff00ff;" d="M375,263C385,263 401,263 411,263"/>
<path style="fill:none;stroke:#ffffff;" d="M375,261C385,261 401,261 411,261"/>
<path style="fill:none;stroke:#00ffff;" d="M375,259C385,259 401,259 411,259"/>
<path style="fill:none;stroke:#000000;" d="M375,257C385,257 401,257 411,257"/>
<path style="fill:none;stroke:#00ff00;" d="M375,255C385,255 401,255 411,255"/>
<path style="fill:none;stroke:#ffff00;" d="M375,253C385,253 401,253 411,253"/>
<path style="fill:none;stroke:#ff0000;" d="M375,251C385,251 401,251 411,251"/>
<path style="fill:none;stroke:#0000ff;" d="M375,249C385,249 401,249 411,249"/>
</g>
<!-- U&#45;&gt;50 -->
<g id="edge140" class="edge"><title>U&#45;&gt;50</title>
<path style="fill:none;stroke:#ff00ff;" d="M375,63C385,63 401,63 411,63"/>
<path style="fill:none;stroke:#ffffff;" d="M375,61C385,61 401,61 411,61"/>
<path style="fill:none;stroke:#00ffff;" d="M375,59C385,59 401,59 411,59"/>
<path style="fill:none;stroke:#000000;" d="M375,57C385,57 401,57 411,57"/>
<path style="fill:none;stroke:#00ff00;" d="M375,55C385,55 401,55 411,55"/>
<path style="fill:none;stroke:#ffff00;" d="M375,53C385,53 401,53 411,53"/>
<path style="fill:none;stroke:#ff0000;" d="M375,51C385,51 401,51 411,51"/>
<path style="fill:none;stroke:#0000ff;" d="M375,49C385,49 401,49 411,49"/>
</g>
<!-- V&#45;&gt;60 -->
<g id="edge142" class="edge"><title>V&#45;&gt;60</title>
<path style="fill:none;stroke:#ff00ff;" d="M375,223C385,223 401,223 411,223"/>
<path style="fill:none;stroke:#ffffff;" d="M375,221C385,221 401,221 411,221"/>
<path style="fill:none;stroke:#00ffff;" d="M375,219C385,219 401,219 411,219"/>
<path style="fill:none;stroke:#000000;" d="M375,217C385,217 401,217 411,217"/>
<path style="fill:none;stroke:#00ff00;" d="M375,215C385,215 401,215 411,215"/>
<path style="fill:none;stroke:#ffff00;" d="M375,213C385,213 401,213 411,213"/>
<path style="fill:none;stroke:#ff0000;" d="M375,211C385,211 401,211 411,211"/>
<path style="fill:none;stroke:#0000ff;" d="M375,209C385,209 401,209 411,209"/>
</g>
<!-- W&#45;&gt;70 -->
<g id="edge144" class="edge"><title>W&#45;&gt;70</title>
<path style="fill:none;stroke:#ff00ff;" d="M375,143C385,143 401,143 411,143"/>
<path style="fill:none;stroke:#ffffff;" d="M375,141C385,141 401,141 411,141"/>
<path style="fill:none;stroke:#00ffff;" d="M375,139C385,139 401,139 411,139"/>
<path style="fill:none;stroke:#000000;" d="M375,137C385,137 401,137 411,137"/>
<path style="fill:none;stroke:#00ff00;" d="M375,135C385,135 401,135 411,135"/>
<path style="fill:none;stroke:#ffff00;" d="M375,133C385,133 401,133 411,133"/>
<path style="fill:none;stroke:#ff0000;" d="M375,131C385,131 401,131 411,131"/>
<path style="fill:none;stroke:#0000ff;" d="M375,129C385,129 401,129 411,129"/>
</g>
<!-- X&#45;&gt;80 -->
<g id="edge146" class="edge"><title>X&#45;&gt;80</title>
<path style="fill:none;stroke:#ff00ff;" d="M375,303C385,303 401,303 411,303"/>
<path style="fill:none;stroke:#ffffff;" d="M375,301C385,301 401,301 411,301"/>
<path style="fill:none;stroke:#00ffff;" d="M375,299C385,299 401,299 411,299"/>
<path style="fill:none;stroke:#000000;" d="M375,297C385,297 401,297 411,297"/>
<path style="fill:none;stroke:#00ff00;" d="M375,295C385,295 401,295 411,295"/>
<path style="fill:none;stroke:#ffff00;" d="M375,293C385,293 401,293 411,293"/>
<path style="fill:none;stroke:#ff0000;" d="M375,291C385,291 401,291 411,291"/>
<path style="fill:none;stroke:#0000ff;" d="M375,289C385,289 401,289 411,289"/>
</g>
</g>
</svg>
