<?xml version="1.0" encoding="UTF-8" standalone="no"?>
<!DOCTYPE svg PUBLIC "-//W3C//DTD SVG 1.0//EN"
 "http://www.w3.org/TR/2001/REC-SVG-20010904/DTD/svg10.dtd" [
 <!ATTLIST svg xmlns:xlink CDATA #FIXED "http://www.w3.org/1999/xlink">
]>
<!-- Generated by dot version 2.7.20051025.0440 (Tue Oct 25 07:40:11 UTC 2005)
     For user: (ellson) John Ellson -->
<!-- Title: unix Pages: 1 -->
<svg width="437pt" height="366pt"
 viewBox = "0 0 437 366"
 xmlns="http://www.w3.org/2000/svg" xmlns:xlink="http://www.w3.org/1999/xlink">
<g id="graph0" class="graph" style="font-family:Times-Roman;font-size:14.00;">
<title>unix</title>
<!-- 5th Edition -->
<g id="node1" class="node"><title>5th Edition</title>
<ellipse style="fill:#b2dfee;stroke:#b2dfee;" cx="262" cy="11" rx="21" ry="8"/>
<text text-anchor="middle" x="262" y="14" style="font-size:6.68;">5th Edition</text>
</g>
<!-- 6th Edition -->
<g id="node3" class="node"><title>6th Edition</title>
<ellipse style="fill:#b2dfee;stroke:#b2dfee;" cx="193" cy="46" rx="21" ry="8"/>
<text text-anchor="middle" x="193" y="48" style="font-size:6.68;">6th Edition</text>
</g>
<!-- 5th Edition&#45;&gt;6th Edition -->
<g id="edge2" class="edge"><title>5th Edition&#45;&gt;6th Edition</title>
<path style="fill:none;stroke:black;" d="M248,18C238,24 223,31 211,36"/>
<polygon style="fill:black;stroke:black;" points="212,38 207,39 210,35 212,38"/>
</g>
<!-- PWB 1.0 -->
<g id="node5" class="node"><title>PWB 1.0</title>
<ellipse style="fill:#b2dfee;stroke:#b2dfee;" cx="304" cy="46" rx="18" ry="8"/>
<text text-anchor="middle" x="304" y="48" style="font-size:6.68;">PWB 1.0</text>
</g>
<!-- 5th Edition&#45;&gt;PWB 1.0 -->
<g id="edge4" class="edge"><title>5th Edition&#45;&gt;PWB 1.0</title>
<path style="fill:none;stroke:black;" d="M271,19C277,24 285,30 291,35"/>
<polygon style="fill:black;stroke:black;" points="292,34 295,38 290,36 292,34"/>
</g>
<!-- LSX -->
<g id="node7" class="node"><title>LSX</title>
<ellipse style="fill:#b2dfee;stroke:#b2dfee;" cx="264" cy="80" rx="12" ry="8"/>
<text text-anchor="middle" x="264" y="82" style="font-size:6.68;">LSX</text>
</g>
<!-- 6th Edition&#45;&gt;LSX -->
<g id="edge6" class="edge"><title>6th Edition&#45;&gt;LSX</title>
<path style="fill:none;stroke:black;" d="M207,52C218,57 234,65 247,71 248,72 248,72 249,72"/>
<polygon style="fill:black;stroke:black;" points="250,71 254,75 249,74 250,71"/>
</g>
<!-- 1 BSD -->
<g id="node9" class="node"><title>1 BSD</title>
<ellipse style="fill:#b2dfee;stroke:#b2dfee;" cx="71" cy="80" rx="15" ry="8"/>
<text text-anchor="middle" x="71" y="82" style="font-size:6.68;">1 BSD</text>
</g>
<!-- 6th Edition&#45;&gt;1 BSD -->
<g id="edge8" class="edge"><title>6th Edition&#45;&gt;1 BSD</title>
<path style="fill:none;stroke:black;" d="M175,50C156,55 125,63 98,71 95,72 92,73 89,74"/>
<polygon style="fill:black;stroke:black;" points="90,76 85,76 89,73 90,76"/>
</g>
<!-- Mini Unix -->
<g id="node11" class="node"><title>Mini Unix</title>
<ellipse style="fill:#b2dfee;stroke:#b2dfee;" cx="168" cy="80" rx="20" ry="8"/>
<text text-anchor="middle" x="168" y="82" style="font-size:6.68;">Mini Unix</text>
</g>
<!-- 6th Edition&#45;&gt;Mini Unix -->
<g id="edge10" class="edge"><title>6th Edition&#45;&gt;Mini Unix</title>
<path style="fill:none;stroke:black;" d="M187,54C184,58 180,63 177,68"/>
<polygon style="fill:black;stroke:black;" points="178,69 174,72 175,67 178,69"/>
</g>
<!-- Wollongong -->
<g id="node13" class="node"><title>Wollongong</title>
<ellipse style="fill:#b2dfee;stroke:#b2dfee;" cx="220" cy="80" rx="22" ry="8"/>
<text text-anchor="middle" x="220" y="82" style="font-size:6.68;">Wollongong</text>
</g>
<!-- 6th Edition&#45;&gt;Wollongong -->
<g id="edge12" class="edge"><title>6th Edition&#45;&gt;Wollongong</title>
<path style="fill:none;stroke:black;" d="M200,54C203,58 207,63 211,68"/>
<polygon style="fill:black;stroke:black;" points="212,67 213,72 209,69 212,67"/>
</g>
<!-- Interdata -->
<g id="node15" class="node"><title>Interdata</title>
<ellipse style="fill:#b2dfee;stroke:#b2dfee;" cx="120" cy="80" rx="18" ry="8"/>
<text text-anchor="middle" x="120" y="82" style="font-size:6.68;">Interdata</text>
</g>
<!-- 6th Edition&#45;&gt;Interdata -->
<g id="edge14" class="edge"><title>6th Edition&#45;&gt;Interdata</title>
<path style="fill:none;stroke:black;" d="M180,52C168,58 150,66 138,72"/>
<polygon style="fill:black;stroke:black;" points="139,73 133,74 137,70 139,73"/>
</g>
<!-- PWB 1.2 -->
<g id="node59" class="node"><title>PWB 1.2</title>
<ellipse style="fill:#b2dfee;stroke:#b2dfee;" cx="304" cy="80" rx="18" ry="8"/>
<text text-anchor="middle" x="304" y="82" style="font-size:6.68;">PWB 1.2</text>
</g>
<!-- PWB 1.0&#45;&gt;PWB 1.2 -->
<g id="edge62" class="edge"><title>PWB 1.0&#45;&gt;PWB 1.2</title>
<path style="fill:none;stroke:black;" d="M304,54C304,58 304,62 304,67"/>
<polygon style="fill:black;stroke:black;" points="306,67 304,71 303,67 306,67"/>
</g>
<!-- USG 1.0 -->
<g id="node61" class="node"><title>USG 1.0</title>
<ellipse style="fill:#b2dfee;stroke:#b2dfee;" cx="350" cy="80" rx="18" ry="8"/>
<text text-anchor="middle" x="350" y="82" style="font-size:6.68;">USG 1.0</text>
</g>
<!-- PWB 1.0&#45;&gt;USG 1.0 -->
<g id="edge64" class="edge"><title>PWB 1.0&#45;&gt;USG 1.0</title>
<path style="fill:none;stroke:black;" d="M314,53C320,58 329,65 336,70"/>
<polygon style="fill:black;stroke:black;" points="337,68 340,73 335,71 337,68"/>
</g>
<!-- 2 BSD -->
<g id="node38" class="node"><title>2 BSD</title>
<ellipse style="fill:#b2dfee;stroke:#b2dfee;" cx="44" cy="252" rx="15" ry="8"/>
<text text-anchor="middle" x="44" y="254" style="font-size:6.68;">2 BSD</text>
</g>
<!-- 1 BSD&#45;&gt;2 BSD -->
<g id="edge38" class="edge"><title>1 BSD&#45;&gt;2 BSD</title>
<path style="fill:none;stroke:black;" d="M66,88C60,101 49,126 49,149 49,149 49,149 49,183 49,203 47,225 45,238"/>
<polygon style="fill:black;stroke:black;" points="46,238 45,243 44,238 46,238"/>
</g>
<!-- Unix/TS 3.0 -->
<g id="node17" class="node"><title>Unix/TS 3.0</title>
<ellipse style="fill:#b2dfee;stroke:#b2dfee;" cx="283" cy="183" rx="22" ry="8"/>
<text text-anchor="middle" x="283" y="185" style="font-size:6.68;">Unix/TS 3.0</text>
</g>
<!-- Interdata&#45;&gt;Unix/TS 3.0 -->
<g id="edge16" class="edge"><title>Interdata&#45;&gt;Unix/TS 3.0</title>
<path style="fill:none;stroke:black;" d="M131,87C149,98 185,121 215,140 234,151 254,164 267,173"/>
<polygon style="fill:black;stroke:black;" points="268,172 272,175 267,174 268,172"/>
</g>
<!-- PWB 2.0 -->
<g id="node19" class="node"><title>PWB 2.0</title>
<ellipse style="fill:#b2dfee;stroke:#b2dfee;" cx="259" cy="114" rx="18" ry="8"/>
<text text-anchor="middle" x="259" y="117" style="font-size:6.68;">PWB 2.0</text>
</g>
<!-- Interdata&#45;&gt;PWB 2.0 -->
<g id="edge18" class="edge"><title>Interdata&#45;&gt;PWB 2.0</title>
<path style="fill:none;stroke:black;" d="M134,86C137,87 140,88 143,88 182,100 194,96 234,106 235,106 237,107 239,108"/>
<polygon style="fill:black;stroke:black;" points="240,106 244,109 239,109 240,106"/>
</g>
<!-- 7th Edition -->
<g id="node21" class="node"><title>7th Edition</title>
<ellipse style="fill:#b2dfee;stroke:#b2dfee;" cx="120" cy="114" rx="21" ry="8"/>
<text text-anchor="middle" x="120" y="117" style="font-size:6.68;">7th Edition</text>
</g>
<!-- Interdata&#45;&gt;7th Edition -->
<g id="edge20" class="edge"><title>Interdata&#45;&gt;7th Edition</title>
<path style="fill:none;stroke:black;" d="M120,88C120,92 120,97 120,101"/>
<polygon style="fill:black;stroke:black;" points="122,101 120,106 119,101 122,101"/>
</g>
<!-- TS 4.0 -->
<g id="node82" class="node"><title>TS 4.0</title>
<ellipse style="fill:#b2dfee;stroke:#b2dfee;" cx="319" cy="252" rx="15" ry="8"/>
<text text-anchor="middle" x="319" y="254" style="font-size:6.68;">TS 4.0</text>
</g>
<!-- Unix/TS 3.0&#45;&gt;TS 4.0 -->
<g id="edge88" class="edge"><title>Unix/TS 3.0&#45;&gt;TS 4.0</title>
<path style="fill:none;stroke:black;" d="M287,192C294,204 305,225 312,239"/>
<polygon style="fill:black;stroke:black;" points="314,238 315,243 311,240 314,238"/>
</g>
<!-- PWB 2.0&#45;&gt;Unix/TS 3.0 -->
<g id="edge84" class="edge"><title>PWB 2.0&#45;&gt;Unix/TS 3.0</title>
<path style="fill:none;stroke:black;" d="M258,123C257,132 256,146 261,157 263,162 266,168 270,172"/>
<polygon style="fill:black;stroke:black;" points="271,170 274,175 269,172 271,170"/>
</g>
<!-- 8th Edition -->
<g id="node23" class="node"><title>8th Edition</title>
<ellipse style="fill:#b2dfee;stroke:#b2dfee;" cx="213" cy="286" rx="21" ry="8"/>
<text text-anchor="middle" x="213" y="288" style="font-size:6.68;">8th Edition</text>
</g>
<!-- 7th Edition&#45;&gt;8th Edition -->
<g id="edge22" class="edge"><title>7th Edition&#45;&gt;8th Edition</title>
<path style="fill:none;stroke:black;" d="M139,118C160,123 192,131 200,140 213,155 209,164 209,183 209,183 209,183 209,217 209,237 210,259 212,273"/>
<polygon style="fill:black;stroke:black;" points="213,273 212,278 210,273 213,273"/>
</g>
<!-- 32V -->
<g id="node25" class="node"><title>32V</title>
<ellipse style="fill:#b2dfee;stroke:#b2dfee;" cx="182" cy="149" rx="12" ry="8"/>
<text text-anchor="middle" x="182" y="151" style="font-size:6.68;">32V</text>
</g>
<!-- 7th Edition&#45;&gt;32V -->
<g id="edge24" class="edge"><title>7th Edition&#45;&gt;32V</title>
<path style="fill:none;stroke:black;" d="M133,121C143,127 157,135 168,141"/>
<polygon style="fill:black;stroke:black;" points="169,139 172,143 168,142 169,139"/>
</g>
<!-- V7M -->
<g id="node27" class="node"><title>V7M</title>
<ellipse style="fill:#b2dfee;stroke:#b2dfee;" cx="16" cy="183" rx="13" ry="8"/>
<text text-anchor="middle" x="16" y="185" style="font-size:6.68;">V7M</text>
</g>
<!-- 7th Edition&#45;&gt;V7M -->
<g id="edge26" class="edge"><title>7th Edition&#45;&gt;V7M</title>
<path style="fill:none;stroke:black;" d="M105,120C94,125 78,132 66,140 51,150 36,163 26,172"/>
<polygon style="fill:black;stroke:black;" points="28,173 23,176 25,171 28,173"/>
</g>
<!-- Ultrix&#45;11 -->
<g id="node29" class="node"><title>Ultrix&#45;11</title>
<ellipse style="fill:#b2dfee;stroke:#b2dfee;" cx="58" cy="320" rx="18" ry="8"/>
<text text-anchor="middle" x="58" y="323" style="font-size:6.68;">Ultrix&#45;11</text>
</g>
<!-- 7th Edition&#45;&gt;Ultrix&#45;11 -->
<g id="edge28" class="edge"><title>7th Edition&#45;&gt;Ultrix&#45;11</title>
<path style="fill:none;stroke:black;" d="M106,120C97,125 87,131 81,140 70,156 72,164 72,183 72,183 72,183 72,252 72,272 67,294 63,307"/>
<polygon style="fill:black;stroke:black;" points="64,308 61,312 61,307 64,308"/>
</g>
<!-- Xenix -->
<g id="node31" class="node"><title>Xenix</title>
<ellipse style="fill:#b2dfee;stroke:#b2dfee;" cx="100" cy="149" rx="14" ry="8"/>
<text text-anchor="middle" x="100" y="151" style="font-size:6.68;">Xenix</text>
</g>
<!-- 7th Edition&#45;&gt;Xenix -->
<g id="edge30" class="edge"><title>7th Edition&#45;&gt;Xenix</title>
<path style="fill:none;stroke:black;" d="M115,123C113,127 110,132 107,136"/>
<polygon style="fill:black;stroke:black;" points="108,137 105,141 106,136 108,137"/>
</g>
<!-- UniPlus+ -->
<g id="node33" class="node"><title>UniPlus+</title>
<ellipse style="fill:#b2dfee;stroke:#b2dfee;" cx="142" cy="149" rx="19" ry="8"/>
<text text-anchor="middle" x="142" y="151" style="font-size:6.68;">UniPlus+</text>
</g>
<!-- 7th Edition&#45;&gt;UniPlus+ -->
<g id="edge32" class="edge"><title>7th Edition&#45;&gt;UniPlus+</title>
<path style="fill:none;stroke:black;" d="M126,123C128,127 131,131 134,136"/>
<polygon style="fill:black;stroke:black;" points="136,135 137,140 133,137 136,135"/>
</g>
<!-- 9th Edition -->
<g id="node36" class="node"><title>9th Edition</title>
<ellipse style="fill:#b2dfee;stroke:#b2dfee;" cx="241" cy="320" rx="21" ry="8"/>
<text text-anchor="middle" x="241" y="323" style="font-size:6.68;">9th Edition</text>
</g>
<!-- 8th Edition&#45;&gt;9th Edition -->
<g id="edge36" class="edge"><title>8th Edition&#45;&gt;9th Edition</title>
<path style="fill:none;stroke:black;" d="M220,294C224,299 228,304 232,309"/>
<polygon style="fill:black;stroke:black;" points="233,308 234,312 230,309 233,308"/>
</g>
<!-- 3 BSD -->
<g id="node45" class="node"><title>3 BSD</title>
<ellipse style="fill:#b2dfee;stroke:#b2dfee;" cx="177" cy="183" rx="15" ry="8"/>
<text text-anchor="middle" x="177" y="185" style="font-size:6.68;">3 BSD</text>
</g>
<!-- 32V&#45;&gt;3 BSD -->
<g id="edge46" class="edge"><title>32V&#45;&gt;3 BSD</title>
<path style="fill:none;stroke:black;" d="M181,157C181,161 180,165 179,170"/>
<polygon style="fill:black;stroke:black;" points="181,170 179,174 178,170 181,170"/>
</g>
<!-- V7M&#45;&gt;Ultrix&#45;11 -->
<g id="edge34" class="edge"><title>V7M&#45;&gt;Ultrix&#45;11</title>
<path style="fill:none;stroke:black;" d="M16,192C15,206 16,236 24,260 30,278 41,297 49,309"/>
<polygon style="fill:black;stroke:black;" points="51,308 52,312 48,309 51,308"/>
</g>
<!-- 2.8 BSD -->
<g id="node40" class="node"><title>2.8 BSD</title>
<ellipse style="fill:#b2dfee;stroke:#b2dfee;" cx="103" cy="286" rx="17" ry="8"/>
<text text-anchor="middle" x="103" y="288" style="font-size:6.68;">2.8 BSD</text>
</g>
<!-- 2 BSD&#45;&gt;2.8 BSD -->
<g id="edge40" class="edge"><title>2 BSD&#45;&gt;2.8 BSD</title>
<path style="fill:none;stroke:black;" d="M55,258C64,263 77,271 87,277"/>
<polygon style="fill:black;stroke:black;" points="88,276 92,279 87,278 88,276"/>
</g>
<!-- 2.8 BSD&#45;&gt;Ultrix&#45;11 -->
<g id="edge42" class="edge"><title>2.8 BSD&#45;&gt;Ultrix&#45;11</title>
<path style="fill:none;stroke:black;" d="M94,293C87,298 79,305 72,310"/>
<polygon style="fill:black;stroke:black;" points="73,311 68,313 71,309 73,311"/>
</g>
<!-- 2.9 BSD -->
<g id="node43" class="node"><title>2.9 BSD</title>
<ellipse style="fill:#b2dfee;stroke:#b2dfee;" cx="103" cy="320" rx="17" ry="8"/>
<text text-anchor="middle" x="103" y="323" style="font-size:6.68;">2.9 BSD</text>
</g>
<!-- 2.8 BSD&#45;&gt;2.9 BSD -->
<g id="edge44" class="edge"><title>2.8 BSD&#45;&gt;2.9 BSD</title>
<path style="fill:none;stroke:black;" d="M103,295C103,299 103,303 103,307"/>
<polygon style="fill:black;stroke:black;" points="105,307 103,312 102,307 105,307"/>
</g>
<!-- 4 BSD -->
<g id="node47" class="node"><title>4 BSD</title>
<ellipse style="fill:#b2dfee;stroke:#b2dfee;" cx="172" cy="217" rx="15" ry="8"/>
<text text-anchor="middle" x="172" y="220" style="font-size:6.68;">4 BSD</text>
</g>
<!-- 3 BSD&#45;&gt;4 BSD -->
<g id="edge48" class="edge"><title>3 BSD&#45;&gt;4 BSD</title>
<path style="fill:none;stroke:black;" d="M176,192C175,195 174,200 174,204"/>
<polygon style="fill:black;stroke:black;" points="175,204 173,209 172,204 175,204"/>
</g>
<!-- 4.1 BSD -->
<g id="node49" class="node"><title>4.1 BSD</title>
<ellipse style="fill:#b2dfee;stroke:#b2dfee;" cx="170" cy="252" rx="17" ry="8"/>
<text text-anchor="middle" x="170" y="254" style="font-size:6.68;">4.1 BSD</text>
</g>
<!-- 4 BSD&#45;&gt;4.1 BSD -->
<g id="edge50" class="edge"><title>4 BSD&#45;&gt;4.1 BSD</title>
<path style="fill:none;stroke:black;" d="M171,226C171,230 171,234 171,238"/>
<polygon style="fill:black;stroke:black;" points="172,238 170,243 169,238 172,238"/>
</g>
<!-- 4.1 BSD&#45;&gt;8th Edition -->
<g id="edge56" class="edge"><title>4.1 BSD&#45;&gt;8th Edition</title>
<path style="fill:none;stroke:black;" d="M179,259C185,264 193,270 200,276"/>
<polygon style="fill:black;stroke:black;" points="201,274 203,278 199,277 201,274"/>
</g>
<!-- 4.1 BSD&#45;&gt;2.8 BSD -->
<g id="edge54" class="edge"><title>4.1 BSD&#45;&gt;2.8 BSD</title>
<path style="fill:none;stroke:black;" d="M158,258C147,264 131,272 120,278"/>
<polygon style="fill:black;stroke:black;" points="120,279 116,280 119,276 120,279"/>
</g>
<!-- 4.2 BSD -->
<g id="node51" class="node"><title>4.2 BSD</title>
<ellipse style="fill:#b2dfee;stroke:#b2dfee;" cx="166" cy="286" rx="17" ry="8"/>
<text text-anchor="middle" x="166" y="288" style="font-size:6.68;">4.2 BSD</text>
</g>
<!-- 4.1 BSD&#45;&gt;4.2 BSD -->
<g id="edge52" class="edge"><title>4.1 BSD&#45;&gt;4.2 BSD</title>
<path style="fill:none;stroke:black;" d="M169,260C168,264 168,268 167,273"/>
<polygon style="fill:black;stroke:black;" points="169,273 167,278 166,273 169,273"/>
</g>
<!-- 4.3 BSD -->
<g id="node55" class="node"><title>4.3 BSD</title>
<ellipse style="fill:#b2dfee;stroke:#b2dfee;" cx="194" cy="320" rx="17" ry="8"/>
<text text-anchor="middle" x="194" y="323" style="font-size:6.68;">4.3 BSD</text>
</g>
<!-- 4.2 BSD&#45;&gt;4.3 BSD -->
<g id="edge58" class="edge"><title>4.2 BSD&#45;&gt;4.3 BSD</title>
<path style="fill:none;stroke:black;" d="M172,294C176,299 181,304 184,309"/>
<polygon style="fill:black;stroke:black;" points="186,308 187,312 183,309 186,308"/>
</g>
<!-- Ultrix&#45;32 -->
<g id="node57" class="node"><title>Ultrix&#45;32</title>
<ellipse style="fill:#b2dfee;stroke:#b2dfee;" cx="149" cy="320" rx="19" ry="8"/>
<text text-anchor="middle" x="149" y="323" style="font-size:6.68;">Ultrix&#45;32</text>
</g>
<!-- 4.2 BSD&#45;&gt;Ultrix&#45;32 -->
<g id="edge60" class="edge"><title>4.2 BSD&#45;&gt;Ultrix&#45;32</title>
<path style="fill:none;stroke:black;" d="M161,295C160,299 157,303 155,308"/>
<polygon style="fill:black;stroke:black;" points="156,308 153,312 153,307 156,308"/>
</g>
<!-- PWB 1.2&#45;&gt;PWB 2.0 -->
<g id="edge66" class="edge"><title>PWB 1.2&#45;&gt;PWB 2.0</title>
<path style="fill:none;stroke:black;" d="M294,88C288,92 279,99 272,104"/>
<polygon style="fill:black;stroke:black;" points="273,106 268,107 271,103 273,106"/>
</g>
<!-- CB Unix 1 -->
<g id="node64" class="node"><title>CB Unix 1</title>
<ellipse style="fill:#b2dfee;stroke:#b2dfee;" cx="371" cy="114" rx="20" ry="8"/>
<text text-anchor="middle" x="371" y="117" style="font-size:6.68;">CB Unix 1</text>
</g>
<!-- USG 1.0&#45;&gt;CB Unix 1 -->
<g id="edge68" class="edge"><title>USG 1.0&#45;&gt;CB Unix 1</title>
<path style="fill:none;stroke:black;" d="M355,88C357,92 361,97 363,102"/>
<polygon style="fill:black;stroke:black;" points="364,101 365,106 361,103 364,101"/>
</g>
<!-- USG 2.0 -->
<g id="node66" class="node"><title>USG 2.0</title>
<ellipse style="fill:#b2dfee;stroke:#b2dfee;" cx="317" cy="114" rx="18" ry="8"/>
<text text-anchor="middle" x="317" y="117" style="font-size:6.68;">USG 2.0</text>
</g>
<!-- USG 1.0&#45;&gt;USG 2.0 -->
<g id="edge70" class="edge"><title>USG 1.0&#45;&gt;USG 2.0</title>
<path style="fill:none;stroke:black;" d="M342,88C338,92 332,98 328,103"/>
<polygon style="fill:black;stroke:black;" points="329,104 324,106 327,101 329,104"/>
</g>
<!-- CB Unix 2 -->
<g id="node68" class="node"><title>CB Unix 2</title>
<ellipse style="fill:#b2dfee;stroke:#b2dfee;" cx="384" cy="149" rx="20" ry="8"/>
<text text-anchor="middle" x="384" y="151" style="font-size:6.68;">CB Unix 2</text>
</g>
<!-- CB Unix 1&#45;&gt;CB Unix 2 -->
<g id="edge72" class="edge"><title>CB Unix 1&#45;&gt;CB Unix 2</title>
<path style="fill:none;stroke:black;" d="M374,123C375,127 377,131 379,135"/>
<polygon style="fill:black;stroke:black;" points="381,135 381,140 377,136 381,135"/>
</g>
<!-- USG 3.0 -->
<g id="node76" class="node"><title>USG 3.0</title>
<ellipse style="fill:#b2dfee;stroke:#b2dfee;" cx="283" cy="149" rx="18" ry="8"/>
<text text-anchor="middle" x="283" y="151" style="font-size:6.68;">USG 3.0</text>
</g>
<!-- USG 2.0&#45;&gt;USG 3.0 -->
<g id="edge80" class="edge"><title>USG 2.0&#45;&gt;USG 3.0</title>
<path style="fill:none;stroke:black;" d="M309,122C305,127 299,132 294,137"/>
<polygon style="fill:black;stroke:black;" points="296,138 291,141 293,136 296,138"/>
</g>
<!-- CB Unix 3 -->
<g id="node70" class="node"><title>CB Unix 3</title>
<ellipse style="fill:#b2dfee;stroke:#b2dfee;" cx="378" cy="183" rx="20" ry="8"/>
<text text-anchor="middle" x="378" y="185" style="font-size:6.68;">CB Unix 3</text>
</g>
<!-- CB Unix 2&#45;&gt;CB Unix 3 -->
<g id="edge74" class="edge"><title>CB Unix 2&#45;&gt;CB Unix 3</title>
<path style="fill:none;stroke:black;" d="M382,157C382,161 381,165 380,170"/>
<polygon style="fill:black;stroke:black;" points="382,170 379,174 379,170 382,170"/>
</g>
<!-- Unix/TS++ -->
<g id="node72" class="node"><title>Unix/TS++</title>
<ellipse style="fill:#b2dfee;stroke:#b2dfee;" cx="354" cy="217" rx="21" ry="8"/>
<text text-anchor="middle" x="354" y="220" style="font-size:6.68;">Unix/TS++</text>
</g>
<!-- CB Unix 3&#45;&gt;Unix/TS++ -->
<g id="edge76" class="edge"><title>CB Unix 3&#45;&gt;Unix/TS++</title>
<path style="fill:none;stroke:black;" d="M372,191C369,195 365,201 362,205"/>
<polygon style="fill:black;stroke:black;" points="364,206 360,209 361,204 364,206"/>
</g>
<!-- PDP&#45;11 Sys V -->
<g id="node74" class="node"><title>PDP&#45;11 Sys V</title>
<ellipse style="fill:#b2dfee;stroke:#b2dfee;" cx="409" cy="217" rx="25" ry="8"/>
<text text-anchor="middle" x="409" y="220" style="font-size:6.68;">PDP&#45;11 Sys V</text>
</g>
<!-- CB Unix 3&#45;&gt;PDP&#45;11 Sys V -->
<g id="edge78" class="edge"><title>CB Unix 3&#45;&gt;PDP&#45;11 Sys V</title>
<path style="fill:none;stroke:black;" d="M385,191C389,195 394,201 398,205"/>
<polygon style="fill:black;stroke:black;" points="399,204 402,209 397,206 399,204"/>
</g>
<!-- CB Unix 3&#45;&gt;TS 4.0 -->
<g id="edge92" class="edge"><title>CB Unix 3&#45;&gt;TS 4.0</title>
<path style="fill:none;stroke:black;" d="M361,188C350,192 336,198 328,209 322,217 320,229 319,238"/>
<polygon style="fill:black;stroke:black;" points="321,238 319,243 318,238 321,238"/>
</g>
<!-- Unix/TS++&#45;&gt;TS 4.0 -->
<g id="edge90" class="edge"><title>Unix/TS++&#45;&gt;TS 4.0</title>
<path style="fill:none;stroke:black;" d="M346,225C341,230 335,236 330,241"/>
<polygon style="fill:black;stroke:black;" points="331,242 327,244 329,239 331,242"/>
</g>
<!-- USG 3.0&#45;&gt;Unix/TS 3.0 -->
<g id="edge82" class="edge"><title>USG 3.0&#45;&gt;Unix/TS 3.0</title>
<path style="fill:none;stroke:black;" d="M283,157C283,161 283,165 283,170"/>
<polygon style="fill:black;stroke:black;" points="285,170 283,174 282,170 285,170"/>
</g>
<!-- Unix/TS 1.0 -->
<g id="node79" class="node"><title>Unix/TS 1.0</title>
<ellipse style="fill:#b2dfee;stroke:#b2dfee;" cx="332" cy="149" rx="22" ry="8"/>
<text text-anchor="middle" x="332" y="151" style="font-size:6.68;">Unix/TS 1.0</text>
</g>
<!-- Unix/TS 1.0&#45;&gt;Unix/TS 3.0 -->
<g id="edge86" class="edge"><title>Unix/TS 1.0&#45;&gt;Unix/TS 3.0</title>
<path style="fill:none;stroke:black;" d="M321,156C315,161 306,167 298,172"/>
<polygon style="fill:black;stroke:black;" points="299,174 294,175 297,171 299,174"/>
</g>
<!-- System V.0 -->
<g id="node86" class="node"><title>System V.0</title>
<ellipse style="fill:#b2dfee;stroke:#b2dfee;" cx="319" cy="286" rx="21" ry="8"/>
<text text-anchor="middle" x="319" y="288" style="font-size:6.68;">System V.0</text>
</g>
<!-- TS 4.0&#45;&gt;System V.0 -->
<g id="edge94" class="edge"><title>TS 4.0&#45;&gt;System V.0</title>
<path style="fill:none;stroke:black;" d="M319,260C319,264 319,268 319,273"/>
<polygon style="fill:black;stroke:black;" points="321,273 319,278 318,273 321,273"/>
</g>
<!-- System V.2 -->
<g id="node88" class="node"><title>System V.2</title>
<ellipse style="fill:#b2dfee;stroke:#b2dfee;" cx="319" cy="320" rx="21" ry="8"/>
<text text-anchor="middle" x="319" y="323" style="font-size:6.68;">System V.2</text>
</g>
<!-- System V.0&#45;&gt;System V.2 -->
<g id="edge96" class="edge"><title>System V.0&#45;&gt;System V.2</title>
<path style="fill:none;stroke:black;" d="M319,295C319,299 319,303 319,307"/>
<polygon style="fill:black;stroke:black;" points="321,307 319,312 318,307 321,307"/>
</g>
<!-- System V.3 -->
<g id="node90" class="node"><title>System V.3</title>
<ellipse style="fill:#b2dfee;stroke:#b2dfee;" cx="319" cy="355" rx="21" ry="8"/>
<text text-anchor="middle" x="319" y="357" style="font-size:6.68;">System V.3</text>
</g>
<!-- System V.2&#45;&gt;System V.3 -->
<g id="edge98" class="edge"><title>System V.2&#45;&gt;System V.3</title>
<path style="fill:none;stroke:black;" d="M319,329C319,333 319,337 319,341"/>
<polygon style="fill:black;stroke:black;" points="321,341 319,346 318,341 321,341"/>
</g>
</g>
</svg>
