<?xml version="1.0" encoding="UTF-8" standalone="no"?>
<!DOCTYPE svg PUBLIC "-//W3C//DTD SVG 1.0//EN"
 "http://www.w3.org/TR/2001/REC-SVG-20010904/DTD/svg10.dtd" [
 <!ATTLIST svg xmlns:xlink CDATA #FIXED "http://www.w3.org/1999/xlink">
]>
<!-- Generated by dot version 2.7.20051025.0440 (Tue Oct 25 07:40:11 UTC 2005)
     For user: (ellson) John Ellson -->
<!-- Title: world Pages: 1 -->
<svg width="509pt" height="284pt"
 viewBox = "0 0 509 284"
 xmlns="http://www.w3.org/2000/svg" xmlns:xlink="http://www.w3.org/1999/xlink">
<g id="graph0" class="graph" style="font-family:Times-Roman;font-size:14.00;">
<title>world</title>
<!-- S8 -->
<g id="node2" class="node"><title>S8</title>
<ellipse style="fill:none;stroke:black;" cx="90" cy="10" rx="12" ry="8"/>
<text text-anchor="middle" x="90" y="13" style="font-size:6.40;">S8</text>
</g>
<!-- 9 -->
<g id="node21" class="node"><title>9</title>
<ellipse style="fill:none;stroke:black;" cx="90" cy="76" rx="12" ry="8"/>
<text text-anchor="middle" x="90" y="78" style="font-size:6.40;">9</text>
</g>
<!-- S8&#45;&gt;9 -->
<g id="edge11" class="edge"><title>S8&#45;&gt;9</title>
<path style="fill:none;stroke:black;" d="M90,19C90,30 90,50 90,63"/>
<polygon style="fill:black;stroke:black;" points="92,63 90,68 89,63 92,63"/>
</g>
<!-- S24 -->
<g id="node3" class="node"><title>S24</title>
<ellipse style="fill:none;stroke:black;" cx="25" cy="10" rx="12" ry="8"/>
<text text-anchor="middle" x="25" y="13" style="font-size:6.40;">S24</text>
</g>
<!-- 25 -->
<g id="node20" class="node"><title>25</title>
<ellipse style="fill:none;stroke:black;" cx="40" cy="76" rx="12" ry="8"/>
<text text-anchor="middle" x="40" y="78" style="font-size:6.40;">25</text>
</g>
<!-- S24&#45;&gt;25 -->
<g id="edge13" class="edge"><title>S24&#45;&gt;25</title>
<path style="fill:none;stroke:black;" d="M27,19C29,30 34,50 37,63"/>
<polygon style="fill:black;stroke:black;" points="39,63 38,68 36,64 39,63"/>
</g>
<!-- 27 -->
<g id="node47" class="node"><title>27</title>
<ellipse style="fill:none;stroke:black;" cx="15" cy="175" rx="12" ry="8"/>
<text text-anchor="middle" x="15" y="177" style="font-size:6.40;">27</text>
</g>
<!-- S24&#45;&gt;27 -->
<g id="edge15" class="edge"><title>S24&#45;&gt;27</title>
<path style="fill:none;stroke:black;" d="M23,19C20,31 15,55 15,76 15,76 15,76 15,109 15,127 15,149 15,162"/>
<polygon style="fill:black;stroke:black;" points="17,162 15,167 13,162 17,162"/>
</g>
<!-- S1 -->
<g id="node4" class="node"><title>S1</title>
<ellipse style="fill:none;stroke:black;" cx="354" cy="10" rx="12" ry="8"/>
<text text-anchor="middle" x="354" y="13" style="font-size:6.40;">S1</text>
</g>
<!-- 10 -->
<g id="node17" class="node"><title>10</title>
<ellipse style="fill:none;stroke:black;" cx="404" cy="43" rx="12" ry="8"/>
<text text-anchor="middle" x="404" y="46" style="font-size:6.40;">10</text>
</g>
<!-- S1&#45;&gt;10 -->
<g id="edge19" class="edge"><title>S1&#45;&gt;10</title>
<path style="fill:none;stroke:black;" d="M363,16C370,21 383,29 391,35"/>
<polygon style="fill:black;stroke:black;" points="393,34 395,37 391,36 393,34"/>
</g>
<!-- 2 -->
<g id="node18" class="node"><title>2</title>
<ellipse style="fill:none;stroke:black;" cx="304" cy="43" rx="12" ry="8"/>
<text text-anchor="middle" x="304" y="46" style="font-size:6.40;">2</text>
</g>
<!-- S1&#45;&gt;2 -->
<g id="edge17" class="edge"><title>S1&#45;&gt;2</title>
<path style="fill:none;stroke:black;" d="M345,16C337,21 326,29 316,35"/>
<polygon style="fill:black;stroke:black;" points="317,36 313,37 316,33 317,36"/>
</g>
<!-- S35 -->
<g id="node5" class="node"><title>S35</title>
<ellipse style="fill:none;stroke:black;" cx="135" cy="10" rx="12" ry="8"/>
<text text-anchor="middle" x="135" y="13" style="font-size:6.40;">S35</text>
</g>
<!-- 43 -->
<g id="node14" class="node"><title>43</title>
<ellipse style="fill:none;stroke:black;" cx="148" cy="43" rx="12" ry="8"/>
<text text-anchor="middle" x="148" y="46" style="font-size:6.40;">43</text>
</g>
<!-- S35&#45;&gt;43 -->
<g id="edge21" class="edge"><title>S35&#45;&gt;43</title>
<path style="fill:none;stroke:black;" d="M139,18C140,22 142,27 144,31"/>
<polygon style="fill:black;stroke:black;" points="145,31 145,36 142,31 145,31"/>
</g>
<!-- 36 -->
<g id="node16" class="node"><title>36</title>
<ellipse style="fill:none;stroke:black;" cx="115" cy="43" rx="12" ry="8"/>
<text text-anchor="middle" x="115" y="46" style="font-size:6.40;">36</text>
</g>
<!-- S35&#45;&gt;36 -->
<g id="edge23" class="edge"><title>S35&#45;&gt;36</title>
<path style="fill:none;stroke:black;" d="M131,18C129,22 125,27 123,31"/>
<polygon style="fill:black;stroke:black;" points="124,32 120,36 121,31 124,32"/>
</g>
<!-- S30 -->
<g id="node6" class="node"><title>S30</title>
<ellipse style="fill:none;stroke:black;" cx="480" cy="10" rx="12" ry="8"/>
<text text-anchor="middle" x="480" y="13" style="font-size:6.40;">S30</text>
</g>
<!-- 33 -->
<g id="node33" class="node"><title>33</title>
<ellipse style="fill:none;stroke:black;" cx="494" cy="109" rx="12" ry="8"/>
<text text-anchor="middle" x="494" y="111" style="font-size:6.40;">33</text>
</g>
<!-- S30&#45;&gt;33 -->
<g id="edge27" class="edge"><title>S30&#45;&gt;33</title>
<path style="fill:none;stroke:black;" d="M481,19C483,36 489,76 492,96"/>
<polygon style="fill:black;stroke:black;" points="494,96 493,101 491,96 494,96"/>
</g>
<!-- 31 -->
<g id="node40" class="node"><title>31</title>
<ellipse style="fill:none;stroke:black;" cx="469" cy="142" rx="12" ry="8"/>
<text text-anchor="middle" x="469" y="144" style="font-size:6.40;">31</text>
</g>
<!-- S30&#45;&gt;31 -->
<g id="edge25" class="edge"><title>S30&#45;&gt;31</title>
<path style="fill:none;stroke:black;" d="M479,19C477,41 472,102 470,129"/>
<polygon style="fill:black;stroke:black;" points="471,129 469,134 469,129 471,129"/>
</g>
<!-- T8 -->
<g id="node8" class="node"><title>T8</title>
<ellipse style="fill:none;stroke:black;" cx="136" cy="274" rx="12" ry="8"/>
<text text-anchor="middle" x="136" y="276" style="font-size:6.40;">T8</text>
</g>
<!-- T24 -->
<g id="node9" class="node"><title>T24</title>
<ellipse style="fill:none;stroke:black;" cx="58" cy="274" rx="12" ry="8"/>
<text text-anchor="middle" x="58" y="276" style="font-size:6.40;">T24</text>
</g>
<!-- T1 -->
<g id="node10" class="node"><title>T1</title>
<ellipse style="fill:none;stroke:black;" cx="257" cy="274" rx="12" ry="8"/>
<text text-anchor="middle" x="257" y="276" style="font-size:6.40;">T1</text>
</g>
<!-- T35 -->
<g id="node11" class="node"><title>T35</title>
<ellipse style="fill:none;stroke:black;" cx="169" cy="274" rx="12" ry="8"/>
<text text-anchor="middle" x="169" y="276" style="font-size:6.40;">T35</text>
</g>
<!-- T30 -->
<g id="node12" class="node"><title>T30</title>
<ellipse style="fill:none;stroke:black;" cx="417" cy="274" rx="12" ry="8"/>
<text text-anchor="middle" x="417" y="276" style="font-size:6.40;">T30</text>
</g>
<!-- 38 -->
<g id="node22" class="node"><title>38</title>
<ellipse style="fill:none;stroke:black;" cx="140" cy="76" rx="12" ry="8"/>
<text text-anchor="middle" x="140" y="78" style="font-size:6.40;">38</text>
</g>
<!-- 43&#45;&gt;38 -->
<g id="edge87" class="edge"><title>43&#45;&gt;38</title>
<path style="fill:none;stroke:black;" d="M146,52C146,55 145,59 144,63"/>
<polygon style="fill:black;stroke:black;" points="145,64 142,68 142,63 145,64"/>
</g>
<!-- 40 -->
<g id="node23" class="node"><title>40</title>
<ellipse style="fill:none;stroke:black;" cx="173" cy="76" rx="12" ry="8"/>
<text text-anchor="middle" x="173" y="78" style="font-size:6.40;">40</text>
</g>
<!-- 43&#45;&gt;40 -->
<g id="edge89" class="edge"><title>43&#45;&gt;40</title>
<path style="fill:none;stroke:black;" d="M154,51C157,55 162,60 165,65"/>
<polygon style="fill:black;stroke:black;" points="167,64 168,69 164,66 167,64"/>
</g>
<!-- 37 -->
<g id="node15" class="node"><title>37</title>
<ellipse style="fill:none;stroke:black;" cx="190" cy="43" rx="12" ry="8"/>
<text text-anchor="middle" x="190" y="46" style="font-size:6.40;">37</text>
</g>
<!-- 37&#45;&gt;38 -->
<g id="edge78" class="edge"><title>37&#45;&gt;38</title>
<path style="fill:none;stroke:black;" d="M181,49C173,54 162,62 153,68"/>
<polygon style="fill:black;stroke:black;" points="154,69 149,70 152,66 154,69"/>
</g>
<!-- 37&#45;&gt;40 -->
<g id="edge79" class="edge"><title>37&#45;&gt;40</title>
<path style="fill:none;stroke:black;" d="M186,51C184,55 182,60 179,64"/>
<polygon style="fill:black;stroke:black;" points="181,65 178,68 178,63 181,65"/>
</g>
<!-- 39 -->
<g id="node35" class="node"><title>39</title>
<ellipse style="fill:none;stroke:black;" cx="166" cy="109" rx="12" ry="8"/>
<text text-anchor="middle" x="166" y="111" style="font-size:6.40;">39</text>
</g>
<!-- 37&#45;&gt;39 -->
<g id="edge80" class="edge"><title>37&#45;&gt;39</title>
<path style="fill:none;stroke:black;" d="M192,52C193,60 194,74 190,84 187,90 183,96 178,100"/>
<polygon style="fill:black;stroke:black;" points="179,102 174,103 177,99 179,102"/>
</g>
<!-- 41 -->
<g id="node43" class="node"><title>41</title>
<ellipse style="fill:none;stroke:black;" cx="278" cy="142" rx="12" ry="8"/>
<text text-anchor="middle" x="278" y="144" style="font-size:6.40;">41</text>
</g>
<!-- 37&#45;&gt;41 -->
<g id="edge81" class="edge"><title>37&#45;&gt;41</title>
<path style="fill:none;stroke:black;" d="M194,51C202,66 220,96 241,117 247,124 257,130 264,135"/>
<polygon style="fill:black;stroke:black;" points="265,133 268,137 263,136 265,133"/>
</g>
<!-- 19 -->
<g id="node34" class="node"><title>19</title>
<ellipse style="fill:none;stroke:black;" cx="199" cy="109" rx="12" ry="8"/>
<text text-anchor="middle" x="199" y="111" style="font-size:6.40;">19</text>
</g>
<!-- 36&#45;&gt;19 -->
<g id="edge91" class="edge"><title>36&#45;&gt;19</title>
<path style="fill:none;stroke:black;" d="M115,52C115,61 116,76 124,84 142,104 157,91 182,101 183,101 184,102 185,102"/>
<polygon style="fill:black;stroke:black;" points="185,101 189,104 184,104 185,101"/>
</g>
<!-- 10&#45;&gt;T1 -->
<g id="edge47" class="edge"><title>10&#45;&gt;T1</title>
<path style="fill:none;stroke:black;" d="M411,51C420,61 435,80 441,101 443,108 444,111 441,117 436,128 426,124 420,134 410,150 411,157 411,175 411,175 411,175 411,208 411,237 313,262 273,270"/>
<polygon style="fill:black;stroke:black;" points="273,272 269,271 273,269 273,272"/>
</g>
<!-- 13 -->
<g id="node24" class="node"><title>13</title>
<ellipse style="fill:none;stroke:black;" cx="359" cy="76" rx="12" ry="8"/>
<text text-anchor="middle" x="359" y="78" style="font-size:6.40;">13</text>
</g>
<!-- 10&#45;&gt;13 -->
<g id="edge48" class="edge"><title>10&#45;&gt;13</title>
<path style="fill:none;stroke:black;" d="M395,50C389,54 379,62 371,68"/>
<polygon style="fill:black;stroke:black;" points="372,69 367,70 370,67 372,69"/>
</g>
<!-- 12 -->
<g id="node26" class="node"><title>12</title>
<ellipse style="fill:none;stroke:black;" cx="392" cy="76" rx="12" ry="8"/>
<text text-anchor="middle" x="392" y="78" style="font-size:6.40;">12</text>
</g>
<!-- 10&#45;&gt;12 -->
<g id="edge49" class="edge"><title>10&#45;&gt;12</title>
<path style="fill:none;stroke:black;" d="M401,52C400,55 398,60 396,64"/>
<polygon style="fill:black;stroke:black;" points="398,64 395,68 395,63 398,64"/>
</g>
<!-- 11 -->
<g id="node31" class="node"><title>11</title>
<ellipse style="fill:none;stroke:black;" cx="390" cy="109" rx="12" ry="8"/>
<text text-anchor="middle" x="390" y="111" style="font-size:6.40;">11</text>
</g>
<!-- 10&#45;&gt;11 -->
<g id="edge50" class="edge"><title>10&#45;&gt;11</title>
<path style="fill:none;stroke:black;" d="M407,52C409,60 412,73 408,84 406,90 403,95 400,99"/>
<polygon style="fill:black;stroke:black;" points="401,100 396,102 399,98 401,100"/>
</g>
<!-- 14 -->
<g id="node36" class="node"><title>14</title>
<ellipse style="fill:none;stroke:black;" cx="425" cy="109" rx="12" ry="8"/>
<text text-anchor="middle" x="425" y="111" style="font-size:6.40;">14</text>
</g>
<!-- 10&#45;&gt;14 -->
<g id="edge51" class="edge"><title>10&#45;&gt;14</title>
<path style="fill:none;stroke:black;" d="M408,52C410,56 413,62 415,68 418,77 421,88 422,96"/>
<polygon style="fill:black;stroke:black;" points="424,96 423,101 421,97 424,96"/>
</g>
<!-- 2&#45;&gt;T1 -->
<g id="edge40" class="edge"><title>2&#45;&gt;T1</title>
<path style="fill:none;stroke:black;" d="M309,51C319,67 342,106 342,142 342,142 342,142 342,208 342,243 298,261 273,269"/>
<polygon style="fill:black;stroke:black;" points="273,270 268,270 273,268 273,270"/>
</g>
<!-- 17 -->
<g id="node25" class="node"><title>17</title>
<ellipse style="fill:none;stroke:black;" cx="241" cy="76" rx="12" ry="8"/>
<text text-anchor="middle" x="241" y="78" style="font-size:6.40;">17</text>
</g>
<!-- 2&#45;&gt;17 -->
<g id="edge41" class="edge"><title>2&#45;&gt;17</title>
<path style="fill:none;stroke:black;" d="M294,48C284,54 267,62 255,69"/>
<polygon style="fill:black;stroke:black;" points="255,70 251,71 254,68 255,70"/>
</g>
<!-- 18 -->
<g id="node27" class="node"><title>18</title>
<ellipse style="fill:none;stroke:black;" cx="291" cy="76" rx="12" ry="8"/>
<text text-anchor="middle" x="291" y="78" style="font-size:6.40;">18</text>
</g>
<!-- 2&#45;&gt;18 -->
<g id="edge42" class="edge"><title>2&#45;&gt;18</title>
<path style="fill:none;stroke:black;" d="M301,51C300,55 298,60 296,64"/>
<polygon style="fill:black;stroke:black;" points="297,64 294,68 294,63 297,64"/>
</g>
<!-- 3 -->
<g id="node32" class="node"><title>3</title>
<ellipse style="fill:none;stroke:black;" cx="257" cy="109" rx="12" ry="8"/>
<text text-anchor="middle" x="257" y="111" style="font-size:6.40;">3</text>
</g>
<!-- 2&#45;&gt;3 -->
<g id="edge43" class="edge"><title>2&#45;&gt;3</title>
<path style="fill:none;stroke:black;" d="M295,49C289,54 280,61 275,68 268,77 264,88 261,96"/>
<polygon style="fill:black;stroke:black;" points="262,97 260,101 260,96 262,97"/>
</g>
<!-- 16 -->
<g id="node37" class="node"><title>16</title>
<ellipse style="fill:none;stroke:black;" cx="316" cy="109" rx="12" ry="8"/>
<text text-anchor="middle" x="316" y="111" style="font-size:6.40;">16</text>
</g>
<!-- 2&#45;&gt;16 -->
<g id="edge44" class="edge"><title>2&#45;&gt;16</title>
<path style="fill:none;stroke:black;" d="M305,52C308,63 312,83 314,96"/>
<polygon style="fill:black;stroke:black;" points="316,96 315,101 313,97 316,96"/>
</g>
<!-- 25&#45;&gt;T1 -->
<g id="edge33" class="edge"><title>25&#45;&gt;T1</title>
<path style="fill:none;stroke:black;" d="M40,84C40,97 40,121 40,142 40,142 40,142 40,208 40,239 69,237 98,249 111,254 202,267 240,272"/>
<polygon style="fill:black;stroke:black;" points="240,270 245,272 240,273 240,270"/>
</g>
<!-- 26 -->
<g id="node29" class="node"><title>26</title>
<ellipse style="fill:none;stroke:black;" cx="65" cy="109" rx="12" ry="8"/>
<text text-anchor="middle" x="65" y="111" style="font-size:6.40;">26</text>
</g>
<!-- 25&#45;&gt;26 -->
<g id="edge35" class="edge"><title>25&#45;&gt;26</title>
<path style="fill:none;stroke:black;" d="M45,84C49,88 53,93 57,98"/>
<polygon style="fill:black;stroke:black;" points="58,97 60,102 56,99 58,97"/>
</g>
<!-- 9&#45;&gt;T1 -->
<g id="edge31" class="edge"><title>9&#45;&gt;T1</title>
<path style="fill:none;stroke:black;" d="M90,84C90,97 90,121 90,142 90,142 90,142 90,208 90,232 104,237 124,249 143,261 209,269 240,272"/>
<polygon style="fill:black;stroke:black;" points="240,270 245,272 240,273 240,270"/>
</g>
<!-- 42 -->
<g id="node30" class="node"><title>42</title>
<ellipse style="fill:none;stroke:black;" cx="115" cy="109" rx="12" ry="8"/>
<text text-anchor="middle" x="115" y="111" style="font-size:6.40;">42</text>
</g>
<!-- 9&#45;&gt;42 -->
<g id="edge29" class="edge"><title>9&#45;&gt;42</title>
<path style="fill:none;stroke:black;" d="M96,84C99,88 103,93 107,98"/>
<polygon style="fill:black;stroke:black;" points="109,97 110,102 106,99 109,97"/>
</g>
<!-- 4 -->
<g id="node39" class="node"><title>4</title>
<ellipse style="fill:none;stroke:black;" cx="129" cy="142" rx="12" ry="8"/>
<text text-anchor="middle" x="129" y="144" style="font-size:6.40;">4</text>
</g>
<!-- 38&#45;&gt;4 -->
<g id="edge101" class="edge"><title>38&#45;&gt;4</title>
<path style="fill:none;stroke:black;" d="M139,84C137,96 133,116 131,129"/>
<polygon style="fill:black;stroke:black;" points="132,130 130,134 130,129 132,130"/>
</g>
<!-- 40&#45;&gt;19 -->
<g id="edge103" class="edge"><title>40&#45;&gt;19</title>
<path style="fill:none;stroke:black;" d="M179,84C182,88 187,93 190,98"/>
<polygon style="fill:black;stroke:black;" points="192,97 193,102 189,99 192,97"/>
</g>
<!-- 13&#45;&gt;19 -->
<g id="edge83" class="edge"><title>13&#45;&gt;19</title>
<path style="fill:none;stroke:black;" d="M347,78C319,84 247,99 215,106"/>
<polygon style="fill:black;stroke:black;" points="215,107 210,107 215,105 215,107"/>
</g>
<!-- 17&#45;&gt;19 -->
<g id="edge69" class="edge"><title>17&#45;&gt;19</title>
<path style="fill:none;stroke:black;" d="M233,83C227,88 218,94 210,100"/>
<polygon style="fill:black;stroke:black;" points="211,101 207,103 209,99 211,101"/>
</g>
<!-- 29 -->
<g id="node51" class="node"><title>29</title>
<ellipse style="fill:none;stroke:black;" cx="311" cy="175" rx="12" ry="8"/>
<text text-anchor="middle" x="311" y="177" style="font-size:6.40;">29</text>
</g>
<!-- 12&#45;&gt;29 -->
<g id="edge85" class="edge"><title>12&#45;&gt;29</title>
<path style="fill:none;stroke:black;" d="M386,84C372,101 337,144 320,164"/>
<polygon style="fill:black;stroke:black;" points="321,165 317,168 319,163 321,165"/>
</g>
<!-- 18&#45;&gt;29 -->
<g id="edge71" class="edge"><title>18&#45;&gt;29</title>
<path style="fill:none;stroke:black;" d="M293,84C296,102 305,142 309,162"/>
<polygon style="fill:black;stroke:black;" points="310,162 310,167 307,163 310,162"/>
</g>
<!-- 26&#45;&gt;4 -->
<g id="edge63" class="edge"><title>26&#45;&gt;4</title>
<path style="fill:none;stroke:black;" d="M75,114C85,120 103,128 115,135"/>
<polygon style="fill:black;stroke:black;" points="116,133 119,137 114,136 116,133"/>
</g>
<!-- 42&#45;&gt;4 -->
<g id="edge61" class="edge"><title>42&#45;&gt;4</title>
<path style="fill:none;stroke:black;" d="M119,117C120,121 122,126 124,130"/>
<polygon style="fill:black;stroke:black;" points="125,129 125,134 123,130 125,129"/>
</g>
<!-- 11&#45;&gt;4 -->
<g id="edge73" class="edge"><title>11&#45;&gt;4</title>
<path style="fill:none;stroke:black;" d="M377,111C366,113 348,115 333,117 257,126 237,121 162,134 156,135 150,136 145,137"/>
<polygon style="fill:black;stroke:black;" points="145,139 140,139 144,136 145,139"/>
</g>
<!-- 3&#45;&gt;4 -->
<g id="edge65" class="edge"><title>3&#45;&gt;4</title>
<path style="fill:none;stroke:black;" d="M246,112C223,118 171,131 145,138"/>
<polygon style="fill:black;stroke:black;" points="145,139 140,139 144,137 145,139"/>
</g>
<!-- 33&#45;&gt;T30 -->
<g id="edge57" class="edge"><title>33&#45;&gt;T30</title>
<path style="fill:none;stroke:black;" d="M494,117C494,130 494,154 494,175 494,175 494,175 494,208 494,240 455,259 433,268"/>
<polygon style="fill:black;stroke:black;" points="433,270 428,270 432,267 433,270"/>
</g>
<!-- 34 -->
<g id="node41" class="node"><title>34</title>
<ellipse style="fill:none;stroke:black;" cx="436" cy="142" rx="12" ry="8"/>
<text text-anchor="middle" x="436" y="144" style="font-size:6.40;">34</text>
</g>
<!-- 33&#45;&gt;34 -->
<g id="edge59" class="edge"><title>33&#45;&gt;34</title>
<path style="fill:none;stroke:black;" d="M485,115C475,120 460,128 450,134"/>
<polygon style="fill:black;stroke:black;" points="450,136 446,137 449,133 450,136"/>
</g>
<!-- 21 -->
<g id="node42" class="node"><title>21</title>
<ellipse style="fill:none;stroke:black;" cx="179" cy="142" rx="12" ry="8"/>
<text text-anchor="middle" x="179" y="144" style="font-size:6.40;">21</text>
</g>
<!-- 19&#45;&gt;21 -->
<g id="edge108" class="edge"><title>19&#45;&gt;21</title>
<path style="fill:none;stroke:black;" d="M194,117C192,121 188,126 186,130"/>
<polygon style="fill:black;stroke:black;" points="187,131 183,134 184,130 187,131"/>
</g>
<!-- 28 -->
<g id="node44" class="node"><title>28</title>
<ellipse style="fill:none;stroke:black;" cx="245" cy="142" rx="12" ry="8"/>
<text text-anchor="middle" x="245" y="144" style="font-size:6.40;">28</text>
</g>
<!-- 19&#45;&gt;28 -->
<g id="edge109" class="edge"><title>19&#45;&gt;28</title>
<path style="fill:none;stroke:black;" d="M207,115C214,120 224,127 232,133"/>
<polygon style="fill:black;stroke:black;" points="233,132 236,136 231,135 233,132"/>
</g>
<!-- 20 -->
<g id="node45" class="node"><title>20</title>
<ellipse style="fill:none;stroke:black;" cx="212" cy="142" rx="12" ry="8"/>
<text text-anchor="middle" x="212" y="144" style="font-size:6.40;">20</text>
</g>
<!-- 19&#45;&gt;20 -->
<g id="edge110" class="edge"><title>19&#45;&gt;20</title>
<path style="fill:none;stroke:black;" d="M202,117C204,121 205,126 207,130"/>
<polygon style="fill:black;stroke:black;" points="209,129 209,134 206,130 209,129"/>
</g>
<!-- 15 -->
<g id="node52" class="node"><title>15</title>
<ellipse style="fill:none;stroke:black;" cx="257" cy="175" rx="12" ry="8"/>
<text text-anchor="middle" x="257" y="177" style="font-size:6.40;">15</text>
</g>
<!-- 39&#45;&gt;15 -->
<g id="edge97" class="edge"><title>39&#45;&gt;15</title>
<path style="fill:none;stroke:black;" d="M162,117C159,126 155,141 162,150 172,163 216,170 240,173"/>
<polygon style="fill:black;stroke:black;" points="240,172 245,174 240,174 240,172"/>
</g>
<!-- 14&#45;&gt;15 -->
<g id="edge75" class="edge"><title>14&#45;&gt;15</title>
<path style="fill:none;stroke:black;" d="M414,114C411,115 409,116 406,117 358,137 300,159 273,169"/>
<polygon style="fill:black;stroke:black;" points="273,171 268,171 272,168 273,171"/>
</g>
<!-- 16&#45;&gt;15 -->
<g id="edge67" class="edge"><title>16&#45;&gt;15</title>
<path style="fill:none;stroke:black;" d="M313,117C310,126 303,141 294,150 288,157 278,163 271,168"/>
<polygon style="fill:black;stroke:black;" points="272,169 267,170 270,166 272,169"/>
</g>
<!-- 5 -->
<g id="node48" class="node"><title>5</title>
<ellipse style="fill:none;stroke:black;" cx="139" cy="175" rx="12" ry="8"/>
<text text-anchor="middle" x="139" y="177" style="font-size:6.40;">5</text>
</g>
<!-- 4&#45;&gt;5 -->
<g id="edge105" class="edge"><title>4&#45;&gt;5</title>
<path style="fill:none;stroke:black;" d="M131,150C132,154 134,158 135,162"/>
<polygon style="fill:black;stroke:black;" points="136,162 136,167 133,163 136,162"/>
</g>
<!-- 31&#45;&gt;T1 -->
<g id="edge53" class="edge"><title>31&#45;&gt;T1</title>
<path style="fill:none;stroke:black;" d="M468,150C464,171 452,226 417,249 394,265 310,271 274,273"/>
<polygon style="fill:black;stroke:black;" points="274,274 269,273 274,271 274,274"/>
</g>
<!-- 32 -->
<g id="node50" class="node"><title>32</title>
<ellipse style="fill:none;stroke:black;" cx="440" cy="175" rx="12" ry="8"/>
<text text-anchor="middle" x="440" y="177" style="font-size:6.40;">32</text>
</g>
<!-- 31&#45;&gt;32 -->
<g id="edge55" class="edge"><title>31&#45;&gt;32</title>
<path style="fill:none;stroke:black;" d="M463,149C459,154 453,159 449,164"/>
<polygon style="fill:black;stroke:black;" points="450,166 446,168 448,163 450,166"/>
</g>
<!-- 34&#45;&gt;29 -->
<g id="edge95" class="edge"><title>34&#45;&gt;29</title>
<path style="fill:none;stroke:black;" d="M425,145C402,151 353,164 327,171"/>
<polygon style="fill:black;stroke:black;" points="327,172 323,172 327,169 327,172"/>
</g>
<!-- 22 -->
<g id="node49" class="node"><title>22</title>
<ellipse style="fill:none;stroke:black;" cx="179" cy="175" rx="12" ry="8"/>
<text text-anchor="middle" x="179" y="177" style="font-size:6.40;">22</text>
</g>
<!-- 21&#45;&gt;22 -->
<g id="edge117" class="edge"><title>21&#45;&gt;22</title>
<path style="fill:none;stroke:black;" d="M179,150C179,154 179,158 179,162"/>
<polygon style="fill:black;stroke:black;" points="181,162 179,167 178,162 181,162"/>
</g>
<!-- 41&#45;&gt;29 -->
<g id="edge99" class="edge"><title>41&#45;&gt;29</title>
<path style="fill:none;stroke:black;" d="M284,149C289,153 296,160 301,165"/>
<polygon style="fill:black;stroke:black;" points="302,163 305,168 300,166 302,163"/>
</g>
<!-- 28&#45;&gt;29 -->
<g id="edge121" class="edge"><title>28&#45;&gt;29</title>
<path style="fill:none;stroke:black;" d="M254,147C257,148 259,149 261,150 273,157 287,163 297,169"/>
<polygon style="fill:black;stroke:black;" points="298,167 301,170 296,170 298,167"/>
</g>
<!-- 20&#45;&gt;15 -->
<g id="edge119" class="edge"><title>20&#45;&gt;15</title>
<path style="fill:none;stroke:black;" d="M220,148C227,153 237,160 245,166"/>
<polygon style="fill:black;stroke:black;" points="246,165 249,169 244,168 246,165"/>
</g>
<!-- 27&#45;&gt;T24 -->
<g id="edge37" class="edge"><title>27&#45;&gt;T24</title>
<path style="fill:none;stroke:black;" d="M16,183C17,198 22,227 34,249 37,255 42,260 46,264"/>
<polygon style="fill:black;stroke:black;" points="47,263 50,267 45,266 47,263"/>
</g>
<!-- 5&#45;&gt;T35 -->
<g id="edge113" class="edge"><title>5&#45;&gt;T35</title>
<path style="fill:none;stroke:black;" d="M133,182C130,187 126,194 124,200 119,221 113,230 124,249 125,251 142,259 155,266"/>
<polygon style="fill:black;stroke:black;" points="156,265 159,269 155,268 156,265"/>
</g>
<!-- 6 -->
<g id="node54" class="node"><title>6</title>
<ellipse style="fill:none;stroke:black;" cx="140" cy="208" rx="12" ry="8"/>
<text text-anchor="middle" x="140" y="210" style="font-size:6.40;">6</text>
</g>
<!-- 5&#45;&gt;6 -->
<g id="edge114" class="edge"><title>5&#45;&gt;6</title>
<path style="fill:none;stroke:black;" d="M139,183C140,187 140,191 140,195"/>
<polygon style="fill:black;stroke:black;" points="141,195 140,200 138,195 141,195"/>
</g>
<!-- 23 -->
<g id="node55" class="node"><title>23</title>
<ellipse style="fill:none;stroke:black;" cx="194" cy="208" rx="12" ry="8"/>
<text text-anchor="middle" x="194" y="210" style="font-size:6.40;">23</text>
</g>
<!-- 5&#45;&gt;23 -->
<g id="edge115" class="edge"><title>5&#45;&gt;23</title>
<path style="fill:none;stroke:black;" d="M148,180C157,186 171,194 181,200"/>
<polygon style="fill:black;stroke:black;" points="182,199 185,202 180,201 182,199"/>
</g>
<!-- 22&#45;&gt;T35 -->
<g id="edge127" class="edge"><title>22&#45;&gt;T35</title>
<path style="fill:none;stroke:black;" d="M178,183C176,200 172,240 171,261"/>
<polygon style="fill:black;stroke:black;" points="172,261 170,265 169,261 172,261"/>
</g>
<!-- 22&#45;&gt;23 -->
<g id="edge129" class="edge"><title>22&#45;&gt;23</title>
<path style="fill:none;stroke:black;" d="M183,183C184,187 187,191 189,196"/>
<polygon style="fill:black;stroke:black;" points="190,195 191,200 188,196 190,195"/>
</g>
<!-- 32&#45;&gt;23 -->
<g id="edge93" class="edge"><title>32&#45;&gt;23</title>
<path style="fill:none;stroke:black;" d="M427,177C387,182 257,199 211,206"/>
<polygon style="fill:black;stroke:black;" points="211,207 206,206 211,204 211,207"/>
</g>
<!-- 29&#45;&gt;T30 -->
<g id="edge131" class="edge"><title>29&#45;&gt;T30</title>
<path style="fill:none;stroke:black;" d="M319,182C337,199 385,243 406,264"/>
<polygon style="fill:black;stroke:black;" points="407,263 410,267 405,265 407,263"/>
</g>
<!-- 15&#45;&gt;T1 -->
<g id="edge125" class="edge"><title>15&#45;&gt;T1</title>
<path style="fill:none;stroke:black;" d="M257,183C257,200 257,240 257,261"/>
<polygon style="fill:black;stroke:black;" points="259,261 257,265 256,261 259,261"/>
</g>
<!-- 7 -->
<g id="node57" class="node"><title>7</title>
<ellipse style="fill:none;stroke:black;" cx="140" cy="241" rx="12" ry="8"/>
<text text-anchor="middle" x="140" y="243" style="font-size:6.40;">7</text>
</g>
<!-- 6&#45;&gt;7 -->
<g id="edge123" class="edge"><title>6&#45;&gt;7</title>
<path style="fill:none;stroke:black;" d="M140,216C140,220 140,224 140,228"/>
<polygon style="fill:black;stroke:black;" points="142,228 140,232 139,228 142,228"/>
</g>
<!-- 23&#45;&gt;T24 -->
<g id="edge135" class="edge"><title>23&#45;&gt;T24</title>
<path style="fill:none;stroke:black;" d="M189,216C183,225 171,241 157,249 131,264 96,270 75,272"/>
<polygon style="fill:black;stroke:black;" points="75,274 71,273 75,271 75,274"/>
</g>
<!-- 23&#45;&gt;T1 -->
<g id="edge137" class="edge"><title>23&#45;&gt;T1</title>
<path style="fill:none;stroke:black;" d="M201,215C212,227 234,250 247,264"/>
<polygon style="fill:black;stroke:black;" points="248,262 250,267 246,264 248,262"/>
</g>
<!-- 7&#45;&gt;T8 -->
<g id="edge133" class="edge"><title>7&#45;&gt;T8</title>
<path style="fill:none;stroke:black;" d="M140,249C139,253 139,257 138,261"/>
<polygon style="fill:black;stroke:black;" points="140,261 137,265 137,261 140,261"/>
</g>
</g>
</svg>
