<?xml version="1.0" encoding="UTF-8" standalone="no"?>
<!DOCTYPE svg PUBLIC "-//W3C//DTD SVG 1.0//EN"
 "http://www.w3.org/TR/2001/REC-SVG-20010904/DTD/svg10.dtd" [
 <!ATTLIST svg xmlns:xlink CDATA #FIXED "http://www.w3.org/1999/xlink">
]>
<!-- Generated by dot version 2.7 (Mon Oct 24 21:09:41 UTC 2005)
     For user: (ellson) John Ellson -->
<!-- Title: ER Pages: 1 -->
<svg width="358pt" height="452pt"
 viewBox = "0 0 358 452"
 xmlns="http://www.w3.org/2000/svg" xmlns:xlink="http://www.w3.org/1999/xlink">
<g id="graph0" class="graph" style="font-family:Times-Roman;font-size:14.00;">
<title>ER</title>
<polygon style="fill:white;stroke:white;" points="0,452 0,0 358,0 358,452 0,452"/>
<text text-anchor="middle" x="179" y="414" style="font-size:20.00;">Entity Relation Diagram</text>
<text text-anchor="middle" x="179" y="438" style="font-size:20.00;">drawn by NEATO</text>
<!-- course -->
<g id="node1" class="node"><title>course</title>
<polygon style="fill:none;stroke:black;" points="130,145 76,145 76,181 130,181 130,145"/>
<text text-anchor="middle" x="103" y="168">course</text>
</g>
<!-- C&#45;I -->
<g id="node11" class="node"><title>C&#45;I</title>
<polygon style="fill:lightgrey;stroke:lightgrey;" points="148,68 117,92 148,116 179,92 148,68"/>
<text text-anchor="middle" x="148" y="97">C&#45;I</text>
</g>
<!-- course&#45;&#45;C&#45;I -->
<g id="edge7" class="edge"><title>course&#45;&#45;C&#45;I</title>
<path style="fill:none;stroke:black;" d="M115,145C122,134 131,120 138,109"/>
<text text-anchor="middle" x="119" y="128">n</text>
</g>
<!-- institute -->
<g id="node2" class="node"><title>institute</title>
<polygon style="fill:none;stroke:black;" points="262,75 200,75 200,111 262,111 262,75"/>
<text text-anchor="middle" x="231" y="98">institute</text>
</g>
<!-- name1 -->
<g id="node6" class="node"><title>name1</title>
<ellipse style="fill:none;stroke:black;" cx="270" cy="24" rx="28" ry="18"/>
<text text-anchor="middle" x="270" y="29">name</text>
</g>
<!-- institute&#45;&#45;name1 -->
<g id="edge11" class="edge"><title>institute&#45;&#45;name1</title>
<path style="fill:none;stroke:black;" d="M241,75C247,64 254,51 260,41"/>
</g>
<!-- S&#45;I -->
<g id="node13" class="node"><title>S&#45;I</title>
<polygon style="fill:lightgrey;stroke:lightgrey;" points="267,142 238,166 267,190 296,166 267,142"/>
<text text-anchor="middle" x="267" y="171">S&#45;I</text>
</g>
<!-- institute&#45;&#45;S&#45;I -->
<g id="edge13" class="edge"><title>institute&#45;&#45;S&#45;I</title>
<path style="fill:none;stroke:black;" d="M240,111C246,123 253,137 258,149"/>
<text text-anchor="middle" x="242" y="138">1</text>
</g>
<!-- student -->
<g id="node3" class="node"><title>student</title>
<polygon style="fill:none;stroke:black;" points="268,229 212,229 212,265 268,265 268,229"/>
<text text-anchor="middle" x="240" y="252">student</text>
</g>
<!-- name2 -->
<g id="node7" class="node"><title>name2</title>
<ellipse style="fill:none;stroke:black;" cx="324" cy="249" rx="28" ry="18"/>
<text text-anchor="middle" x="324" y="254">name</text>
</g>
<!-- student&#45;&#45;name2 -->
<g id="edge19" class="edge"><title>student&#45;&#45;name2</title>
<path style="fill:none;stroke:black;" d="M268,248C277,248 287,248 296,248"/>
</g>
<!-- grade -->
<g id="node9" class="node"><title>grade</title>
<ellipse style="fill:none;stroke:black;" cx="284" cy="314" rx="29" ry="18"/>
<text text-anchor="middle" x="284" y="319">grade</text>
</g>
<!-- student&#45;&#45;grade -->
<g id="edge17" class="edge"><title>student&#45;&#45;grade</title>
<path style="fill:none;stroke:black;" d="M252,265C259,275 267,287 273,297"/>
</g>
<!-- number -->
<g id="node10" class="node"><title>number</title>
<ellipse style="fill:none;stroke:black;" cx="208" cy="324" rx="34" ry="18"/>
<text text-anchor="middle" x="208" y="329">number</text>
</g>
<!-- student&#45;&#45;number -->
<g id="edge21" class="edge"><title>student&#45;&#45;number</title>
<path style="fill:none;stroke:black;" d="M232,265C227,278 220,294 215,306"/>
</g>
<!-- S&#45;C -->
<g id="node12" class="node"><title>S&#45;C</title>
<polygon style="fill:lightgrey;stroke:lightgrey;" points="158,203 125,227 158,251 191,227 158,203"/>
<text text-anchor="middle" x="158" y="232">S&#45;C</text>
</g>
<!-- student&#45;&#45;S&#45;C -->
<g id="edge23" class="edge"><title>student&#45;&#45;S&#45;C</title>
<path style="fill:none;stroke:black;" d="M212,240C203,238 193,235 184,233"/>
<text text-anchor="middle" x="196" y="252">m</text>
</g>
<!-- name0 -->
<g id="node5" class="node"><title>name0</title>
<ellipse style="fill:none;stroke:black;" cx="39" cy="114" rx="28" ry="18"/>
<text text-anchor="middle" x="39" y="119">name</text>
</g>
<!-- name0&#45;&#45;course -->
<g id="edge3" class="edge"><title>name0&#45;&#45;course</title>
<path style="fill:none;stroke:black;" d="M57,128C64,133 72,139 79,145"/>
</g>
<!-- code -->
<g id="node8" class="node"><title>code</title>
<ellipse style="fill:none;stroke:black;" cx="33" cy="206" rx="27" ry="18"/>
<text text-anchor="middle" x="33" y="211">code</text>
</g>
<!-- code&#45;&#45;course -->
<g id="edge5" class="edge"><title>code&#45;&#45;course</title>
<path style="fill:none;stroke:black;" d="M53,194C60,190 68,184 76,180"/>
</g>
<!-- C&#45;I&#45;&#45;institute -->
<g id="edge9" class="edge"><title>C&#45;I&#45;&#45;institute</title>
<path style="fill:none;stroke:black;" d="M179,92C186,92 193,92 200,93"/>
<text text-anchor="middle" x="189" y="88">1</text>
</g>
<!-- S&#45;C&#45;&#45;course -->
<g id="edge25" class="edge"><title>S&#45;C&#45;&#45;course</title>
<path style="fill:none;stroke:black;" d="M145,212C137,203 127,191 119,181"/>
<text text-anchor="middle" x="125" y="208">n</text>
</g>
<!-- S&#45;I&#45;&#45;student -->
<g id="edge15" class="edge"><title>S&#45;I&#45;&#45;student</title>
<path style="fill:none;stroke:black;" d="M261,185C257,198 251,216 246,229"/>
<text text-anchor="middle" x="261" y="214">n</text>
</g>
</g>
</svg>
