<?xml version="1.0" encoding="UTF-8" standalone="no"?>
<!DOCTYPE svg PUBLIC "-//W3C//DTD SVG 1.0//EN"
 "http://www.w3.org/TR/2001/REC-SVG-20010904/DTD/svg10.dtd" [
 <!ATTLIST svg xmlns:xlink CDATA #FIXED "http://www.w3.org/1999/xlink">
]>
<!-- Generated by dot version 2.7 (Mon Oct 24 21:09:41 UTC 2005)
     For user: (ellson) John Ellson -->
<!-- Title: G Pages: 1 -->
<svg width="366pt" height="250pt"
 viewBox = "0 0 366 250"
 xmlns="http://www.w3.org/2000/svg" xmlns:xlink="http://www.w3.org/1999/xlink">
<g id="graph0" class="graph" style="font-family:Times-Roman;font-size:14.00;">
<title>G</title>
<polygon style="fill:white;stroke:white;" points="0,250 0,0 366,0 366,250 0,250"/>
<!-- run -->
<g id="node1" class="node"><title>run</title>
<ellipse style="fill:none;stroke:black;" cx="108" cy="134" rx="27" ry="18"/>
<text text-anchor="middle" x="108" y="139">run</text>
</g>
<!-- intr -->
<g id="node3" class="node"><title>intr</title>
<ellipse style="fill:none;stroke:black;" cx="51" cy="185" rx="27" ry="18"/>
<text text-anchor="middle" x="51" y="190">intr</text>
</g>
<!-- run&#45;&#45;intr -->
<g id="edge2" class="edge"><title>run&#45;&#45;intr</title>
<path style="fill:none;stroke:black;" d="M92,148C84,155 75,164 67,170"/>
</g>
<!-- kernel -->
<g id="node8" class="node"><title>kernel</title>
<ellipse style="fill:none;stroke:black;" cx="183" cy="107" rx="31" ry="18"/>
<text text-anchor="middle" x="183" y="112">kernel</text>
</g>
<!-- run&#45;&#45;kernel -->
<g id="edge8" class="edge"><title>run&#45;&#45;kernel</title>
<path style="fill:none;stroke:black;" d="M132,125C140,122 148,119 156,116"/>
</g>
<!-- runbl -->
<g id="node5" class="node"><title>runbl</title>
<ellipse style="fill:none;stroke:black;" cx="34" cy="118" rx="28" ry="18"/>
<text text-anchor="middle" x="34" y="123">runbl</text>
</g>
<!-- intr&#45;&#45;runbl -->
<g id="edge4" class="edge"><title>intr&#45;&#45;runbl</title>
<path style="fill:none;stroke:black;" d="M46,167C44,157 41,146 38,136"/>
</g>
<!-- runbl&#45;&#45;run -->
<g id="edge6" class="edge"><title>runbl&#45;&#45;run</title>
<path style="fill:none;stroke:black;" d="M61,124C68,125 75,127 82,128"/>
</g>
<!-- zombie -->
<g id="node10" class="node"><title>zombie</title>
<ellipse style="fill:none;stroke:black;" cx="171" cy="24" rx="34" ry="18"/>
<text text-anchor="middle" x="171" y="29">zombie</text>
</g>
<!-- kernel&#45;&#45;zombie -->
<g id="edge10" class="edge"><title>kernel&#45;&#45;zombie</title>
<path style="fill:none;stroke:black;" d="M180,89C178,75 176,56 174,42"/>
</g>
<!-- sleep -->
<g id="node12" class="node"><title>sleep</title>
<ellipse style="fill:none;stroke:black;" cx="256" cy="89" rx="27" ry="18"/>
<text text-anchor="middle" x="256" y="94">sleep</text>
</g>
<!-- kernel&#45;&#45;sleep -->
<g id="edge12" class="edge"><title>kernel&#45;&#45;sleep</title>
<path style="fill:none;stroke:black;" d="M212,100C218,98 225,97 231,95"/>
</g>
<!-- runmem -->
<g id="node14" class="node"><title>runmem</title>
<ellipse style="fill:none;stroke:black;" cx="243" cy="161" rx="37" ry="18"/>
<text text-anchor="middle" x="243" y="166">runmem</text>
</g>
<!-- kernel&#45;&#45;runmem -->
<g id="edge14" class="edge"><title>kernel&#45;&#45;runmem</title>
<path style="fill:none;stroke:black;" d="M200,122C208,129 217,138 225,145"/>
</g>
<!-- sleep&#45;&#45;runmem -->
<g id="edge26" class="edge"><title>sleep&#45;&#45;runmem</title>
<path style="fill:none;stroke:black;" d="M253,107C251,118 248,132 246,143"/>
</g>
<!-- swap -->
<g id="node16" class="node"><title>swap</title>
<ellipse style="fill:none;stroke:black;" cx="333" cy="96" rx="27" ry="18"/>
<text text-anchor="middle" x="333" y="101">swap</text>
</g>
<!-- sleep&#45;&#45;swap -->
<g id="edge16" class="edge"><title>sleep&#45;&#45;swap</title>
<path style="fill:none;stroke:black;" d="M283,91C290,92 299,92 306,93"/>
</g>
<!-- runswap -->
<g id="node18" class="node"><title>runswap</title>
<ellipse style="fill:none;stroke:black;" cx="322" cy="171" rx="37" ry="18"/>
<text text-anchor="middle" x="322" y="176">runswap</text>
</g>
<!-- swap&#45;&#45;runswap -->
<g id="edge18" class="edge"><title>swap&#45;&#45;runswap</title>
<path style="fill:none;stroke:black;" d="M330,114C328,126 326,141 325,153"/>
</g>
<!-- runswap&#45;&#45;runmem -->
<g id="edge22" class="edge"><title>runswap&#45;&#45;runmem</title>
<path style="fill:none;stroke:black;" d="M286,166C284,166 281,166 279,165"/>
</g>
<!-- new -->
<g id="node20" class="node"><title>new</title>
<ellipse style="fill:none;stroke:black;" cx="281" cy="226" rx="27" ry="18"/>
<text text-anchor="middle" x="281" y="231">new</text>
</g>
<!-- runswap&#45;&#45;new -->
<g id="edge20" class="edge"><title>runswap&#45;&#45;new</title>
<path style="fill:none;stroke:black;" d="M309,188C304,195 298,203 293,210"/>
</g>
<!-- new&#45;&#45;runmem -->
<g id="edge24" class="edge"><title>new&#45;&#45;runmem</title>
<path style="fill:none;stroke:black;" d="M271,209C266,200 259,188 253,178"/>
</g>
</g>
</svg>
