<?xml version="1.0" encoding="UTF-8" standalone="no"?>
<!DOCTYPE svg PUBLIC "-//W3C//DTD SVG 1.0//EN"
 "http://www.w3.org/TR/2001/REC-SVG-20010904/DTD/svg10.dtd" [
 <!ATTLIST svg xmlns:xlink CDATA #FIXED "http://www.w3.org/1999/xlink">
]>
<!-- Generated by dot version 2.7.20051025.0440 (Tue Oct 25 07:40:11 UTC 2005)
     For user: (ellson) John Ellson -->
<!-- Title: G Pages: 1 -->
<svg width="484pt" height="492pt"
 viewBox = "0 0 484 492"
 xmlns="http://www.w3.org/2000/svg" xmlns:xlink="http://www.w3.org/1999/xlink">
<g id="graph0" class="graph" style="font-family:Times-Roman;font-size:14.00;">
<title>G</title>
<polygon style="fill:#ff0000;stroke:#ff0000;" points="0,492 0,0 484,0 484,492 0,492"/>
<!-- 1 -->
<g id="node1" class="node"><title>1</title>
<ellipse style="fill:#00ff00;stroke:black;" cx="272" cy="468" rx="27" ry="18"/>
<text text-anchor="middle" x="272" y="473">1</text>
</g>
<!-- 30 -->
<g id="node3" class="node"><title>30</title>
<ellipse style="fill:#00ff00;stroke:black;" cx="310" cy="408" rx="27" ry="18"/>
<text text-anchor="middle" x="310" y="413">30</text>
</g>
<!-- 1&#45;&#45;30 -->
<g id="edge2" class="edge"><title>1&#45;&#45;30</title>
<path style="fill:none;stroke:black;" d="M283,451C288,443 294,433 300,425"/>
</g>
<!-- 40 -->
<g id="node5" class="node"><title>40</title>
<ellipse style="fill:#00ff00;stroke:black;" cx="236" cy="391" rx="27" ry="18"/>
<text text-anchor="middle" x="236" y="396">40</text>
</g>
<!-- 1&#45;&#45;40 -->
<g id="edge4" class="edge"><title>1&#45;&#45;40</title>
<path style="fill:none;stroke:black;" d="M264,451C258,438 250,421 244,408"/>
</g>
<!-- 24 -->
<g id="node28" class="node"><title>24</title>
<ellipse style="fill:#00ff00;stroke:black;" cx="375" cy="330" rx="27" ry="18"/>
<text text-anchor="middle" x="375" y="335">24</text>
</g>
<!-- 30&#45;&#45;24 -->
<g id="edge46" class="edge"><title>30&#45;&#45;24</title>
<path style="fill:none;stroke:black;" d="M323,392C334,378 350,359 362,346"/>
</g>
<!-- 44 -->
<g id="node46" class="node"><title>44</title>
<ellipse style="fill:#00ff00;stroke:black;" cx="191" cy="362" rx="27" ry="18"/>
<text text-anchor="middle" x="191" y="367">44</text>
</g>
<!-- 30&#45;&#45;44 -->
<g id="edge48" class="edge"><title>30&#45;&#45;44</title>
<path style="fill:none;stroke:black;" d="M286,399C266,391 235,379 214,371"/>
</g>
<!-- 47 -->
<g id="node33" class="node"><title>47</title>
<ellipse style="fill:#00ff00;stroke:black;" cx="319" cy="346" rx="27" ry="18"/>
<text text-anchor="middle" x="319" y="351">47</text>
</g>
<!-- 40&#45;&#45;47 -->
<g id="edge196" class="edge"><title>40&#45;&#45;47</title>
<path style="fill:none;stroke:black;" d="M257,379C270,372 285,364 298,357"/>
</g>
<!-- 22 -->
<g id="node140" class="node"><title>22</title>
<ellipse style="fill:#00ff00;stroke:black;" cx="142" cy="385" rx="27" ry="18"/>
<text text-anchor="middle" x="142" y="390">22</text>
</g>
<!-- 40&#45;&#45;22 -->
<g id="edge194" class="edge"><title>40&#45;&#45;22</title>
<path style="fill:none;stroke:black;" d="M209,389C196,389 182,388 169,387"/>
</g>
<!-- 8 -->
<g id="node6" class="node"><title>8</title>
<ellipse style="fill:#00ff00;stroke:black;" cx="198" cy="235" rx="27" ry="18"/>
<text text-anchor="middle" x="198" y="240">8</text>
</g>
<!-- 46 -->
<g id="node8" class="node"><title>46</title>
<ellipse style="fill:#00ff00;stroke:black;" cx="148" cy="287" rx="27" ry="18"/>
<text text-anchor="middle" x="148" y="292">46</text>
</g>
<!-- 8&#45;&#45;46 -->
<g id="edge6" class="edge"><title>8&#45;&#45;46</title>
<path style="fill:none;stroke:black;" d="M183,250C177,257 169,265 163,272"/>
</g>
<!-- 16 -->
<g id="node10" class="node"><title>16</title>
<ellipse style="fill:#00ff00;stroke:black;" cx="228" cy="197" rx="27" ry="18"/>
<text text-anchor="middle" x="228" y="202">16</text>
</g>
<!-- 8&#45;&#45;16 -->
<g id="edge8" class="edge"><title>8&#45;&#45;16</title>
<path style="fill:none;stroke:black;" d="M211,219C212,217 214,215 215,213"/>
</g>
<!-- 39 -->
<g id="node68" class="node"><title>39</title>
<ellipse style="fill:#00ff00;stroke:black;" cx="290" cy="262" rx="27" ry="18"/>
<text text-anchor="middle" x="290" y="267">39</text>
</g>
<!-- 16&#45;&#45;39 -->
<g id="edge124" class="edge"><title>16&#45;&#45;39</title>
<path style="fill:none;stroke:black;" d="M243,212C253,223 266,236 275,247"/>
</g>
<!-- 50 -->
<g id="node75" class="node"><title>50</title>
<ellipse style="fill:#00ff00;stroke:black;" cx="296" cy="184" rx="27" ry="18"/>
<text text-anchor="middle" x="296" y="189">50</text>
</g>
<!-- 16&#45;&#45;50 -->
<g id="edge120" class="edge"><title>16&#45;&#45;50</title>
<path style="fill:none;stroke:black;" d="M254,192C259,191 265,190 270,189"/>
</g>
<!-- 32 -->
<g id="node85" class="node"><title>32</title>
<ellipse style="fill:#00ff00;stroke:black;" cx="205" cy="268" rx="27" ry="18"/>
<text text-anchor="middle" x="205" y="273">32</text>
</g>
<!-- 16&#45;&#45;32 -->
<g id="edge122" class="edge"><title>16&#45;&#45;32</title>
<path style="fill:none;stroke:black;" d="M222,215C218,226 214,240 211,250"/>
</g>
<!-- 10 -->
<g id="node11" class="node"><title>10</title>
<ellipse style="fill:#00ff00;stroke:black;" cx="216" cy="147" rx="27" ry="18"/>
<text text-anchor="middle" x="216" y="152">10</text>
</g>
<!-- 25 -->
<g id="node13" class="node"><title>25</title>
<ellipse style="fill:#00ff00;stroke:black;" cx="293" cy="207" rx="27" ry="18"/>
<text text-anchor="middle" x="293" y="212">25</text>
</g>
<!-- 10&#45;&#45;25 -->
<g id="edge10" class="edge"><title>10&#45;&#45;25</title>
<path style="fill:none;stroke:black;" d="M234,161C247,171 263,184 275,193"/>
</g>
<!-- 19 -->
<g id="node15" class="node"><title>19</title>
<ellipse style="fill:#00ff00;stroke:black;" cx="292" cy="117" rx="27" ry="18"/>
<text text-anchor="middle" x="292" y="122">19</text>
</g>
<!-- 10&#45;&#45;19 -->
<g id="edge12" class="edge"><title>10&#45;&#45;19</title>
<path style="fill:none;stroke:black;" d="M240,138C249,134 260,130 269,126"/>
</g>
<!-- 33 -->
<g id="node17" class="node"><title>33</title>
<ellipse style="fill:#00ff00;stroke:black;" cx="119" cy="185" rx="27" ry="18"/>
<text text-anchor="middle" x="119" y="190">33</text>
</g>
<!-- 10&#45;&#45;33 -->
<g id="edge14" class="edge"><title>10&#45;&#45;33</title>
<path style="fill:none;stroke:black;" d="M193,156C178,162 158,170 142,176"/>
</g>
<!-- 12 -->
<g id="node18" class="node"><title>12</title>
<ellipse style="fill:#00ff00;stroke:black;" cx="320" cy="241" rx="27" ry="18"/>
<text text-anchor="middle" x="320" y="246">12</text>
</g>
<!-- 25&#45;&#45;12 -->
<g id="edge36" class="edge"><title>25&#45;&#45;12</title>
<path style="fill:none;stroke:black;" d="M306,223C306,224 307,224 307,225"/>
</g>
<!-- 27 -->
<g id="node36" class="node"><title>27</title>
<ellipse style="fill:#00ff00;stroke:black;" cx="398" cy="214" rx="27" ry="18"/>
<text text-anchor="middle" x="398" y="219">27</text>
</g>
<!-- 25&#45;&#45;27 -->
<g id="edge34" class="edge"><title>25&#45;&#45;27</title>
<path style="fill:none;stroke:black;" d="M320,209C336,210 355,211 371,212"/>
</g>
<!-- 35 -->
<g id="node49" class="node"><title>35</title>
<ellipse style="fill:#00ff00;stroke:black;" cx="334" cy="216" rx="27" ry="18"/>
<text text-anchor="middle" x="334" y="221">35</text>
</g>
<!-- 19&#45;&#45;35 -->
<g id="edge144" class="edge"><title>19&#45;&#45;35</title>
<path style="fill:none;stroke:black;" d="M300,135C308,153 319,180 327,198"/>
</g>
<!-- 15 -->
<g id="node98" class="node"><title>15</title>
<ellipse style="fill:#00ff00;stroke:black;" cx="236" cy="98" rx="27" ry="18"/>
<text text-anchor="middle" x="236" y="103">15</text>
</g>
<!-- 19&#45;&#45;15 -->
<g id="edge146" class="edge"><title>19&#45;&#45;15</title>
<path style="fill:none;stroke:black;" d="M268,109C265,108 263,107 260,106"/>
</g>
<!-- 43 -->
<g id="node119" class="node"><title>43</title>
<ellipse style="fill:#00ff00;stroke:black;" cx="252" cy="161" rx="27" ry="18"/>
<text text-anchor="middle" x="252" y="166">43</text>
</g>
<!-- 19&#45;&#45;43 -->
<g id="edge148" class="edge"><title>19&#45;&#45;43</title>
<path style="fill:none;stroke:black;" d="M278,133C274,137 270,141 266,145"/>
</g>
<!-- 33&#45;&#45;46 -->
<g id="edge130" class="edge"><title>33&#45;&#45;46</title>
<path style="fill:none;stroke:black;" d="M124,203C129,221 137,250 143,269"/>
</g>
<!-- 9 -->
<g id="node95" class="node"><title>9</title>
<ellipse style="fill:#00ff00;stroke:black;" cx="156" cy="141" rx="27" ry="18"/>
<text text-anchor="middle" x="156" y="146">9</text>
</g>
<!-- 33&#45;&#45;9 -->
<g id="edge128" class="edge"><title>33&#45;&#45;9</title>
<path style="fill:none;stroke:black;" d="M132,169C136,165 139,161 143,157"/>
</g>
<!-- 48 -->
<g id="node101" class="node"><title>48</title>
<ellipse style="fill:#00ff00;stroke:black;" cx="137" cy="91" rx="27" ry="18"/>
<text text-anchor="middle" x="137" y="96">48</text>
</g>
<!-- 33&#45;&#45;48 -->
<g id="edge132" class="edge"><title>33&#45;&#45;48</title>
<path style="fill:none;stroke:black;" d="M122,167C126,150 130,126 134,109"/>
</g>
<!-- 12&#45;&#45;8 -->
<g id="edge16" class="edge"><title>12&#45;&#45;8</title>
<path style="fill:none;stroke:black;" d="M293,240C273,239 245,237 225,236"/>
</g>
<!-- 36 -->
<g id="node21" class="node"><title>36</title>
<ellipse style="fill:#00ff00;stroke:black;" cx="265" cy="341" rx="27" ry="18"/>
<text text-anchor="middle" x="265" y="346">36</text>
</g>
<!-- 12&#45;&#45;36 -->
<g id="edge18" class="edge"><title>12&#45;&#45;36</title>
<path style="fill:none;stroke:black;" d="M311,258C301,276 285,305 274,324"/>
</g>
<!-- 17 -->
<g id="node23" class="node"><title>17</title>
<ellipse style="fill:#00ff00;stroke:black;" cx="358" cy="154" rx="27" ry="18"/>
<text text-anchor="middle" x="358" y="159">17</text>
</g>
<!-- 12&#45;&#45;17 -->
<g id="edge20" class="edge"><title>12&#45;&#45;17</title>
<path style="fill:none;stroke:black;" d="M328,223C335,208 344,187 350,172"/>
</g>
<!-- 36&#45;&#45;46 -->
<g id="edge166" class="edge"><title>36&#45;&#45;46</title>
<path style="fill:none;stroke:black;" d="M243,331C222,321 191,307 170,297"/>
</g>
<!-- 21 -->
<g id="node115" class="node"><title>21</title>
<ellipse style="fill:#00ff00;stroke:black;" cx="352" cy="99" rx="27" ry="18"/>
<text text-anchor="middle" x="352" y="104">21</text>
</g>
<!-- 17&#45;&#45;21 -->
<g id="edge142" class="edge"><title>17&#45;&#45;21</title>
<path style="fill:none;stroke:black;" d="M356,136C355,130 355,123 354,117"/>
</g>
<!-- 13 -->
<g id="node24" class="node"><title>13</title>
<ellipse style="fill:#00ff00;stroke:black;" cx="451" cy="264" rx="27" ry="18"/>
<text text-anchor="middle" x="451" y="269">13</text>
</g>
<!-- 38 -->
<g id="node26" class="node"><title>38</title>
<ellipse style="fill:#00ff00;stroke:black;" cx="375" cy="204" rx="27" ry="18"/>
<text text-anchor="middle" x="375" y="209">38</text>
</g>
<!-- 13&#45;&#45;38 -->
<g id="edge22" class="edge"><title>13&#45;&#45;38</title>
<path style="fill:none;stroke:black;" d="M433,250C421,240 405,227 393,218"/>
</g>
<!-- 13&#45;&#45;24 -->
<g id="edge24" class="edge"><title>13&#45;&#45;24</title>
<path style="fill:none;stroke:black;" d="M440,281C428,293 410,308 396,319"/>
</g>
<!-- 29 -->
<g id="node41" class="node"><title>29</title>
<ellipse style="fill:#00ff00;stroke:black;" cx="244" cy="218" rx="27" ry="18"/>
<text text-anchor="middle" x="244" y="223">29</text>
</g>
<!-- 38&#45;&#45;29 -->
<g id="edge50" class="edge"><title>38&#45;&#45;29</title>
<path style="fill:none;stroke:black;" d="M348,207C326,209 293,213 271,215"/>
</g>
<!-- 38&#45;&#45;35 -->
<g id="edge52" class="edge"><title>38&#45;&#45;35</title>
<path style="fill:none;stroke:black;" d="M350,211C350,211 350,211 350,211"/>
</g>
<!-- 24&#45;&#45;12 -->
<g id="edge32" class="edge"><title>24&#45;&#45;12</title>
<path style="fill:none;stroke:black;" d="M365,313C355,297 340,274 331,258"/>
</g>
<!-- 24&#45;&#45;13 -->
<g id="edge28" class="edge"><title>24&#45;&#45;13</title>
<path style="fill:none;stroke:black;" d="M386,313C398,301 416,286 430,275"/>
</g>
<!-- 49 -->
<g id="node30" class="node"><title>49</title>
<ellipse style="fill:#00ff00;stroke:black;" cx="448" cy="344" rx="27" ry="18"/>
<text text-anchor="middle" x="448" y="349">49</text>
</g>
<!-- 24&#45;&#45;49 -->
<g id="edge26" class="edge"><title>24&#45;&#45;49</title>
<path style="fill:none;stroke:black;" d="M401,335C408,336 415,338 422,339"/>
</g>
<!-- 24&#45;&#45;47 -->
<g id="edge30" class="edge"><title>24&#45;&#45;47</title>
<path style="fill:none;stroke:black;" d="M350,337C348,338 346,338 344,339"/>
</g>
<!-- 27&#45;&#45;12 -->
<g id="edge38" class="edge"><title>27&#45;&#45;12</title>
<path style="fill:none;stroke:black;" d="M374,222C364,225 354,229 344,232"/>
</g>
<!-- 14 -->
<g id="node40" class="node"><title>14</title>
<ellipse style="fill:#00ff00;stroke:black;" cx="360" cy="284" rx="27" ry="18"/>
<text text-anchor="middle" x="360" y="289">14</text>
</g>
<!-- 27&#45;&#45;14 -->
<g id="edge40" class="edge"><title>27&#45;&#45;14</title>
<path style="fill:none;stroke:black;" d="M389,231C383,242 376,256 370,267"/>
</g>
<!-- 14&#45;&#45;38 -->
<g id="edge64" class="edge"><title>14&#45;&#45;38</title>
<path style="fill:none;stroke:black;" d="M363,266C366,253 369,235 372,222"/>
</g>
<!-- 14&#45;&#45;24 -->
<g id="edge62" class="edge"><title>14&#45;&#45;24</title>
<path style="fill:none;stroke:black;" d="M366,302C367,305 368,309 369,312"/>
</g>
<!-- 18 -->
<g id="node57" class="node"><title>18</title>
<ellipse style="fill:#00ff00;stroke:black;" cx="387" cy="281" rx="27" ry="18"/>
<text text-anchor="middle" x="387" y="286">18</text>
</g>
<!-- 14&#45;&#45;18 -->
<g id="edge60" class="edge"><title>14&#45;&#45;18</title>
<path style="fill:none;stroke:black;" d="M387,281C387,281 387,281 387,281"/>
</g>
<!-- 29&#45;&#45;8 -->
<g id="edge44" class="edge"><title>29&#45;&#45;8</title>
<path style="fill:none;stroke:black;" d="M220,227C220,227 220,227 220,227"/>
</g>
<!-- 29&#45;&#45;10 -->
<g id="edge42" class="edge"><title>29&#45;&#45;10</title>
<path style="fill:none;stroke:black;" d="M237,200C233,189 227,175 223,165"/>
</g>
<!-- 37 -->
<g id="node71" class="node"><title>37</title>
<ellipse style="fill:#00ff00;stroke:black;" cx="134" cy="262" rx="27" ry="18"/>
<text text-anchor="middle" x="134" y="267">37</text>
</g>
<!-- 44&#45;&#45;37 -->
<g id="edge100" class="edge"><title>44&#45;&#45;37</title>
<path style="fill:none;stroke:black;" d="M181,345C171,327 154,298 144,279"/>
</g>
<!-- 44&#45;&#45;32 -->
<g id="edge102" class="edge"><title>44&#45;&#45;32</title>
<path style="fill:none;stroke:black;" d="M194,344C196,328 200,303 202,286"/>
</g>
<!-- 35&#45;&#45;16 -->
<g id="edge162" class="edge"><title>35&#45;&#45;16</title>
<path style="fill:none;stroke:black;" d="M308,211C291,208 270,205 254,202"/>
</g>
<!-- 35&#45;&#45;18 -->
<g id="edge164" class="edge"><title>35&#45;&#45;18</title>
<path style="fill:none;stroke:black;" d="M347,232C355,242 366,255 374,265"/>
</g>
<!-- 34 -->
<g id="node124" class="node"><title>34</title>
<ellipse style="fill:#00ff00;stroke:black;" cx="413" cy="298" rx="27" ry="18"/>
<text text-anchor="middle" x="413" y="303">34</text>
</g>
<!-- 35&#45;&#45;34 -->
<g id="edge160" class="edge"><title>35&#45;&#45;34</title>
<path style="fill:none;stroke:black;" d="M349,231C363,246 384,268 398,283"/>
</g>
<!-- 2 -->
<g id="node50" class="node"><title>2</title>
<ellipse style="fill:#00ff00;stroke:black;" cx="290" cy="300" rx="27" ry="18"/>
<text text-anchor="middle" x="290" y="305">2</text>
</g>
<!-- 2&#45;&#45;35 -->
<g id="edge56" class="edge"><title>2&#45;&#45;35</title>
<path style="fill:none;stroke:black;" d="M299,283C307,268 317,248 325,233"/>
</g>
<!-- 42 -->
<g id="node52" class="node"><title>42</title>
<ellipse style="fill:#00ff00;stroke:black;" cx="184" cy="311" rx="27" ry="18"/>
<text text-anchor="middle" x="184" y="316">42</text>
</g>
<!-- 2&#45;&#45;42 -->
<g id="edge54" class="edge"><title>2&#45;&#45;42</title>
<path style="fill:none;stroke:black;" d="M263,303C247,305 227,307 211,308"/>
</g>
<!-- 11 -->
<g id="node55" class="node"><title>11</title>
<ellipse style="fill:#00ff00;stroke:black;" cx="249" cy="273" rx="27" ry="18"/>
<text text-anchor="middle" x="249" y="278">11</text>
</g>
<!-- 2&#45;&#45;11 -->
<g id="edge58" class="edge"><title>2&#45;&#45;11</title>
<path style="fill:none;stroke:black;" d="M270,287C270,287 269,286 269,286"/>
</g>
<!-- 42&#45;&#45;29 -->
<g id="edge98" class="edge"><title>42&#45;&#45;29</title>
<path style="fill:none;stroke:black;" d="M195,294C206,278 223,251 233,235"/>
</g>
<!-- 42&#45;&#45;44 -->
<g id="edge96" class="edge"><title>42&#45;&#45;44</title>
<path style="fill:none;stroke:black;" d="M186,329C187,334 187,339 188,344"/>
</g>
<!-- 11&#45;&#45;40 -->
<g id="edge178" class="edge"><title>11&#45;&#45;40</title>
<path style="fill:none;stroke:black;" d="M247,291C244,313 240,351 238,373"/>
</g>
<!-- 11&#45;&#45;50 -->
<g id="edge180" class="edge"><title>11&#45;&#45;50</title>
<path style="fill:none;stroke:black;" d="M258,256C267,240 279,217 287,201"/>
</g>
<!-- 18&#45;&#45;49 -->
<g id="edge66" class="edge"><title>18&#45;&#45;49</title>
<path style="fill:none;stroke:black;" d="M402,296C411,306 424,319 433,328"/>
</g>
<!-- 18&#45;&#45;47 -->
<g id="edge68" class="edge"><title>18&#45;&#45;47</title>
<path style="fill:none;stroke:black;" d="M371,296C360,306 346,320 335,331"/>
</g>
<!-- 26 -->
<g id="node62" class="node"><title>26</title>
<ellipse style="fill:#00ff00;stroke:black;" cx="91" cy="316" rx="27" ry="18"/>
<text text-anchor="middle" x="91" y="321">26</text>
</g>
<!-- 26&#45;&#45;42 -->
<g id="edge72" class="edge"><title>26&#45;&#45;42</title>
<path style="fill:none;stroke:black;" d="M118,315C130,314 145,313 157,313"/>
</g>
<!-- 41 -->
<g id="node64" class="node"><title>41</title>
<ellipse style="fill:#00ff00;stroke:black;" cx="147" cy="320" rx="27" ry="18"/>
<text text-anchor="middle" x="147" y="325">41</text>
</g>
<!-- 26&#45;&#45;41 -->
<g id="edge70" class="edge"><title>26&#45;&#45;41</title>
<path style="fill:none;stroke:black;" d="M118,318C119,318 119,318 120,318"/>
</g>
<!-- 41&#45;&#45;8 -->
<g id="edge94" class="edge"><title>41&#45;&#45;8</title>
<path style="fill:none;stroke:black;" d="M157,303C166,288 179,267 188,252"/>
</g>
<!-- 31 -->
<g id="node66" class="node"><title>31</title>
<ellipse style="fill:#00ff00;stroke:black;" cx="245" cy="313" rx="27" ry="18"/>
<text text-anchor="middle" x="245" y="318">31</text>
</g>
<!-- 41&#45;&#45;31 -->
<g id="edge92" class="edge"><title>41&#45;&#45;31</title>
<path style="fill:none;stroke:black;" d="M174,318C188,317 204,316 218,315"/>
</g>
<!-- 31&#45;&#45;25 -->
<g id="edge78" class="edge"><title>31&#45;&#45;25</title>
<path style="fill:none;stroke:black;" d="M253,295C262,275 276,244 285,224"/>
</g>
<!-- 31&#45;&#45;47 -->
<g id="edge76" class="edge"><title>31&#45;&#45;47</title>
<path style="fill:none;stroke:black;" d="M268,323C277,327 287,332 296,336"/>
</g>
<!-- 31&#45;&#45;39 -->
<g id="edge74" class="edge"><title>31&#45;&#45;39</title>
<path style="fill:none;stroke:black;" d="M259,297C264,291 271,284 276,278"/>
</g>
<!-- 39&#45;&#45;47 -->
<g id="edge90" class="edge"><title>39&#45;&#45;47</title>
<path style="fill:none;stroke:black;" d="M296,280C301,294 308,314 313,328"/>
</g>
<!-- 39&#45;&#45;14 -->
<g id="edge86" class="edge"><title>39&#45;&#45;14</title>
<path style="fill:none;stroke:black;" d="M314,270C321,272 329,274 335,276"/>
</g>
<!-- 39&#45;&#45;18 -->
<g id="edge88" class="edge"><title>39&#45;&#45;18</title>
<path style="fill:none;stroke:black;" d="M316,267C330,270 347,273 361,276"/>
</g>
<!-- 39&#45;&#45;50 -->
<g id="edge84" class="edge"><title>39&#45;&#45;50</title>
<path style="fill:none;stroke:black;" d="M291,244C292,231 293,215 295,202"/>
</g>
<!-- 37&#45;&#45;16 -->
<g id="edge82" class="edge"><title>37&#45;&#45;16</title>
<path style="fill:none;stroke:black;" d="M153,249C169,238 193,221 209,210"/>
</g>
<!-- 37&#45;&#45;26 -->
<g id="edge80" class="edge"><title>37&#45;&#45;26</title>
<path style="fill:none;stroke:black;" d="M121,278C116,285 109,293 104,300"/>
</g>
<!-- 32&#45;&#45;42 -->
<g id="edge192" class="edge"><title>32&#45;&#45;42</title>
<path style="fill:none;stroke:black;" d="M196,285C195,288 194,291 192,294"/>
</g>
<!-- 32&#45;&#45;39 -->
<g id="edge190" class="edge"><title>32&#45;&#45;39</title>
<path style="fill:none;stroke:black;" d="M232,266C242,265 253,264 263,264"/>
</g>
<!-- 28 -->
<g id="node90" class="node"><title>28</title>
<ellipse style="fill:#00ff00;stroke:black;" cx="162" cy="181" rx="27" ry="18"/>
<text text-anchor="middle" x="162" y="186">28</text>
</g>
<!-- 32&#45;&#45;28 -->
<g id="edge188" class="edge"><title>32&#45;&#45;28</title>
<path style="fill:none;stroke:black;" d="M197,251C189,235 178,213 171,198"/>
</g>
<!-- 3 -->
<g id="node86" class="node"><title>3</title>
<ellipse style="fill:#00ff00;stroke:black;" cx="73" cy="147" rx="27" ry="18"/>
<text text-anchor="middle" x="73" y="152">3</text>
</g>
<!-- 20 -->
<g id="node88" class="node"><title>20</title>
<ellipse style="fill:#00ff00;stroke:black;" cx="33" cy="182" rx="27" ry="18"/>
<text text-anchor="middle" x="33" y="187">20</text>
</g>
<!-- 3&#45;&#45;20 -->
<g id="edge104" class="edge"><title>3&#45;&#45;20</title>
<path style="fill:none;stroke:black;" d="M56,162C54,164 51,166 49,168"/>
</g>
<!-- 3&#45;&#45;28 -->
<g id="edge106" class="edge"><title>3&#45;&#45;28</title>
<path style="fill:none;stroke:black;" d="M97,156C110,161 125,167 138,172"/>
</g>
<!-- 20&#45;&#45;33 -->
<g id="edge126" class="edge"><title>20&#45;&#45;33</title>
<path style="fill:none;stroke:black;" d="M60,183C70,183 82,184 92,184"/>
</g>
<!-- 28&#45;&#45;8 -->
<g id="edge186" class="edge"><title>28&#45;&#45;8</title>
<path style="fill:none;stroke:black;" d="M173,197C178,204 183,212 187,218"/>
</g>
<!-- 28&#45;&#45;43 -->
<g id="edge184" class="edge"><title>28&#45;&#45;43</title>
<path style="fill:none;stroke:black;" d="M188,175C200,172 214,169 226,167"/>
</g>
<!-- 6 -->
<g id="node91" class="node"><title>6</title>
<ellipse style="fill:#00ff00;stroke:black;" cx="157" cy="79" rx="27" ry="18"/>
<text text-anchor="middle" x="157" y="84">6</text>
</g>
<!-- 6&#45;&#45;28 -->
<g id="edge110" class="edge"><title>6&#45;&#45;28</title>
<path style="fill:none;stroke:black;" d="M158,97C159,116 160,144 161,163"/>
</g>
<!-- 45 -->
<g id="node93" class="node"><title>45</title>
<ellipse style="fill:#00ff00;stroke:black;" cx="214" cy="24" rx="27" ry="18"/>
<text text-anchor="middle" x="214" y="29">45</text>
</g>
<!-- 6&#45;&#45;45 -->
<g id="edge108" class="edge"><title>6&#45;&#45;45</title>
<path style="fill:none;stroke:black;" d="M173,64C181,56 190,47 198,39"/>
</g>
<!-- 45&#45;&#45;15 -->
<g id="edge134" class="edge"><title>45&#45;&#45;15</title>
<path style="fill:none;stroke:black;" d="M219,42C223,54 227,69 231,80"/>
</g>
<!-- 9&#45;&#45;16 -->
<g id="edge114" class="edge"><title>9&#45;&#45;16</title>
<path style="fill:none;stroke:black;" d="M174,155C185,163 199,174 210,183"/>
</g>
<!-- 9&#45;&#45;6 -->
<g id="edge112" class="edge"><title>9&#45;&#45;6</title>
<path style="fill:none;stroke:black;" d="M156,123C156,115 157,105 157,97"/>
</g>
<!-- 15&#45;&#45;16 -->
<g id="edge116" class="edge"><title>15&#45;&#45;16</title>
<path style="fill:none;stroke:black;" d="M235,116C233,134 231,161 229,179"/>
</g>
<!-- 15&#45;&#45;48 -->
<g id="edge118" class="edge"><title>15&#45;&#45;48</title>
<path style="fill:none;stroke:black;" d="M209,96C195,95 178,94 164,93"/>
</g>
<!-- 4 -->
<g id="node110" class="node"><title>4</title>
<ellipse style="fill:#00ff00;stroke:black;" cx="323" cy="122" rx="27" ry="18"/>
<text text-anchor="middle" x="323" y="127">4</text>
</g>
<!-- 4&#45;&#45;12 -->
<g id="edge140" class="edge"><title>4&#45;&#45;12</title>
<path style="fill:none;stroke:black;" d="M323,140C322,162 321,200 321,223"/>
</g>
<!-- 4&#45;&#45;17 -->
<g id="edge136" class="edge"><title>4&#45;&#45;17</title>
<path style="fill:none;stroke:black;" d="M339,137C340,138 341,139 342,139"/>
</g>
<!-- 4&#45;&#45;15 -->
<g id="edge138" class="edge"><title>4&#45;&#45;15</title>
<path style="fill:none;stroke:black;" d="M298,115C286,112 273,108 261,105"/>
</g>
<!-- 21&#45;&#45;19 -->
<g id="edge150" class="edge"><title>21&#45;&#45;19</title>
<path style="fill:none;stroke:black;" d="M327,106C324,107 320,108 317,109"/>
</g>
<!-- 21&#45;&#45;50 -->
<g id="edge152" class="edge"><title>21&#45;&#45;50</title>
<path style="fill:none;stroke:black;" d="M341,116C331,131 317,153 307,167"/>
</g>
<!-- 43&#45;&#45;17 -->
<g id="edge200" class="edge"><title>43&#45;&#45;17</title>
<path style="fill:none;stroke:black;" d="M279,159C295,158 315,157 331,156"/>
</g>
<!-- 43&#45;&#45;11 -->
<g id="edge198" class="edge"><title>43&#45;&#45;11</title>
<path style="fill:none;stroke:black;" d="M252,179C251,200 250,234 250,255"/>
</g>
<!-- 23 -->
<g id="node122" class="node"><title>23</title>
<ellipse style="fill:#00ff00;stroke:black;" cx="377" cy="390" rx="27" ry="18"/>
<text text-anchor="middle" x="377" y="395">23</text>
</g>
<!-- 23&#45;&#45;36 -->
<g id="edge154" class="edge"><title>23&#45;&#45;36</title>
<path style="fill:none;stroke:black;" d="M354,380C335,372 307,359 288,351"/>
</g>
<!-- 34&#45;&#45;24 -->
<g id="edge158" class="edge"><title>34&#45;&#45;24</title>
<path style="fill:none;stroke:black;" d="M396,312C395,313 393,315 392,316"/>
</g>
<!-- 34&#45;&#45;23 -->
<g id="edge156" class="edge"><title>34&#45;&#45;23</title>
<path style="fill:none;stroke:black;" d="M406,316C400,332 390,356 384,373"/>
</g>
<!-- 5 -->
<g id="node131" class="node"><title>5</title>
<ellipse style="fill:#00ff00;stroke:black;" cx="267" cy="417" rx="27" ry="18"/>
<text text-anchor="middle" x="267" y="422">5</text>
</g>
<!-- 5&#45;&#45;36 -->
<g id="edge170" class="edge"><title>5&#45;&#45;36</title>
<path style="fill:none;stroke:black;" d="M267,399C266,387 266,371 266,359"/>
</g>
<!-- 7 -->
<g id="node133" class="node"><title>7</title>
<ellipse style="fill:#00ff00;stroke:black;" cx="288" cy="335" rx="27" ry="18"/>
<text text-anchor="middle" x="288" y="340">7</text>
</g>
<!-- 5&#45;&#45;7 -->
<g id="edge168" class="edge"><title>5&#45;&#45;7</title>
<path style="fill:none;stroke:black;" d="M272,399C275,385 280,367 284,353"/>
</g>
<!-- 7&#45;&#45;14 -->
<g id="edge176" class="edge"><title>7&#45;&#45;14</title>
<path style="fill:none;stroke:black;" d="M307,322C318,314 331,305 341,297"/>
</g>
<!-- 7&#45;&#45;11 -->
<g id="edge174" class="edge"><title>7&#45;&#45;11</title>
<path style="fill:none;stroke:black;" d="M278,318C272,309 265,298 260,290"/>
</g>
<!-- 7&#45;&#45;32 -->
<g id="edge172" class="edge"><title>7&#45;&#45;32</title>
<path style="fill:none;stroke:black;" d="M271,321C256,309 236,293 222,282"/>
</g>
<!-- 22&#45;&#45;46 -->
<g id="edge182" class="edge"><title>22&#45;&#45;46</title>
<path style="fill:none;stroke:black;" d="M143,367C144,349 146,322 147,305"/>
</g>
</g>
</svg>
